{
.appVersion = 965;
copyright = "Copyright 2017 Google Inc. All Rights Reserved.";
customParameters = (
{
name = glyphOrder;
value = (
.notdef,
NULL,
CR,
space,
uA500,
uA501,
uA502,
uA503,
uA504,
uA505,
uA506,
uA507,
uA508,
uA509,
uA50A,
uA50B,
uA50C,
uA50D,
uA50E,
uA50F,
uA510,
uA511,
uA512,
uA513,
uA514,
uA515,
uA516,
uA517,
uA518,
uA519,
uA51A,
uA51B,
uA51C,
uA51D,
uA51E,
uA51F,
uA520,
uA521,
uA522,
uA523,
uA524,
uA525,
uA526,
uA527,
uA528,
uA529,
uA52A,
uA52B,
uA52C,
uA52D,
uA52E,
uA52F,
uA530,
uA531,
uA532,
uA533,
uA534,
uA535,
uA536,
uA537,
uA538,
uA539,
uA53A,
uA53B,
uA53C,
uA53D,
uA53E,
uA53F,
uA540,
uA541,
uA542,
uA543,
uA544,
uA545,
uA546,
uA547,
uA548,
uA549,
uA54A,
uA54B,
uA54C,
uA54D,
uA54E,
uA54F,
uA550,
uA551,
uA552,
uA553,
uA554,
uA555,
uA556,
uA557,
uA558,
uA559,
uA55A,
uA55B,
uA55C,
uA55D,
uA55E,
uA55F,
uA560,
uA561,
uA562,
uA563,
uA564,
uA565,
uA566,
uA567,
uA568,
uA569,
uA56A,
uA56B,
uA56C,
uA56D,
uA56E,
uA56F,
uA570,
uA571,
uA572,
uA573,
uA574,
uA575,
uA576,
uA577,
uA578,
uA579,
uA57A,
uA57B,
uA57C,
uA57D,
uA57E,
uA57F,
uA580,
uA581,
uA582,
uA583,
uA584,
uA585,
uA586,
uA587,
uA588,
uA589,
uA58A,
uA58B,
uA58C,
uA58D,
uA58E,
uA58F,
uA590,
uA591,
uA592,
uA593,
uA594,
uA595,
uA596,
uA597,
uA598,
uA599,
uA59A,
uA59B,
uA59C,
uA59D,
uA59E,
uA59F,
uA5A0,
uA5A1,
uA5A2,
uA5A3,
uA5A4,
uA5A5,
uA5A6,
uA5A7,
uA5A8,
uA5A9,
uA5AA,
uA5AB,
uA5AC,
uA5AD,
uA5AE,
uA5AF,
uA5B0,
uA5B1,
uA5B2,
uA5B3,
uA5B4,
uA5B5,
uA5B6,
uA5B7,
uA5B8,
uA5B9,
uA5BA,
uA5BB,
uA5BC,
uA5BD,
uA5BE,
uA5BF,
uA5C0,
uA5C1,
uA5C2,
uA5C3,
uA5C4,
uA5C5,
uA5C6,
uA5C7,
uA5C8,
uA5C9,
uA5CA,
uA5CB,
uA5CC,
uA5CD,
uA5CE,
uA5CF,
uA5D0,
uA5D1,
uA5D2,
uA5D3,
uA5D4,
uA5D5,
uA5D6,
uA5D7,
uA5D8,
uA5D9,
uA5DA,
uA5DB,
uA5DC,
uA5DD,
uA5DE,
uA5DF,
uA5E0,
uA5E1,
uA5E2,
uA5E3,
uA5E4,
uA5E5,
uA5E6,
uA5E7,
uA5E8,
uA5E9,
uA5EA,
uA5EB,
uA5EC,
uA5ED,
uA5EE,
uA5EF,
uA5F0,
uA5F1,
uA5F2,
uA5F3,
uA5F4,
uA5F5,
uA5F6,
uA5F7,
uA5F8,
uA5F9,
uA5FA,
uA5FB,
uA5FC,
uA5FD,
uA5FE,
uA5FF,
uA600,
uA601,
uA602,
uA603,
uA604,
uA605,

glyphs = (
{
glyphname = .notdef;
lastChange = "2017-01-31 20:33:09 +0000";
layers = (
{
layerId = UUID0;
paths = (
{
closed = 1;
nodes = (
"505 0 LINE",
"505 714 LINE",
"94 714 LINE",
"94 0 LINE"
);
},
{
closed = 1;
nodes = (
"145 663 LINE",
"454 663 LINE",
"454 51 LINE",
"145 51 LINE"
);
}
);
width = 600;
}
);
},
{
glyphname = uA500;
lastChange = "2017-01-31 20:33:09 +0000";
layers = (
{
layerId = UUID0;
paths = (
{
closed = 1;
nodes = (
"566 0 LINE",
"566 69 LINE",
"364 69 LINE",
"364 645 LINE",
"566 645 LINE",
"566 714 LINE",
"84 714 LINE",
"84 645 LINE",
"286 645 LINE",
"286 69 LINE",
"84 69 LINE",
"84 0 LINE"
);
},
{
closed = 1;
nodes = (
"195 259 OFFCURVE",
"242 298 OFFCURVE",
"242 366 CURVE",
"242 431 OFFCURVE",
"194 470 OFFCURVE",
"131 470 CURVE",
"66 470 OFFCURVE",
"22 431 OFFCURVE",
"22 365 CURVE",
"22 298 OFFCURVE",
"66 259 OFFCURVE",
"131 259 CURVE"
);
},
{
closed = 1;
nodes = (
"99 315 OFFCURVE",
"81 333 OFFCURVE",
"81 365 CURVE",
"81 396 OFFCURVE",
"102 415 OFFCURVE",
"131 415 CURVE",
"160 415 OFFCURVE",
"181 396 OFFCURVE",
"181 365 CURVE SMOOTH",
"181 333 OFFCURVE",
"161 315 OFFCURVE",
"131 315 CURVE"
);
},
{
closed = 1;
nodes = (
"581 259 OFFCURVE",
"628 298 OFFCURVE",
"628 366 CURVE SMOOTH",
"628 431 OFFCURVE",
"580 470 OFFCURVE",
"517 470 CURVE SMOOTH",
"452 470 OFFCURVE",
"408 431 OFFCURVE",
"408 365 CURVE SMOOTH",
"408 298 OFFCURVE",
"452 259 OFFCURVE",
"517 259 CURVE SMOOTH"
);
},
{
closed = 1;
nodes = (
"485 315 OFFCURVE",
"467 333 OFFCURVE",
"467 365 CURVE SMOOTH",
"467 396 OFFCURVE",
"488 415 OFFCURVE",
"517 415 CURVE SMOOTH",
"546 415 OFFCURVE",
"567 396 OFFCURVE",
"567 365 CURVE SMOOTH",
"567 333 OFFCURVE",
"547 315 OFFCURVE",
"517 315 CURVE SMOOTH"
);
}
);
width = 650;
}
);
unicode = A500;
},
{
glyphname = uA501;
lastChange = "2017-01-31 20:33:09 +0000";
layers = (
{
layerId = UUID0;
paths = (
{
closed = 1;
nodes = (
"588 0 LINE",
"588 69 LINE",
"386 69 LINE",
"386 120 LINE",
"588 120 LINE",
"588 189 LINE",
"386 189 LINE",
"386 525 LINE",
"588 525 LINE",
"588 594 LINE",
"386 594 LINE",
"386 645 LINE",
"588 645 LINE",
"588 714 LINE",
"106 714 LINE",
"106 645 LINE",
"308 645 LINE",
"308 594 LINE",
"106 594 LINE",
"106 525 LINE",
"308 525 LINE",
"308 189 LINE",
"106 189 LINE",
"106 120 LINE",
"308 120 LINE",
"308 69 LINE",
"106 69 LINE",
"106 0 LINE"
);
},
{
closed = 1;
nodes = (
"217 259 OFFCURVE",
"264 298 OFFCURVE",
"264 366 CURVE SMOOTH",
"264 431 OFFCURVE",
"216 470 OFFCURVE",
"153 470 CURVE SMOOTH",
"88 470 OFFCURVE",
"44 431 OFFCURVE",
"44 365 CURVE SMOOTH",
"44 298 OFFCURVE",
"88 259 OFFCURVE",
"153 259 CURVE SMOOTH"
);
},
{
closed = 1;
nodes = (
"121 315 OFFCURVE",
"103 333 OFFCURVE",
"103 365 CURVE SMOOTH",
"103 396 OFFCURVE",
"124 415 OFFCURVE",
"153 415 CURVE SMOOTH",
"182 415 OFFCURVE",
"203 396 OFFCURVE",
"203 365 CURVE SMOOTH",
"203 333 OFFCURVE",
"183 315 OFFCURVE",
"153 315 CURVE SMOOTH"
);
},
{
closed = 1;
nodes = (
"603 259 OFFCURVE",
"650 298 OFFCURVE",
"650 366 CURVE SMOOTH",
"650 431 OFFCURVE",
"602 470 OFFCURVE",
"539 470 CURVE SMOOTH",
"474 470 OFFCURVE",
"430 431 OFFCURVE",
"430 365 CURVE SMOOTH",
"430 298 OFFCURVE",
"474 259 OFFCURVE",
"539 259 CURVE SMOOTH"
);
},
{
closed = 1;
nodes = (
"507 315 OFFCURVE",
"489 333 OFFCURVE",
"489 365 CURVE SMOOTH",
"489 396 OFFCURVE",
"510 415 OFFCURVE",
"539 415 CURVE SMOOTH",
"568 415 OFFCURVE",
"589 396 OFFCURVE",
"589 365 CURVE SMOOTH",
"589 333 OFFCURVE",
"569 315 OFFCURVE",
"539 315 CURVE SMOOTH"
);
}
);
width = 694;
}
);
unicode = A501;
},
{
glyphname = uA502;
lastChange = "2017-01-31 20:33:09 +0000";
layers = (
{
layerId = UUID0;
paths = (
{
closed = 1;
nodes = (
"475 -4 LINE",
"493 -8 OFFCURVE",
"512 -11 OFFCURVE",
"533 -11 CURVE SMOOTH",
"631 -11 OFFCURVE",
"713 59 OFFCURVE",
"746 172 CURVE",
"679 189 LINE",
"655 106 OFFCURVE",
"605 57 OFFCURVE",
"533 57 CURVE SMOOTH",
"525 57 OFFCURVE",
"518 57 OFFCURVE",
"511 58 CURVE",
"615 237 LINE",
"552 273 LINE",
"447 93 LINE",
"428 115 OFFCURVE",
"417 147 OFFCURVE",
"417 186 CURVE SMOOTH",
"417 329 OFFCURVE",
"532 519 OFFCURVE",
"664 689 CURVE",
"600 725 LINE",
"541 649 OFFCURVE",
"486 570 OFFCURVE",
"442 493 CURVE",
"400 502 OFFCURVE",
"370 540 OFFCURVE",
"370 621 CURVE SMOOTH",
"370 714 LINE",
"292 714 LINE",
"292 623 LINE SMOOTH",
"292 527 OFFCURVE",
"250 491 OFFCURVE",
"205 491 CURVE SMOOTH",
"147 491 OFFCURVE",
"111 540 OFFCURVE",
"111 643 CURVE SMOOTH",
"111 714 LINE",
"33 714 LINE",
"33 643 LINE SMOOTH",
"33 477 OFFCURVE",
"96 425 OFFCURVE",
"190 425 CURVE SMOOTH",
"242 425 OFFCURVE",
"297 447 OFFCURVE",
"327 515 CURVE",
"331 515 LINE",
"345 467 OFFCURVE",
"377 442 OFFCURVE",
"409 432 CURVE",
"365 345 OFFCURVE",
"339 260 OFFCURVE",
"339 186 CURVE SMOOTH",
"339 115 OFFCURVE",
"364 61 OFFCURVE",
"409 27 CURVE",
"364 -51 LINE",
"427 -87 LINE"
);
}
);
width = 779;
}
);
unicode = A502;
},
{
glyphname = uA503;
lastChange = "2017-01-31 20:33:09 +0000";
layers = (
{
layerId = UUID0;
paths = (
{
closed = 1;
nodes = (
"824 0 LINE",
"824 69 LINE",
"672 69 LINE",
"672 514 LINE",
"594 514 LINE",
"567 470 OFFCURVE",
"463 439 OFFCURVE",
"398 439 CURVE SMOOTH",
"325 439 OFFCURVE",
"263 439 OFFCURVE",
"263 522 CURVE SMOOTH",
"263 645 LINE",
"415 645 LINE",
"415 714 LINE",
"33 714 LINE",
"33 645 LINE",
"185 645 LINE",
"185 521 LINE SMOOTH",
"185 402 OFFCURVE",
"257 378 OFFCURVE",
"344 371 CURVE",
"344 230 LINE",
"594 230 LINE",
"594 69 LINE",
"442 69 LINE",
"442 0 LINE"
);
},
{
closed = 1;
nodes = (
"422 372 LINE",
"493 379 OFFCURVE",
"550 395 OFFCURVE",
"590 426 CURVE",
"594 426 LINE",
"594 299 LINE",
"422 299 LINE"
);
}
);
width = 857;
}
);
unicode = A503;
},
{
glyphname = uA504;
lastChange = "2017-01-31 20:33:09 +0000";
layers = (
{
layerId = UUID0;
paths = (
{
closed = 1;
nodes = (
"824 0 LINE",
"824 69 LINE",
"672 69 LINE",
"672 120 LINE",
"824 120 LINE",
"824 189 LINE",
"672 189 LINE",
"672 514 LINE",
"594 514 LINE",
"567 470 OFFCURVE",
"463 439 OFFCURVE",
"398 439 CURVE SMOOTH",
"325 439 OFFCURVE",
"263 439 OFFCURVE",
"263 525 CURVE",
"415 525 LINE",
"415 594 LINE",
"263 594 LINE",
"263 645 LINE",
"415 645 LINE",
"415 714 LINE",
"33 714 LINE",
"33 645 LINE",
"185 645 LINE",
"185 594 LINE",
"33 594 LINE",
"33 525 LINE",
"185 525 LINE",
"185 403 OFFCURVE",
"257 378 OFFCURVE",
"344 371 CURVE",
"344 230 LINE",
"594 230 LINE",
"594 189 LINE",
"442 189 LINE",
"442 120 LINE",
"594 120 LINE",
"594 69 LINE",
"442 69 LINE",
"442 0 LINE"
);
},
{
closed = 1;
nodes = (
"422 372 LINE",
"493 379 OFFCURVE",
"550 395 OFFCURVE",
"590 426 CURVE",
"594 426 LINE",
"594 299 LINE",
"422 299 LINE"
);
}
);
width = 857;
}
);
unicode = A504;
},
{
glyphname = uA505;
lastChange = "2017-01-31 20:33:09 +0000";
layers = (
{
layerId = UUID0;
paths = (
{
closed = 1;
nodes = (
"537 -10 OFFCURVE",
"619 61 OFFCURVE",
"619 166 CURVE SMOOTH",
"619 258 OFFCURVE",
"555 325 OFFCURVE",
"474 339 CURVE",
"474 509 LINE",
"496 509 LINE",
"513 424 OFFCURVE",
"586 369 OFFCURVE",
"671 369 CURVE SMOOTH",
"767 369 OFFCURVE",
"849 440 OFFCURVE",
"849 545 CURVE SMOOTH",
"849 650 OFFCURVE",
"767 721 OFFCURVE",
"671 721 CURVE SMOOTH",
"585 721 OFFCURVE",
"511 664 OFFCURVE",
"496 578 CURVE",
"386 578 LINE",
"371 664 OFFCURVE",
"296 721 OFFCURVE",
"211 721 CURVE SMOOTH",
"115 721 OFFCURVE",
"33 650 OFFCURVE",
"33 545 CURVE SMOOTH",
"33 440 OFFCURVE",
"115 369 OFFCURVE",
"211 369 CURVE SMOOTH",
"295 369 OFFCURVE",
"369 424 OFFCURVE",
"385 509 CURVE",
"405 509 LINE",
"405 338 LINE",
"325 323 OFFCURVE",
"263 257 OFFCURVE",
"263 166 CURVE SMOOTH",
"263 61 OFFCURVE",
"345 -10 OFFCURVE",
"441 -10 CURVE SMOOTH"
);
},
{
closed = 1;
nodes = (
"388 56 OFFCURVE",
"340 100 OFFCURVE",
"340 166 CURVE SMOOTH",
"340 232 OFFCURVE",
"388 276 OFFCURVE",
"441 276 CURVE SMOOTH",
"493 276 OFFCURVE",
"542 232 OFFCURVE",
"542 166 CURVE SMOOTH",
"542 100 OFFCURVE",
"493 56 OFFCURVE",
"441 56 CURVE SMOOTH"
);
},
{
closed = 1;
nodes = (
"158 435 OFFCURVE",
"110 479 OFFCURVE",
"110 545 CURVE SMOOTH",
"110 611 OFFCURVE",
"158 655 OFFCURVE",
"211 655 CURVE SMOOTH",
"263 655 OFFCURVE",
"312 611 OFFCURVE",
"312 545 CURVE SMOOTH",
"312 479 OFFCURVE",
"263 435 OFFCURVE",
"211 435 CURVE SMOOTH"
);
},
{
closed = 1;
nodes = (
"618 435 OFFCURVE",
"570 479 OFFCURVE",
"570 545 CURVE SMOOTH",
"570 611 OFFCURVE",
"618 655 OFFCURVE",
"671 655 CURVE SMOOTH",
"723 655 OFFCURVE",
"772 611 OFFCURVE",
"772 545 CURVE SMOOTH",
"772 479 OFFCURVE",
"723 435 OFFCURVE",
"671 435 CURVE SMOOTH"
);
}
);
width = 882;
}
);
unicode = A505;
},
{
glyphname = uA506;
lastChange = "2017-01-31 20:33:09 +0000";
layers = (
{
layerId = UUID0;
paths = (
{
closed = 1;
nodes = (
"296 -10 OFFCURVE",
"371 46 OFFCURVE",
"386 133 CURVE",
"696 133 LINE",
"711 46 OFFCURVE",
"785 -10 OFFCURVE",
"871 -10 CURVE SMOOTH",
"967 -10 OFFCURVE",
"1049 61 OFFCURVE",
"1049 166 CURVE SMOOTH",
"1049 271 OFFCURVE",
"967 342 OFFCURVE",
"871 342 CURVE SMOOTH",
"786 342 OFFCURVE",
"713 287 OFFCURVE",
"696 202 CURVE",
"574 202 LINE",
"574 372 LINE",
"655 386 OFFCURVE",
"719 452 OFFCURVE",
"719 545 CURVE SMOOTH",
"719 650 OFFCURVE",
"637 721 OFFCURVE",
"541 721 CURVE SMOOTH",
"445 721 OFFCURVE",
"363 650 OFFCURVE",
"363 545 CURVE SMOOTH",
"363 453 OFFCURVE",
"425 388 OFFCURVE",
"505 372 CURVE",
"505 202 LINE",
"385 202 LINE",
"369 287 OFFCURVE",
"295 342 OFFCURVE",
"211 342 CURVE SMOOTH",
"115 342 OFFCURVE",
"33 271 OFFCURVE",
"33 166 CURVE SMOOTH",
"33 61 OFFCURVE",
"115 -10 OFFCURVE",
"211 -10 CURVE SMOOTH"
);
},
{
closed = 1;
nodes = (
"158 56 OFFCURVE",
"110 100 OFFCURVE",
"110 166 CURVE SMOOTH",
"110 232 OFFCURVE",
"158 276 OFFCURVE",
"211 276 CURVE SMOOTH",
"263 276 OFFCURVE",
"312 232 OFFCURVE",
"312 166 CURVE SMOOTH",
"312 100 OFFCURVE",
"263 56 OFFCURVE",
"211 56 CURVE SMOOTH"
);
},
{
closed = 1;
nodes = (
"454 263 OFFCURVE",
"474 281 OFFCURVE",
"474 313 CURVE SMOOTH",
"474 344 OFFCURVE",
"453 363 OFFCURVE",
"424 363 CURVE SMOOTH",
"395 363 OFFCURVE",
"374 344 OFFCURVE",
"374 313 CURVE SMOOTH",
"374 281 OFFCURVE",
"392 263 OFFCURVE",
"424 263 CURVE SMOOTH"
);
},
{
closed = 1;
nodes = (
"687 263 OFFCURVE",
"707 281 OFFCURVE",
"707 313 CURVE SMOOTH",
"707 344 OFFCURVE",
"686 363 OFFCURVE",
"657 363 CURVE SMOOTH",
"628 363 OFFCURVE",
"607 344 OFFCURVE",
"607 313 CURVE SMOOTH",
"607 281 OFFCURVE",
"625 263 OFFCURVE",
"657 263 CURVE SMOOTH"
);
},
{
closed = 1;
nodes = (
"818 56 OFFCURVE",
"770 100 OFFCURVE",
"770 166 CURVE SMOOTH",
"770 232 OFFCURVE",
"818 276 OFFCURVE",
"871 276 CURVE SMOOTH",
"923 276 OFFCURVE",
"972 232 OFFCURVE",
"972 166 CURVE SMOOTH",
"972 100 OFFCURVE",
"923 56 OFFCURVE",
"871 56 CURVE SMOOTH"
);
},
{
closed = 1;
nodes = (
"488 435 OFFCURVE",
"440 479 OFFCURVE",
"440 545 CURVE SMOOTH",
"440 611 OFFCURVE",
"488 655 OFFCURVE",
"541 655 CURVE SMOOTH",
"593 655 OFFCURVE",
"642 611 OFFCURVE",
"642 545 CURVE SMOOTH",
"642 479 OFFCURVE",
"593 435 OFFCURVE",
"541 435 CURVE SMOOTH"
);
}
);
width = 1082;
}
);
unicode = A506;
},
{
glyphname = uA507;
lastChange = "2017-01-31 20:33:09 +0000";
layers = (
{
layerId = UUID0;
paths = (
{
closed = 1;
nodes = (
"713 0 LINE",
"713 69 LINE",
"561 69 LINE",
"561 714 LINE",
"483 714 LINE",
"469 632 OFFCURVE",
"342 449 OFFCURVE",
"227 449 CURVE SMOOTH",
"154 449 OFFCURVE",
"121 504 OFFCURVE",
"121 562 CURVE SMOOTH",
"121 608 OFFCURVE",
"138 641 OFFCURVE",
"180 680 CURVE",
"134 724 LINE",
"80 684 OFFCURVE",
"44 627 OFFCURVE",
"44 561 CURVE SMOOTH",
"44 435 OFFCURVE",
"141 381 OFFCURVE",
"218 381 CURVE SMOOTH",
"333 381 OFFCURVE",
"415 459 OFFCURVE",
"479 576 CURVE",
"483 576 LINE",
"483 69 LINE",
"331 69 LINE",
"331 0 LINE"
);
}
);
width = 735;
}
);
unicode = A507;
},
{
glyphname = uA508;
lastChange = "2017-01-31 20:33:09 +0000";
layers = (
{
layerId = UUID0;
paths = (
{
closed = 1;
nodes = (
"713 0 LINE",
"713 69 LINE",
"561 69 LINE",
"561 714 LINE",
"483 714 LINE",
"469 632 OFFCURVE",
"342 449 OFFCURVE",
"227 449 CURVE SMOOTH",
"154 449 OFFCURVE",
"121 504 OFFCURVE",
"121 562 CURVE SMOOTH",
"121 608 OFFCURVE",
"138 641 OFFCURVE",
"180 680 CURVE",
"134 724 LINE",
"80 684 OFFCURVE",
"44 627 OFFCURVE",
"44 561 CURVE SMOOTH",
"44 435 OFFCURVE",
"141 381 OFFCURVE",
"218 381 CURVE SMOOTH",
"333 381 OFFCURVE",
"415 459 OFFCURVE",
"479 576 CURVE",
"483 576 LINE",
"483 69 LINE",
"331 69 LINE",
"331 0 LINE"
);
},
{
closed = 1;
nodes = (
"421 225 OFFCURVE",
"441 243 OFFCURVE",
"441 275 CURVE SMOOTH",
"441 306 OFFCURVE",
"420 325 OFFCURVE",
"391 325 CURVE SMOOTH",
"362 325 OFFCURVE",
"341 306 OFFCURVE",
"341 275 CURVE SMOOTH",
"341 243 OFFCURVE",
"359 225 OFFCURVE",
"391 225 CURVE SMOOTH"
);
},
{
closed = 1;
nodes = (
"683 225 OFFCURVE",
"703 243 OFFCURVE",
"703 275 CURVE SMOOTH",
"703 306 OFFCURVE",
"682 325 OFFCURVE",
"653 325 CURVE SMOOTH",
"624 325 OFFCURVE",
"603 306 OFFCURVE",
"603 275 CURVE SMOOTH",
"603 243 OFFCURVE",
"621 225 OFFCURVE",
"653 225 CURVE SMOOTH"
);
}
);
width = 735;
}
);
unicode = A508;
},
{
glyphname = uA509;
lastChange = "2017-01-31 20:33:09 +0000";
layers = (
{
layerId = UUID0;
paths = (
{
closed = 1;
nodes = (
"373 0 LINE",
"373 645 LINE",
"635 645 LINE",
"635 714 LINE",
"33 714 LINE",
"33 645 LINE",
"295 645 LINE",
"295 0 LINE"
);
},
{
closed = 1;
nodes = (
"200 325 OFFCURVE",
"220 343 OFFCURVE",
"220 375 CURVE SMOOTH",
"220 406 OFFCURVE",
"199 425 OFFCURVE",
"170 425 CURVE SMOOTH",
"141 425 OFFCURVE",
"120 406 OFFCURVE",
"120 375 CURVE SMOOTH",
"120 343 OFFCURVE",
"138 325 OFFCURVE",
"170 325 CURVE SMOOTH"
);
},
{
closed = 1;
nodes = (
"526 325 OFFCURVE",
"546 343 OFFCURVE",
"546 375 CURVE SMOOTH",
"546 406 OFFCURVE",
"525 425 OFFCURVE",
"496 425 CURVE SMOOTH",
"467 425 OFFCURVE",
"446 406 OFFCURVE",
"446 375 CURVE SMOOTH",
"446 343 OFFCURVE",
"464 325 OFFCURVE",
"496 325 CURVE SMOOTH"
);
}
);
width = 668;
}
);
unicode = A509;
},
{
glyphname = uA50A;
lastChange = "2017-01-31 20:33:09 +0000";
layers = (
{
layerId = UUID0;
paths = (
{
closed = 1;
nodes = (
"373 0 LINE",
"373 177 LINE",
"565 177 LINE",
"565 246 LINE",
"373 246 LINE",
"373 645 LINE",
"635 645 LINE",
"635 714 LINE",
"33 714 LINE",
"33 645 LINE",
"295 645 LINE",
"295 246 LINE",
"103 246 LINE",
"103 177 LINE",
"295 177 LINE",
"295 0 LINE"
);
},
{
closed = 1;
nodes = (
"200 325 OFFCURVE",
"220 343 OFFCURVE",
"220 375 CURVE SMOOTH",
"220 406 OFFCURVE",
"199 425 OFFCURVE",
"170 425 CURVE SMOOTH",
"141 425 OFFCURVE",
"120 406 OFFCURVE",
"120 375 CURVE SMOOTH",
"120 343 OFFCURVE",
"138 325 OFFCURVE",
"170 325 CURVE SMOOTH"
);
},
{
closed = 1;
nodes = (
"526 325 OFFCURVE",
"546 343 OFFCURVE",
"546 375 CURVE SMOOTH",
"546 406 OFFCURVE",
"525 425 OFFCURVE",
"496 425 CURVE SMOOTH",
"467 425 OFFCURVE",
"446 406 OFFCURVE",
"446 375 CURVE SMOOTH",
"446 343 OFFCURVE",
"464 325 OFFCURVE",
"496 325 CURVE SMOOTH"
);
}
);
width = 668;
}
);
unicode = A50A;
},
{
glyphname = uA50B;
lastChange = "2017-01-31 20:33:09 +0000";
layers = (
{
layerId = UUID0;
paths = (
{
closed = 1;
nodes = (
"373 0 LINE",
"373 645 LINE",
"635 645 LINE",
"635 714 LINE",
"33 714 LINE",
"33 645 LINE",
"295 645 LINE",
"295 0 LINE"
);
}
);
width = 668;
}
);
unicode = A50B;
},
{
glyphname = uA50C;
lastChange = "2017-01-31 20:33:09 +0000";
layers = (
{
layerId = UUID0;
paths = (
{
closed = 1;
nodes = (
"462 0 LINE",
"462 69 LINE",
"310 69 LINE",
"310 289 LINE",
"410 305 OFFCURVE",
"489 383 OFFCURVE",
"489 502 CURVE SMOOTH",
"489 633 OFFCURVE",
"385 722 OFFCURVE",
"272 722 CURVE SMOOTH",
"158 722 OFFCURVE",
"55 633 OFFCURVE",
"55 502 CURVE SMOOTH",
"55 384 OFFCURVE",
"129 305 OFFCURVE",
"232 289 CURVE",
"232 69 LINE",
"80 69 LINE",
"80 0 LINE"
);
},
{
closed = 1;
nodes = (
"195 354 OFFCURVE",
"133 411 OFFCURVE",
"133 502 CURVE SMOOTH",
"133 593 OFFCURVE",
"201 654 OFFCURVE",
"272 654 CURVE SMOOTH",
"342 654 OFFCURVE",
"411 593 OFFCURVE",
"411 502 CURVE SMOOTH",
"411 411 OFFCURVE",
"345 354 OFFCURVE",
"272 354 CURVE SMOOTH"
);
}
);
width = 544;
}
);
unicode = A50C;
},
{
glyphname = uA50D;
lastChange = "2017-01-31 20:33:09 +0000";
layers = (
{
layerId = UUID0;
paths = (
{
closed = 1;
nodes = (
"462 0 LINE",
"462 69 LINE",
"310 69 LINE",
"310 120 LINE",
"462 120 LINE",
"462 189 LINE",
"310 189 LINE",
"310 289 LINE",
"410 305 OFFCURVE",
"489 383 OFFCURVE",
"489 502 CURVE SMOOTH",
"489 633 OFFCURVE",
"385 722 OFFCURVE",
"272 722 CURVE SMOOTH",
"158 722 OFFCURVE",
"55 633 OFFCURVE",
"55 502 CURVE SMOOTH",
"55 384 OFFCURVE",
"129 305 OFFCURVE",
"232 289 CURVE",
"232 189 LINE",
"80 189 LINE",
"80 120 LINE",
"232 120 LINE",
"232 69 LINE",
"80 69 LINE",
"80 0 LINE"
);
},
{
closed = 1;
nodes = (
"195 354 OFFCURVE",
"133 411 OFFCURVE",
"133 502 CURVE SMOOTH",
"133 593 OFFCURVE",
"201 654 OFFCURVE",
"272 654 CURVE SMOOTH",
"342 654 OFFCURVE",
"411 593 OFFCURVE",
"411 502 CURVE SMOOTH",
"411 411 OFFCURVE",
"345 354 OFFCURVE",
"272 354 CURVE SMOOTH"
);
}
);
width = 544;
}
);
unicode = A50D;
},
{
glyphname = uA50E;
lastChange = "2017-01-31 20:33:09 +0000";
layers = (
{
layerId = UUID0;
paths = (
{
closed = 1;
nodes = (
"847 0 LINE",
"847 69 LINE",
"652 69 LINE",
"652 295 LINE",
"847 295 LINE",
"847 363 LINE",
"652 363 LINE",
"652 714 LINE",
"574 714 LINE",
"574 645 LINE SMOOTH",
"574 540 OFFCURVE",
"537 491 OFFCURVE",
"486 491 CURVE SMOOTH",
"433 491 OFFCURVE",
"392 527 OFFCURVE",
"392 621 CURVE SMOOTH",
"392 714 LINE",
"314 714 LINE",
"314 623 LINE SMOOTH",
"314 527 OFFCURVE",
"272 491 OFFCURVE",
"227 491 CURVE SMOOTH",
"169 491 OFFCURVE",
"133 540 OFFCURVE",
"133 643 CURVE SMOOTH",
"133 714 LINE",
"55 714 LINE",
"55 643 LINE SMOOTH",
"55 477 OFFCURVE",
"118 425 OFFCURVE",
"212 425 CURVE SMOOTH",
"264 425 OFFCURVE",
"319 447 OFFCURVE",
"349 515 CURVE",
"353 515 LINE",
"374 445 OFFCURVE",
"433 425 OFFCURVE",
"473 425 CURVE SMOOTH",
"505 425 OFFCURVE",
"549 443 OFFCURVE",
"570 490 CURVE",
"574 490 LINE",
"574 0 LINE"
);
}
);
width = 913;
}
);
unicode = A50E;
},
{
glyphname = uA50F;
lastChange = "2017-01-31 20:33:09 +0000";
layers = (
{
layerId = UUID0;
paths = (
{
closed = 1;
nodes = (
"847 0 LINE",
"847 69 LINE",
"652 69 LINE",
"652 295 LINE",
"847 295 LINE",
"847 363 LINE",
"652 363 LINE",
"652 583 LINE",
"847 583 LINE",
"847 651 LINE",
"652 651 LINE",
"652 714 LINE",
"574 714 LINE",
"574 645 LINE SMOOTH",
"574 540 OFFCURVE",
"537 491 OFFCURVE",
"486 491 CURVE SMOOTH",
"433 491 OFFCURVE",
"392 527 OFFCURVE",
"392 621 CURVE SMOOTH",
"392 714 LINE",
"314 714 LINE",
"314 623 LINE SMOOTH",
"314 527 OFFCURVE",
"272 491 OFFCURVE",
"227 491 CURVE SMOOTH",
"169 491 OFFCURVE",
"133 540 OFFCURVE",
"133 643 CURVE SMOOTH",
"133 714 LINE",
"55 714 LINE",
"55 643 LINE SMOOTH",
"55 477 OFFCURVE",
"118 425 OFFCURVE",
"212 425 CURVE SMOOTH",
"264 425 OFFCURVE",
"319 447 OFFCURVE",
"349 515 CURVE",
"353 515 LINE",
"374 445 OFFCURVE",
"433 425 OFFCURVE",
"473 425 CURVE SMOOTH",
"505 425 OFFCURVE",
"549 443 OFFCURVE",
"570 490 CURVE",
"574 490 LINE",
"574 0 LINE"
);
}
);
width = 924;
}
);
unicode = A50F;
},
{
glyphname = uA510;
lastChange = "2017-01-31 20:33:09 +0000";
layers = (
{
layerId = UUID0;
paths = (
{
closed = 1;
nodes = (
"598 -10 OFFCURVE",
"652 81 OFFCURVE",
"652 253 CURVE SMOOTH",
"652 306 LINE",
"691 312 OFFCURVE",
"745 334 OFFCURVE",
"761 384 CURVE",
"765 384 LINE",
"778 326 OFFCURVE",
"828 304 OFFCURVE",
"866 304 CURVE SMOOTH",
"904 304 OFFCURVE",
"961 324 OFFCURVE",
"972 384 CURVE",
"976 384 LINE",
"990 325 OFFCURVE",
"1034 304 OFFCURVE",
"1071 304 CURVE SMOOTH",
"1122 304 OFFCURVE",
"1158 344 OFFCURVE",
"1174 372 CURVE",
"1124 403 LINE",
"1108 378 OFFCURVE",
"1096 370 OFFCURVE",
"1078 370 CURVE SMOOTH",
"1049 370 OFFCURVE",
"1016 398 OFFCURVE",
"1016 473 CURVE",
"938 473 LINE",
"938 400 OFFCURVE",
"899 370 OFFCURVE",
"866 370 CURVE SMOOTH",
"833 370 OFFCURVE",
"804 402 OFFCURVE",
"804 473 CURVE",
"726 473 LINE",
"726 412 OFFCURVE",
"690 382 OFFCURVE",
"652 375 CURVE",
"652 714 LINE",
"574 714 LINE",
"574 645 LINE SMOOTH",
"574 540 OFFCURVE",
"537 491 OFFCURVE",
"486 491 CURVE SMOOTH",
"433 491 OFFCURVE",
"392 527 OFFCURVE",
"392 621 CURVE SMOOTH",
"392 714 LINE",
"314 714 LINE",
"314 623 LINE SMOOTH",
"314 527 OFFCURVE",
"272 491 OFFCURVE",
"227 491 CURVE SMOOTH",
"169 491 OFFCURVE",
"133 540 OFFCURVE",
"133 643 CURVE SMOOTH",
"133 714 LINE",
"55 714 LINE",
"55 643 LINE SMOOTH",
"55 477 OFFCURVE",
"118 425 OFFCURVE",
"212 425 CURVE SMOOTH",
"264 425 OFFCURVE",
"319 447 OFFCURVE",
"349 515 CURVE",
"353 515 LINE",
"374 445 OFFCURVE",
"433 425 OFFCURVE",
"473 425 CURVE SMOOTH",
"505 425 OFFCURVE",
"549 443 OFFCURVE",
"570 490 CURVE",
"574 490 LINE",
"574 358 LINE",
"427 331 OFFCURVE",
"385 230 OFFCURVE",
"385 131 CURVE SMOOTH",
"385 31 OFFCURVE",
"452 -10 OFFCURVE",
"503 -10 CURVE SMOOTH"
);
},
{
closed = 1;
nodes = (
"476 58 OFFCURVE",
"453 82 OFFCURVE",
"453 133 CURVE SMOOTH",
"453 189 OFFCURVE",
"459 263 OFFCURVE",
"574 289 CURVE",
"574 253 LINE SMOOTH",
"574 106 OFFCURVE",
"548 58 OFFCURVE",
"503 58 CURVE SMOOTH"
);
}
);
width = 1196;
}
);
unicode = A510;
},
{
glyphname = uA511;
lastChange = "2017-01-31 20:33:09 +0000";
layers = (
{
layerId = UUID0;
paths = (
{
closed = 1;
nodes = (
"598 -10 OFFCURVE",
"652 81 OFFCURVE",
"652 253 CURVE SMOOTH",
"652 306 LINE",
"691 312 OFFCURVE",
"745 334 OFFCURVE",
"761 384 CURVE",
"765 384 LINE",
"778 326 OFFCURVE",
"828 304 OFFCURVE",
"866 304 CURVE SMOOTH",
"904 304 OFFCURVE",
"961 324 OFFCURVE",
"972 384 CURVE",
"976 384 LINE",
"990 325 OFFCURVE",
"1034 304 OFFCURVE",
"1071 304 CURVE SMOOTH",
"1122 304 OFFCURVE",
"1158 344 OFFCURVE",
"1174 372 CURVE",
"1124 403 LINE",
"1108 378 OFFCURVE",
"1096 370 OFFCURVE",
"1078 370 CURVE SMOOTH",
"1049 370 OFFCURVE",
"1016 398 OFFCURVE",
"1016 473 CURVE",
"938 473 LINE",
"938 400 OFFCURVE",
"899 370 OFFCURVE",
"866 370 CURVE SMOOTH",
"833 370 OFFCURVE",
"804 402 OFFCURVE",
"804 473 CURVE",
"726 473 LINE",
"726 412 OFFCURVE",
"690 382 OFFCURVE",
"652 375 CURVE",
"652 714 LINE",
"574 714 LINE",
"574 645 LINE SMOOTH",
"574 540 OFFCURVE",
"537 491 OFFCURVE",
"486 491 CURVE SMOOTH",
"433 491 OFFCURVE",
"392 527 OFFCURVE",
"392 621 CURVE SMOOTH",
"392 714 LINE",
"314 714 LINE",
"314 623 LINE SMOOTH",
"314 527 OFFCURVE",
"272 491 OFFCURVE",
"227 491 CURVE SMOOTH",
"169 491 OFFCURVE",
"133 540 OFFCURVE",
"133 643 CURVE SMOOTH",
"133 714 LINE",
"55 714 LINE",
"55 643 LINE SMOOTH",
"55 477 OFFCURVE",
"118 425 OFFCURVE",
"212 425 CURVE SMOOTH",
"264 425 OFFCURVE",
"319 447 OFFCURVE",
"349 515 CURVE",
"353 515 LINE",
"374 445 OFFCURVE",
"433 425 OFFCURVE",
"473 425 CURVE SMOOTH",
"505 425 OFFCURVE",
"549 443 OFFCURVE",
"570 490 CURVE",
"574 490 LINE",
"574 358 LINE",
"427 331 OFFCURVE",
"385 230 OFFCURVE",
"385 131 CURVE SMOOTH",
"385 31 OFFCURVE",
"452 -10 OFFCURVE",
"503 -10 CURVE SMOOTH"
);
},
{
closed = 1;
nodes = (
"476 58 OFFCURVE",
"453 82 OFFCURVE",
"453 133 CURVE SMOOTH",
"453 189 OFFCURVE",
"459 263 OFFCURVE",
"574 289 CURVE",
"574 253 LINE SMOOTH",
"574 106 OFFCURVE",
"548 58 OFFCURVE",
"503 58 CURVE SMOOTH"
);
},
{
closed = 1;
nodes = (
"896 150 OFFCURVE",
"916 168 OFFCURVE",
"916 200 CURVE SMOOTH",
"916 231 OFFCURVE",
"895 250 OFFCURVE",
"866 250 CURVE SMOOTH",
"837 250 OFFCURVE",
"816 231 OFFCURVE",
"816 200 CURVE SMOOTH",
"816 168 OFFCURVE",
"834 150 OFFCURVE",
"866 150 CURVE SMOOTH"
);
},
{
closed = 1;
nodes = (
"896 510 OFFCURVE",
"916 528 OFFCURVE",
"916 560 CURVE SMOOTH",
"916 591 OFFCURVE",
"895 610 OFFCURVE",
"866 610 CURVE SMOOTH",
"837 610 OFFCURVE",
"816 591 OFFCURVE",
"816 560 CURVE SMOOTH",
"816 528 OFFCURVE",
"834 510 OFFCURVE",
"866 510 CURVE SMOOTH"
);
}
);
width = 1196;
}
);
unicode = A511;
},
{
glyphname = uA512;
lastChange = "2017-01-31 20:33:09 +0000";
layers = (
{
layerId = UUID0;
paths = (
{
closed = 1;
nodes = (
"652 0 LINE",
"652 295 LINE",
"729 295 LINE",
"729 211 LINE",
"807 211 LINE",
"807 453 LINE",
"729 453 LINE",
"729 363 LINE",
"652 363 LINE",
"652 714 LINE",
"574 714 LINE",
"574 645 LINE SMOOTH",
"574 540 OFFCURVE",
"537 491 OFFCURVE",
"486 491 CURVE SMOOTH",
"433 491 OFFCURVE",
"392 527 OFFCURVE",
"392 621 CURVE SMOOTH",
"392 714 LINE",
"314 714 LINE",
"314 623 LINE SMOOTH",
"314 527 OFFCURVE",
"272 491 OFFCURVE",
"227 491 CURVE SMOOTH",
"169 491 OFFCURVE",
"133 540 OFFCURVE",
"133 643 CURVE SMOOTH",
"133 714 LINE",
"55 714 LINE",
"55 643 LINE SMOOTH",
"55 477 OFFCURVE",
"118 425 OFFCURVE",
"212 425 CURVE SMOOTH",
"264 425 OFFCURVE",
"319 447 OFFCURVE",
"349 515 CURVE",
"353 515 LINE",
"374 445 OFFCURVE",
"433 425 OFFCURVE",
"473 425 CURVE SMOOTH",
"505 425 OFFCURVE",
"549 443 OFFCURVE",
"570 490 CURVE",
"574 490 LINE",
"574 0 LINE"
);
}
);
width = 851;
}
);
unicode = A512;
},
{
glyphname = uA513;
lastChange = "2017-01-31 20:33:09 +0000";
layers = (
{
layerId = UUID0;
paths = (
{
closed = 1;
nodes = (
"652 0 LINE",
"652 295 LINE",
"729 295 LINE",
"729 211 LINE",
"807 211 LINE",
"807 453 LINE",
"729 453 LINE",
"729 363 LINE",
"652 363 LINE",
"652 714 LINE",
"574 714 LINE",
"574 645 LINE SMOOTH",
"574 540 OFFCURVE",
"537 491 OFFCURVE",
"486 491 CURVE SMOOTH",
"433 491 OFFCURVE",
"392 527 OFFCURVE",
"392 621 CURVE SMOOTH",
"392 714 LINE",
"314 714 LINE",
"314 623 LINE SMOOTH",
"314 527 OFFCURVE",
"272 491 OFFCURVE",
"227 491 CURVE SMOOTH",
"169 491 OFFCURVE",
"133 540 OFFCURVE",
"133 643 CURVE SMOOTH",
"133 714 LINE",
"55 714 LINE",
"55 643 LINE SMOOTH",
"55 477 OFFCURVE",
"118 425 OFFCURVE",
"212 425 CURVE SMOOTH",
"264 425 OFFCURVE",
"319 447 OFFCURVE",
"349 515 CURVE",
"353 515 LINE",
"374 445 OFFCURVE",
"433 425 OFFCURVE",
"473 425 CURVE SMOOTH",
"505 425 OFFCURVE",
"549 443 OFFCURVE",
"570 490 CURVE",
"574 490 LINE",
"574 0 LINE"
);
},
{
closed = 1;
nodes = (
"295 -123 OFFCURVE",
"319 -114 OFFCURVE",
"350 -114 CURVE SMOOTH",
"394 -114 OFFCURVE",
"466 -151 OFFCURVE",
"522 -151 CURVE SMOOTH",
"585 -151 OFFCURVE",
"622 -123 OFFCURVE",
"647 -60 CURVE",
"601 -33 LINE",
"581 -72 OFFCURVE",
"557 -81 OFFCURVE",
"526 -81 CURVE SMOOTH",
"484 -81 OFFCURVE",
"413 -44 OFFCURVE",
"354 -44 CURVE SMOOTH",
"291 -44 OFFCURVE",
"254 -72 OFFCURVE",
"229 -135 CURVE",
"275 -162 LINE"
);
}
);
width = 851;
}
);
unicode = A513;
},
{
glyphname = uA514;
lastChange = "2017-01-31 20:33:09 +0000";
layers = (
{
layerId = UUID0;
paths = (
{
closed = 1;
nodes = (
"598 0 LINE",
"598 714 LINE",
"520 714 LINE",
"333 527 LINE",
"383 478 LINE",
"418 513 LINE SMOOTH",
"485 580 OFFCURVE",
"508 607 OFFCURVE",
"525 640 CURVE",
"530 638 LINE",
"524 608 OFFCURVE",
"520 585 OFFCURVE",
"520 392 CURVE SMOOTH",
"520 0 LINE"
);
},
{
closed = 1;
nodes = (
"298 0 LINE",
"298 714 LINE",
"220 714 LINE",
"33 527 LINE",
"83 478 LINE",
"118 513 LINE SMOOTH",
"185 580 OFFCURVE",
"208 607 OFFCURVE",
"225 640 CURVE",
"230 638 LINE",
"224 608 OFFCURVE",
"220 585 OFFCURVE",
"220 392 CURVE SMOOTH",
"220 0 LINE"
);
}
);
width = 709;
}
);
unicode = A514;
},
{
glyphname = uA515;
lastChange = "2017-01-31 20:33:09 +0000";
layers = (
{
layerId = UUID0;
paths = (
{
closed = 1;
nodes = (
"336 -10 OFFCURVE",
"396 66 OFFCURVE",
"396 193 CURVE SMOOTH",
"396 331 LINE",
"529 331 LINE",
"529 0 LINE",
"607 0 LINE",
"607 400 LINE",
"396 400 LINE",
"396 714 LINE",
"56 714 LINE",
"56 645 LINE",
"318 645 LINE",
"318 400 LINE",
"143 400 OFFCURVE",
"33 337 OFFCURVE",
"33 183 CURVE SMOOTH",
"33 51 OFFCURVE",
"101 -10 OFFCURVE",
"219 -10 CURVE SMOOTH"
);
},
{
closed = 1;
nodes = (
"153 58 OFFCURVE",
"111 112 OFFCURVE",
"111 183 CURVE SMOOTH",
"111 304 OFFCURVE",
"169 331 OFFCURVE",
"318 331 CURVE",
"318 192 LINE SMOOTH",
"318 101 OFFCURVE",
"285 58 OFFCURVE",
"219 58 CURVE SMOOTH"
);
}
);
width = 695;
}
);
unicode = A515;
},
{
glyphname = uA516;
lastChange = "2017-01-31 20:33:09 +0000";
layers = (
{
layerId = UUID0;
paths = (
{
closed = 1;
nodes = (
"589 0 LINE",
"589 714 LINE",
"511 714 LINE",
"511 0 LINE"
);
},
{
closed = 1;
nodes = (
"189 0 LINE",
"189 714 LINE",
"111 714 LINE",
"111 0 LINE"
);
},
{
closed = 1;
nodes = (
"389 0 LINE",
"389 714 LINE",
"311 714 LINE",
"311 0 LINE"
);
}
);
width = 700;
}
);
unicode = A516;
},
{
glyphname = uA517;
lastChange = "2017-01-31 20:33:09 +0000";
layers = (
{
layerId = UUID0;
paths = (
{
closed = 1;
nodes = (
"590 130 LINE",
"590 714 LINE",
"512 714 LINE",
"512 130 LINE"
);
},
{
closed = 1;
nodes = (
"590 0 LINE",
"590 69 LINE",
"111 69 LINE",
"111 0 LINE"
);
},
{
closed = 1;
nodes = (
"190 130 LINE",
"190 714 LINE",
"112 714 LINE",
"112 130 LINE"
);
},
{
closed = 1;
nodes = (
"389 130 LINE",
"389 714 LINE",
"311 714 LINE",
"311 130 LINE"
);
}
);
width = 701;
}
);
unicode = A517;
},
{
glyphname = uA518;
lastChange = "2017-01-31 20:33:09 +0000";
layers = (
{
layerId = UUID0;
paths = (
{
closed = 1;
nodes = (
"589 460 LINE",
"589 714 LINE",
"511 714 LINE",
"511 460 LINE"
);
},
{
closed = 1;
nodes = (
"189 0 LINE",
"189 254 LINE",
"111 254 LINE",
"111 0 LINE"
);
},
{
closed = 1;
nodes = (
"589 0 LINE",
"589 254 LINE",
"511 254 LINE",
"511 0 LINE"
);
},
{
closed = 1;
nodes = (
"389 230 LINE",
"389 484 LINE",
"311 484 LINE",
"311 230 LINE"
);
},
{
closed = 1;
nodes = (
"189 460 LINE",
"189 714 LINE",
"111 714 LINE",
"111 460 LINE"
);
}
);
width = 700;
}
);
unicode = A518;
},
{
glyphname = uA519;
lastChange = "2017-01-31 20:33:09 +0000";
layers = (
{
layerId = UUID0;
paths = (
{
closed = 1;
nodes = (
"189 460 LINE",
"189 576 LINE",
"511 576 LINE",
"511 460 LINE",
"589 460 LINE",
"589 714 LINE",
"511 714 LINE",
"511 645 LINE",
"189 645 LINE",
"189 714 LINE",
"111 714 LINE",
"111 460 LINE"
);
},
{
closed = 1;
nodes = (
"189 0 LINE",
"189 70 LINE",
"511 70 LINE",
"511 0 LINE",
"589 0 LINE",
"589 254 LINE",
"511 254 LINE",
"511 139 LINE",
"189 139 LINE",
"189 254 LINE",
"111 254 LINE",
"111 0 LINE"
);
},
{
closed = 1;
nodes = (
"389 230 LINE",
"389 484 LINE",
"311 484 LINE",
"311 230 LINE"
);
}
);
width = 700;
}
);
unicode = A519;
},
{
glyphname = uA51A;
lastChange = "2017-01-31 20:33:09 +0000";
layers = (
{
layerId = UUID0;
paths = (
{
closed = 1;
nodes = (
"311 135 OFFCURVE",
"345 148 OFFCURVE",
"375 169 CURVE",
"421 147 OFFCURVE",
"474 135 OFFCURVE",
"533 135 CURVE SMOOTH",
"591 135 OFFCURVE",
"644 148 OFFCURVE",
"689 172 CURVE",
"723 148 OFFCURVE",
"761 135 OFFCURVE",
"801 135 CURVE SMOOTH",
"917 135 OFFCURVE",
"985 176 OFFCURVE",
"1043 326 CURVE",
"987 355 LINE",
"940 234 OFFCURVE",
"882 203 OFFCURVE",
"801 203 CURVE",
"783 203 OFFCURVE",
"761 207 OFFCURVE",
"746 214 CURVE",
"808 270 OFFCURVE",
"851 361 OFFCURVE",
"851 441 CURVE SMOOTH",
"851 573 OFFCURVE",
"798 639 OFFCURVE",
"707 639 CURVE SMOOTH",
"618 639 OFFCURVE",
"561 548 OFFCURVE",
"561 441 CURVE SMOOTH",
"561 352 OFFCURVE",
"596 278 OFFCURVE",
"642 221 CURVE",
"612 209 OFFCURVE",
"572 203 OFFCURVE",
"533 203 CURVE SMOOTH",
"494 203 OFFCURVE",
"455 210 OFFCURVE",
"425 222 CURVE",
"471 282 OFFCURVE",
"505 359 OFFCURVE",
"505 441 CURVE SMOOTH",
"505 573 OFFCURVE",
"444 639 OFFCURVE",
"359 639 CURVE SMOOTH",
"270 639 OFFCURVE",
"215 548 OFFCURVE",
"215 441 CURVE SMOOTH",
"215 345 OFFCURVE",
"257 263 OFFCURVE",
"320 209 CURVE",
"308 205 OFFCURVE",
"289 203 OFFCURVE",
"275 203 CURVE SMOOTH",
"194 203 OFFCURVE",
"128 234 OFFCURVE",
"84 355 CURVE",
"23 324 LINE",
"78 174 OFFCURVE",
"159 135 OFFCURVE",
"275 135 CURVE SMOOTH"
);
}
);
width = 1066;
}
);
unicode = A51A;
},
{
glyphname = uA51B;
lastChange = "2017-01-31 20:33:09 +0000";
layers = (
{
layerId = UUID0;
paths = (
{
closed = 1;
nodes = (
"311 135 OFFCURVE",
"345 148 OFFCURVE",
"375 169 CURVE",
"421 147 OFFCURVE",
"474 135 OFFCURVE",
"533 135 CURVE SMOOTH",
"591 135 OFFCURVE",
"644 148 OFFCURVE",
"689 172 CURVE",
"723 148 OFFCURVE",
"761 135 OFFCURVE",
"801 135 CURVE SMOOTH",
"917 135 OFFCURVE",
"985 176 OFFCURVE",
"1043 326 CURVE",
"987 355 LINE",
"940 234 OFFCURVE",
"882 203 OFFCURVE",
"801 203 CURVE",
"783 203 OFFCURVE",
"761 207 OFFCURVE",
"746 214 CURVE",
"808 270 OFFCURVE",
"851 361 OFFCURVE",
"851 441 CURVE SMOOTH",
"851 573 OFFCURVE",
"798 639 OFFCURVE",
"707 639 CURVE SMOOTH",
"618 639 OFFCURVE",
"561 548 OFFCURVE",
"561 441 CURVE SMOOTH",
"561 352 OFFCURVE",
"596 278 OFFCURVE",
"642 221 CURVE",
"612 209 OFFCURVE",
"572 203 OFFCURVE",
"533 203 CURVE SMOOTH",
"494 203 OFFCURVE",
"455 210 OFFCURVE",
"425 222 CURVE",
"471 282 OFFCURVE",
"505 359 OFFCURVE",
"505 441 CURVE SMOOTH",
"505 573 OFFCURVE",
"444 639 OFFCURVE",
"359 639 CURVE SMOOTH",
"270 639 OFFCURVE",
"215 548 OFFCURVE",
"215 441 CURVE SMOOTH",
"215 345 OFFCURVE",
"257 263 OFFCURVE",
"320 209 CURVE",
"308 205 OFFCURVE",
"289 203 OFFCURVE",
"275 203 CURVE SMOOTH",
"194 203 OFFCURVE",
"128 234 OFFCURVE",
"84 355 CURVE",
"23 324 LINE",
"78 174 OFFCURVE",
"159 135 OFFCURVE",
"275 135 CURVE SMOOTH"
);
},
{
closed = 1;
nodes = (
"322 288 OFFCURVE",
"293 362 OFFCURVE",
"293 441 CURVE SMOOTH",
"293 519 OFFCURVE",
"310 571 OFFCURVE",
"359 571 CURVE SMOOTH",
"407 571 OFFCURVE",
"427 512 OFFCURVE",
"427 441 CURVE SMOOTH",
"427 368 OFFCURVE",
"412 290 OFFCURVE",
"376 244 CURVE"
);
},
{
closed = 1;
nodes = (
"660 295 OFFCURVE",
"639 370 OFFCURVE",
"639 441 CURVE SMOOTH",
"639 512 OFFCURVE",
"657 571 OFFCURVE",
"707 571 CURVE SMOOTH",
"753 571 OFFCURVE",
"773 519 OFFCURVE",
"773 441 CURVE SMOOTH",
"773 361 OFFCURVE",
"746 291 OFFCURVE",
"697 248 CURVE"
);
}
);
width = 1066;
}
);
unicode = A51B;
},
{
glyphname = uA51C;
lastChange = "2017-01-31 20:33:09 +0000";
layers = (
{
layerId = UUID0;
paths = (
{
closed = 1;
nodes = (
"155 122 LINE",
"155 267 LINE",
"613 267 LINE",
"613 335 LINE",
"155 335 LINE",
"155 402 LINE",
"613 402 LINE",
"613 470 LINE",
"155 470 LINE",
"155 613 LINE",
"77 613 LINE",
"77 122 LINE"
);
},
{
closed = 1;
nodes = (
"553 112 OFFCURVE",
"573 130 OFFCURVE",
"573 162 CURVE SMOOTH",
"573 193 OFFCURVE",
"552 212 OFFCURVE",
"523 212 CURVE SMOOTH",
"494 212 OFFCURVE",
"473 193 OFFCURVE",
"473 162 CURVE SMOOTH",
"473 130 OFFCURVE",
"491 112 OFFCURVE",
"523 112 CURVE SMOOTH"
);
},
{
closed = 1;
nodes = (
"737 319 OFFCURVE",
"757 337 OFFCURVE",
"757 369 CURVE SMOOTH",
"757 400 OFFCURVE",
"736 419 OFFCURVE",
"707 419 CURVE SMOOTH",
"678 419 OFFCURVE",
"657 400 OFFCURVE",
"657 369 CURVE SMOOTH",
"657 337 OFFCURVE",
"675 319 OFFCURVE",
"707 319 CURVE SMOOTH"
);
},
{
closed = 1;
nodes = (
"553 525 OFFCURVE",
"573 543 OFFCURVE",
"573 575 CURVE SMOOTH",
"573 606 OFFCURVE",
"552 625 OFFCURVE",
"523 625 CURVE SMOOTH",
"494 625 OFFCURVE",
"473 606 OFFCURVE",
"473 575 CURVE SMOOTH",
"473 543 OFFCURVE",
"491 525 OFFCURVE",
"523 525 CURVE SMOOTH"
);
}
);
width = 779;
}
);
unicode = A51C;
},
{
glyphname = uA51D;
lastChange = "2017-01-31 20:33:09 +0000";
layers = (
{
layerId = UUID0;
paths = (
{
closed = 1;
nodes = (
"155 122 LINE",
"155 335 LINE",
"613 335 LINE",
"613 403 LINE",
"155 403 LINE",
"155 613 LINE",
"77 613 LINE",
"77 122 LINE"
);
},
{
closed = 1;
nodes = (
"553 180 OFFCURVE",
"573 198 OFFCURVE",
"573 230 CURVE SMOOTH",
"573 261 OFFCURVE",
"552 280 OFFCURVE",
"523 280 CURVE SMOOTH",
"494 280 OFFCURVE",
"473 261 OFFCURVE",
"473 230 CURVE SMOOTH",
"473 198 OFFCURVE",
"491 180 OFFCURVE",
"523 180 CURVE SMOOTH"
);
},
{
closed = 1;
nodes = (
"553 460 OFFCURVE",
"573 478 OFFCURVE",
"573 510 CURVE SMOOTH",
"573 541 OFFCURVE",
"552 560 OFFCURVE",
"523 560 CURVE SMOOTH",
"494 560 OFFCURVE",
"473 541 OFFCURVE",
"473 510 CURVE SMOOTH",
"473 478 OFFCURVE",
"491 460 OFFCURVE",
"523 460 CURVE SMOOTH"
);
},
{
closed = 1;
nodes = (
"737 319 OFFCURVE",
"757 337 OFFCURVE",
"757 369 CURVE SMOOTH",
"757 400 OFFCURVE",
"736 419 OFFCURVE",
"707 419 CURVE SMOOTH",
"678 419 OFFCURVE",
"657 400 OFFCURVE",
"657 369 CURVE SMOOTH",
"657 337 OFFCURVE",
"675 319 OFFCURVE",
"707 319 CURVE SMOOTH"
);
}
);
width = 779;
}
);
unicode = A51D;
},
{
glyphname = uA51E;
lastChange = "2017-01-31 20:33:09 +0000";
layers = (
{
layerId = UUID0;
paths = (
{
closed = 1;
nodes = (
"189 0 LINE",
"189 141 LINE",
"261 141 LINE",
"261 0 LINE",
"339 0 LINE",
"339 141 LINE",
"425 141 LINE SMOOTH",
"466 141 OFFCURVE",
"506 151 OFFCURVE",
"540 170 CURVE",
"582 151 OFFCURVE",
"633 141 OFFCURVE",
"693 141 CURVE SMOOTH",
"754 141 OFFCURVE",
"806 151 OFFCURVE",
"849 170 CURVE",
"883 151 OFFCURVE",
"923 141 OFFCURVE",
"965 141 CURVE SMOOTH",
"1051 141 LINE",
"1051 0 LINE",
"1129 0 LINE",
"1129 141 LINE",
"1201 141 LINE",
"1201 0 LINE",
"1279 0 LINE",
"1279 714 LINE",
"1201 714 LINE",
"1201 209 LINE",
"1129 209 LINE",
"1129 714 LINE",
"1051 714 LINE",
"1051 209 LINE",
"965 209 LINE SMOOTH",
"949 209 OFFCURVE",
"929 211 OFFCURVE",
"915 216 CURVE",
"973 269 OFFCURVE",
"1007 344 OFFCURVE",
"1007 427 CURVE SMOOTH",
"1007 559 OFFCURVE",
"936 620 OFFCURVE",
"862 620 CURVE SMOOTH",
"788 620 OFFCURVE",
"715 534 OFFCURVE",
"715 427 CURVE SMOOTH",
"715 340 OFFCURVE",
"748 268 OFFCURVE",
"793 218 CURVE",
"767 212 OFFCURVE",
"730 209 OFFCURVE",
"693 209 CURVE SMOOTH",
"657 209 OFFCURVE",
"622 212 OFFCURVE",
"596 218 CURVE",
"642 268 OFFCURVE",
"675 340 OFFCURVE",
"675 427 CURVE SMOOTH",
"675 534 OFFCURVE",
"627 620 OFFCURVE",
"529 620 CURVE SMOOTH",
"443 620 OFFCURVE",
"383 559 OFFCURVE",
"383 427 CURVE SMOOTH",
"383 344 OFFCURVE",
"416 268 OFFCURVE",
"474 215 CURVE",
"460 211 OFFCURVE",
"440 209 OFFCURVE",
"425 209 CURVE SMOOTH",
"339 209 LINE",
"339 714 LINE",
"261 714 LINE",
"261 209 LINE",
"189 209 LINE",
"189 714 LINE",
"111 714 LINE",
"111 0 LINE"
);
},
{
closed = 1;
nodes = (
"474 279 OFFCURVE",
"461 353 OFFCURVE",
"461 427 CURVE SMOOTH",
"461 498 OFFCURVE",
"480 552 OFFCURVE",
"529 552 CURVE SMOOTH",
"574 552 OFFCURVE",
"597 498 OFFCURVE",
"597 427 CURVE SMOOTH",
"597 353 OFFCURVE",
"570 279 OFFCURVE",
"528 240 CURVE"
);
},
{
closed = 1;
nodes = (
"819 280 OFFCURVE",
"793 354 OFFCURVE",
"793 427 CURVE SMOOTH",
"793 498 OFFCURVE",
"820 552 OFFCURVE",
"862 552 CURVE SMOOTH",
"903 552 OFFCURVE",
"929 498 OFFCURVE",
"929 427 CURVE SMOOTH",
"929 353 OFFCURVE",
"915 280 OFFCURVE",
"861 240 CURVE"
);
}
);
width = 1390;
}
);
unicode = A51E;
},
{
glyphname = uA51F;
lastChange = "2017-01-31 20:33:09 +0000";
layers = (
{
layerId = UUID0;
paths = (
{
closed = 1;
nodes = (
"189 0 LINE",
"189 475 LINE",
"219 498 OFFCURVE",
"272 525 OFFCURVE",
"358 525 CURVE SMOOTH",
"390 525 OFFCURVE",
"425 520 OFFCURVE",
"451 513 CURVE",
"397 463 OFFCURVE",
"363 392 OFFCURVE",
"363 307 CURVE SMOOTH",
"363 175 OFFCURVE",
"423 114 OFFCURVE",
"519 114 CURVE SMOOTH",
"615 114 OFFCURVE",
"675 200 OFFCURVE",
"675 307 CURVE SMOOTH",
"675 392 OFFCURVE",
"640 463 OFFCURVE",
"587 513 CURVE",
"613 520 OFFCURVE",
"647 525 OFFCURVE",
"680 525 CURVE SMOOTH",
"769 525 OFFCURVE",
"821 497 OFFCURVE",
"851 474 CURVE",
"851 0 LINE",
"929 0 LINE",
"929 714 LINE",
"851 714 LINE",
"851 547 LINE",
"815 569 OFFCURVE",
"759 593 OFFCURVE",
"680 593 CURVE SMOOTH",
"618 593 OFFCURVE",
"564 582 OFFCURVE",
"519 561 CURVE",
"473 582 OFFCURVE",
"419 593 OFFCURVE",
"358 593 CURVE SMOOTH",
"278 593 OFFCURVE",
"224 570 OFFCURVE",
"189 548 CURVE",
"189 714 LINE",
"111 714 LINE",
"111 0 LINE"
);
},
{
closed = 1;
nodes = (
"465 182 OFFCURVE",
"441 236 OFFCURVE",
"441 307 CURVE SMOOTH",
"441 376 OFFCURVE",
"467 447 OFFCURVE",
"519 487 CURVE",
"570 447 OFFCURVE",
"597 376 OFFCURVE",
"597 307 CURVE SMOOTH",
"597 236 OFFCURVE",
"573 182 OFFCURVE",
"519 182 CURVE SMOOTH"
);
}
);
width = 1040;
}
);
unicode = A51F;
},
{
glyphname = uA520;
lastChange = "2017-01-31 20:33:09 +0000";
layers = (
{
layerId = UUID0;
paths = (
{
closed = 1;
nodes = (
"284 0 LINE",
"284 339 LINE",
"506 339 LINE",
"506 0 LINE",
"584 0 LINE",
"584 339 LINE",
"746 339 LINE",
"746 408 LINE",
"584 408 LINE",
"584 714 LINE",
"506 714 LINE",
"506 408 LINE",
"284 408 LINE",
"284 714 LINE",
"206 714 LINE",
"206 408 LINE",
"44 408 LINE",
"44 339 LINE",
"206 339 LINE",
"206 0 LINE"
);
}
);
width = 790;
}
);
unicode = A520;
},
{
glyphname = uA521;
lastChange = "2017-01-31 20:33:09 +0000";
layers = (
{
layerId = UUID0;
paths = (
{
closed = 1;
nodes = (
"702 0 LINE",
"702 69 LINE",
"550 69 LINE",
"550 714 LINE",
"472 714 LINE",
"444 631 OFFCURVE",
"327 439 OFFCURVE",
"215 439 CURVE SMOOTH",
"158 439 OFFCURVE",
"136 449 OFFCURVE",
"118 485 CURVE",
"121 487 LINE",
"130 481 OFFCURVE",
"139 478 OFFCURVE",
"157 478 CURVE SMOOTH",
"208 478 OFFCURVE",
"248 512 OFFCURVE",
"248 571 CURVE SMOOTH",
"248 643 OFFCURVE",
"206 678 OFFCURVE",
"141 678 CURVE SMOOTH",
"83 678 OFFCURVE",
"32 633 OFFCURVE",
"32 543 CURVE SMOOTH",
"32 411 OFFCURVE",
"120 371 OFFCURVE",
"206 371 CURVE SMOOTH",
"320 371 OFFCURVE",
"407 475 OFFCURVE",
"468 566 CURVE",
"472 566 LINE",
"472 69 LINE",
"320 69 LINE",
"320 0 LINE"
);
},
{
closed = 1;
nodes = (
"143 517 OFFCURVE",
"122 520 OFFCURVE",
"111 529 CURVE",
"109 538 OFFCURVE",
"107 550 OFFCURVE",
"107 567 CURVE SMOOTH",
"107 603 OFFCURVE",
"125 622 OFFCURVE",
"152 622 CURVE SMOOTH",
"172 622 OFFCURVE",
"192 612 OFFCURVE",
"192 572 CURVE SMOOTH",
"192 545 OFFCURVE",
"178 517 OFFCURVE",
"152 517 CURVE SMOOTH"
);
}
);
width = 724;
}
);
unicode = A521;
},
{
glyphname = uA522;
lastChange = "2017-01-31 20:33:09 +0000";
layers = (
{
layerId = UUID0;
paths = (
{
closed = 1;
nodes = (
"480 -9 OFFCURVE",
"570 78 OFFCURVE",
"570 224 CURVE SMOOTH",
"570 350 OFFCURVE",
"508 462 OFFCURVE",
"433 548 CURVE",
"485 597 OFFCURVE",
"535 628 OFFCURVE",
"563 632 CURVE",
"689 500 LINE",
"750 551 LINE",
"588 720 LINE",
"550 715 OFFCURVE",
"467 670 OFFCURVE",
"387 596 CURVE",
"308 670 OFFCURVE",
"225 715 OFFCURVE",
"186 720 CURVE",
"22 548 LINE",
"75 500 LINE",
"200 632 LINE",
"224 628 OFFCURVE",
"278 594 OFFCURVE",
"333 541 CURVE",
"259 456 OFFCURVE",
"198 347 OFFCURVE",
"198 224 CURVE SMOOTH",
"198 43 OFFCURVE",
"288 -9 OFFCURVE",
"384 -9 CURVE SMOOTH"
);
},
{
closed = 1;
nodes = (
"330 59 OFFCURVE",
"276 107 OFFCURVE",
"276 224 CURVE SMOOTH",
"276 325 OFFCURVE",
"323 424 OFFCURVE",
"381 496 CURVE",
"441 424 OFFCURVE",
"492 325 OFFCURVE",
"492 224 CURVE SMOOTH",
"492 119 OFFCURVE",
"438 59 OFFCURVE",
"384 59 CURVE SMOOTH"
);
},
{
closed = 1;
nodes = (
"232 473 OFFCURVE",
"252 491 OFFCURVE",
"252 523 CURVE SMOOTH",
"252 554 OFFCURVE",
"231 573 OFFCURVE",
"202 573 CURVE SMOOTH",
"173 573 OFFCURVE",
"152 554 OFFCURVE",
"152 523 CURVE SMOOTH",
"152 491 OFFCURVE",
"170 473 OFFCURVE",
"202 473 CURVE SMOOTH"
);
},
{
closed = 1;
nodes = (
"590 473 OFFCURVE",
"610 491 OFFCURVE",
"610 523 CURVE SMOOTH",
"610 554 OFFCURVE",
"589 573 OFFCURVE",
"560 573 CURVE SMOOTH",
"531 573 OFFCURVE",
"510 554 OFFCURVE",
"510 523 CURVE SMOOTH",
"510 491 OFFCURVE",
"528 473 OFFCURVE",
"560 473 CURVE SMOOTH"
);
}
);
width = 772;
}
);
unicode = A522;
},
{
glyphname = uA523;
lastChange = "2017-01-31 20:33:09 +0000";
layers = (
{
layerId = UUID0;
paths = (
{
closed = 1;
nodes = (
"311 135 OFFCURVE",
"345 148 OFFCURVE",
"375 169 CURVE",
"421 147 OFFCURVE",
"474 135 OFFCURVE",
"533 135 CURVE SMOOTH",
"591 135 OFFCURVE",
"644 148 OFFCURVE",
"689 172 CURVE",
"723 148 OFFCURVE",
"761 135 OFFCURVE",
"801 135 CURVE SMOOTH",
"917 135 OFFCURVE",
"985 176 OFFCURVE",
"1043 326 CURVE",
"987 355 LINE",
"940 234 OFFCURVE",
"882 203 OFFCURVE",
"801 203 CURVE",
"783 203 OFFCURVE",
"761 207 OFFCURVE",
"746 214 CURVE",
"808 270 OFFCURVE",
"851 361 OFFCURVE",
"851 441 CURVE SMOOTH",
"851 573 OFFCURVE",
"798 639 OFFCURVE",
"707 639 CURVE SMOOTH",
"618 639 OFFCURVE",
"561 548 OFFCURVE",
"561 441 CURVE SMOOTH",
"561 352 OFFCURVE",
"596 278 OFFCURVE",
"642 221 CURVE",
"612 209 OFFCURVE",
"572 203 OFFCURVE",
"533 203 CURVE SMOOTH",
"494 203 OFFCURVE",
"455 210 OFFCURVE",
"425 222 CURVE",
"471 282 OFFCURVE",
"505 359 OFFCURVE",
"505 441 CURVE SMOOTH",
"505 573 OFFCURVE",
"444 639 OFFCURVE",
"359 639 CURVE SMOOTH",
"270 639 OFFCURVE",
"215 548 OFFCURVE",
"215 441 CURVE SMOOTH",
"215 345 OFFCURVE",
"257 263 OFFCURVE",
"320 209 CURVE",
"308 205 OFFCURVE",
"289 203 OFFCURVE",
"275 203 CURVE SMOOTH",
"194 203 OFFCURVE",
"128 234 OFFCURVE",
"84 355 CURVE",
"23 324 LINE",
"78 174 OFFCURVE",
"159 135 OFFCURVE",
"275 135 CURVE SMOOTH"
);
},
{
closed = 1;
nodes = (
"322 288 OFFCURVE",
"293 362 OFFCURVE",
"293 441 CURVE SMOOTH",
"293 519 OFFCURVE",
"310 571 OFFCURVE",
"359 571 CURVE SMOOTH",
"407 571 OFFCURVE",
"427 512 OFFCURVE",
"427 441 CURVE SMOOTH",
"427 368 OFFCURVE",
"412 290 OFFCURVE",
"376 244 CURVE"
);
},
{
closed = 1;
nodes = (
"390 665 OFFCURVE",
"410 683 OFFCURVE",
"410 715 CURVE SMOOTH",
"410 746 OFFCURVE",
"389 765 OFFCURVE",
"360 765 CURVE SMOOTH",
"331 765 OFFCURVE",
"310 746 OFFCURVE",
"310 715 CURVE SMOOTH",
"310 683 OFFCURVE",
"328 665 OFFCURVE",
"360 665 CURVE SMOOTH"
);
},
{
closed = 1;
nodes = (
"660 295 OFFCURVE",
"639 370 OFFCURVE",
"639 441 CURVE SMOOTH",
"639 512 OFFCURVE",
"657 571 OFFCURVE",
"707 571 CURVE SMOOTH",
"753 571 OFFCURVE",
"773 519 OFFCURVE",
"773 441 CURVE SMOOTH",
"773 361 OFFCURVE",
"746 291 OFFCURVE",
"697 248 CURVE"
);
},
{
closed = 1;
nodes = (
"739 665 OFFCURVE",
"759 683 OFFCURVE",
"759 715 CURVE SMOOTH",
"759 746 OFFCURVE",
"738 765 OFFCURVE",
"709 765 CURVE SMOOTH",
"680 765 OFFCURVE",
"659 746 OFFCURVE",
"659 715 CURVE SMOOTH",
"659 683 OFFCURVE",
"677 665 OFFCURVE",
"709 665 CURVE SMOOTH"
);
}
);
width = 1066;
}
);
unicode = A523;
},
{
glyphname = uA524;
lastChange = "2017-01-31 20:33:09 +0000";
layers = (
{
layerId = UUID0;
paths = (
{
closed = 1;
nodes = (
"804 0 LINE",
"804 69 LINE",
"652 69 LINE",
"652 295 LINE",
"729 295 LINE",
"729 211 LINE",
"807 211 LINE",
"807 453 LINE",
"729 453 LINE",
"729 363 LINE",
"652 363 LINE",
"652 714 LINE",
"574 714 LINE",
"574 645 LINE SMOOTH",
"574 540 OFFCURVE",
"537 491 OFFCURVE",
"486 491 CURVE SMOOTH",
"433 491 OFFCURVE",
"392 527 OFFCURVE",
"392 621 CURVE SMOOTH",
"392 714 LINE",
"314 714 LINE",
"314 623 LINE SMOOTH",
"314 527 OFFCURVE",
"272 491 OFFCURVE",
"227 491 CURVE SMOOTH",
"169 491 OFFCURVE",
"133 540 OFFCURVE",
"133 643 CURVE SMOOTH",
"133 714 LINE",
"55 714 LINE",
"55 643 LINE SMOOTH",
"55 477 OFFCURVE",
"118 425 OFFCURVE",
"212 425 CURVE SMOOTH",
"264 425 OFFCURVE",
"319 447 OFFCURVE",
"349 515 CURVE",
"353 515 LINE",
"374 445 OFFCURVE",
"433 425 OFFCURVE",
"473 425 CURVE SMOOTH",
"505 425 OFFCURVE",
"549 443 OFFCURVE",
"570 490 CURVE",
"574 490 LINE",
"574 69 LINE",
"422 69 LINE",
"422 0 LINE"
);
}
);
width = 851;
}
);
unicode = A524;
},
{
glyphname = uA525;
lastChange = "2017-01-31 20:33:09 +0000";
layers = (
{
layerId = UUID0;
paths = (
{
closed = 1;
nodes = (
"804 0 LINE",
"804 69 LINE",
"652 69 LINE",
"652 295 LINE",
"819 295 LINE",
"819 211 LINE",
"897 211 LINE",
"897 453 LINE",
"819 453 LINE",
"819 363 LINE",
"652 363 LINE",
"652 714 LINE",
"574 714 LINE",
"574 645 LINE SMOOTH",
"574 540 OFFCURVE",
"537 491 OFFCURVE",
"486 491 CURVE SMOOTH",
"433 491 OFFCURVE",
"392 527 OFFCURVE",
"392 621 CURVE SMOOTH",
"392 714 LINE",
"314 714 LINE",
"314 623 LINE SMOOTH",
"314 527 OFFCURVE",
"272 491 OFFCURVE",
"227 491 CURVE SMOOTH",
"169 491 OFFCURVE",
"133 540 OFFCURVE",
"133 643 CURVE SMOOTH",
"133 714 LINE",
"55 714 LINE",
"55 643 LINE SMOOTH",
"55 477 OFFCURVE",
"118 425 OFFCURVE",
"212 425 CURVE SMOOTH",
"264 425 OFFCURVE",
"319 447 OFFCURVE",
"349 515 CURVE",
"353 515 LINE",
"374 445 OFFCURVE",
"433 425 OFFCURVE",
"473 425 CURVE SMOOTH",
"505 425 OFFCURVE",
"549 443 OFFCURVE",
"570 490 CURVE",
"574 490 LINE",
"574 69 LINE",
"422 69 LINE",
"422 0 LINE"
);
},
{
closed = 1;
nodes = (
"765 135 OFFCURVE",
"785 153 OFFCURVE",
"785 185 CURVE SMOOTH",
"785 216 OFFCURVE",
"764 235 OFFCURVE",
"735 235 CURVE SMOOTH",
"706 235 OFFCURVE",
"685 216 OFFCURVE",
"685 185 CURVE SMOOTH",
"685 153 OFFCURVE",
"703 135 OFFCURVE",
"735 135 CURVE SMOOTH"
);
},
{
closed = 1;
nodes = (
"765 425 OFFCURVE",
"785 443 OFFCURVE",
"785 475 CURVE SMOOTH",
"785 506 OFFCURVE",
"764 525 OFFCURVE",
"735 525 CURVE SMOOTH",
"706 525 OFFCURVE",
"685 506 OFFCURVE",
"685 475 CURVE SMOOTH",
"685 443 OFFCURVE",
"703 425 OFFCURVE",
"735 425 CURVE SMOOTH"
);
}
);
width = 941;
}
);
unicode = A525;
},
{
glyphname = uA526;
lastChange = "2017-01-31 20:33:09 +0000";
layers = (
{
layerId = UUID0;
paths = (
{
closed = 1;
nodes = (
"804 0 LINE",
"804 69 LINE",
"652 69 LINE",
"652 235 LINE",
"809 235 LINE",
"809 151 LINE",
"887 151 LINE",
"887 393 LINE",
"809 393 LINE",
"809 303 LINE",
"652 303 LINE",
"652 714 LINE",
"574 714 LINE",
"574 645 LINE SMOOTH",
"574 540 OFFCURVE",
"537 491 OFFCURVE",
"486 491 CURVE SMOOTH",
"433 491 OFFCURVE",
"392 527 OFFCURVE",
"392 621 CURVE SMOOTH",
"392 714 LINE",
"314 714 LINE",
"314 623 LINE SMOOTH",
"314 527 OFFCURVE",
"272 491 OFFCURVE",
"227 491 CURVE SMOOTH",
"169 491 OFFCURVE",
"133 540 OFFCURVE",
"133 643 CURVE SMOOTH",
"133 714 LINE",
"55 714 LINE",
"55 643 LINE SMOOTH",
"55 477 OFFCURVE",
"118 425 OFFCURVE",
"212 425 CURVE SMOOTH",
"264 425 OFFCURVE",
"319 447 OFFCURVE",
"349 515 CURVE",
"353 515 LINE",
"374 445 OFFCURVE",
"433 425 OFFCURVE",
"473 425 CURVE SMOOTH",
"505 425 OFFCURVE",
"549 443 OFFCURVE",
"570 490 CURVE",
"574 490 LINE",
"574 303 LINE",
"413 303 LINE",
"413 393 LINE",
"335 393 LINE",
"335 151 LINE",
"413 151 LINE",
"413 235 LINE",
"574 235 LINE",
"574 69 LINE",
"422 69 LINE",
"422 0 LINE"
);
}
);
width = 931;
}
);
unicode = A526;
},
{
glyphname = uA527;
lastChange = "2017-01-31 20:33:09 +0000";
layers = (
{
layerId = UUID0;
paths = (
{
closed = 1;
nodes = (
"305 -10 OFFCURVE",
"358 39 OFFCURVE",
"368 126 CURVE",
"300 136 LINE",
"290 90 OFFCURVE",
"263 58 OFFCURVE",
"225 58 CURVE",
"187 58 OFFCURVE",
"155 90 OFFCURVE",
"155 136 CURVE SMOOTH",
"155 170 OFFCURVE",
"167 202 OFFCURVE",
"189 216 CURVE",
"201 213 OFFCURVE",
"213 212 OFFCURVE",
"225 212 CURVE SMOOTH",
"305 212 OFFCURVE",
"373 270 OFFCURVE",
"373 358 CURVE SMOOTH",
"373 406 OFFCURVE",
"352 446 OFFCURVE",
"319 472 CURVE",
"352 494 OFFCURVE",
"373 530 OFFCURVE",
"373 579 CURVE SMOOTH",
"373 666 OFFCURVE",
"305 725 OFFCURVE",
"225 725 CURVE SMOOTH",
"145 725 OFFCURVE",
"92 676 OFFCURVE",
"82 589 CURVE",
"150 579 LINE",
"160 625 OFFCURVE",
"187 657 OFFCURVE",
"225 657 CURVE SMOOTH",
"263 657 OFFCURVE",
"295 625 OFFCURVE",
"295 579 CURVE SMOOTH",
"295 545 OFFCURVE",
"283 513 OFFCURVE",
"261 499 CURVE",
"250 502 OFFCURVE",
"237 504 OFFCURVE",
"225 504 CURVE SMOOTH",
"145 504 OFFCURVE",
"77 445 OFFCURVE",
"77 358 CURVE SMOOTH",
"77 309 OFFCURVE",
"98 269 OFFCURVE",
"131 243 CURVE",
"98 221 OFFCURVE",
"77 184 OFFCURVE",
"77 136 CURVE SMOOTH",
"77 49 OFFCURVE",
"145 -10 OFFCURVE",
"225 -10 CURVE SMOOTH"
);
},
{
closed = 1;
nodes = (
"187 280 OFFCURVE",
"155 311 OFFCURVE",
"155 358 CURVE SMOOTH",
"155 404 OFFCURVE",
"187 436 OFFCURVE",
"225 436 CURVE SMOOTH",
"263 436 OFFCURVE",
"295 404 OFFCURVE",
"295 358 CURVE SMOOTH",
"295 311 OFFCURVE",
"263 280 OFFCURVE",
"225 280 CURVE SMOOTH"
);
}
);
width = 450;
}
);
unicode = A527;
},
{
glyphname = uA528;
lastChange = "2017-01-31 20:33:09 +0000";
layers = (
{
layerId = UUID0;
paths = (
{
closed = 1;
nodes = (
"481 34 LINE",
"428 97 LINE",
"572 216 LINE",
"583 148 OFFCURVE",
"639 120 OFFCURVE",
"698 120 CURVE SMOOTH",
"762 120 OFFCURVE",
"809 174 OFFCURVE",
"809 242 CURVE SMOOTH",
"809 307 OFFCURVE",
"761 351 OFFCURVE",
"698 351 CURVE SMOOTH",
"679 351 OFFCURVE",
"663 346 OFFCURVE",
"648 340 CURVE",
"648 714 LINE",
"570 714 LINE",
"570 647 OFFCURVE",
"533 598 OFFCURVE",
"482 598 CURVE SMOOTH",
"429 598 OFFCURVE",
"388 635 OFFCURVE",
"387 714 CURVE",
"310 714 LINE",
"310 634 OFFCURVE",
"275 598 OFFCURVE",
"222 598 CURVE SMOOTH",
"178 598 OFFCURVE",
"133 624 OFFCURVE",
"133 714 CURVE",
"55 714 LINE",
"55 579 OFFCURVE",
"128 532 OFFCURVE",
"219 532 CURVE SMOOTH",
"260 532 OFFCURVE",
"315 554 OFFCURVE",
"344 622 CURVE",
"348 622 LINE",
"370 552 OFFCURVE",
"429 532 OFFCURVE",
"469 532 CURVE SMOOTH",
"501 532 OFFCURVE",
"545 550 OFFCURVE",
"566 597 CURVE",
"570 597 LINE",
"570 517 LINE SMOOTH",
"570 450 OFFCURVE",
"533 401 OFFCURVE",
"482 401 CURVE SMOOTH",
"429 401 OFFCURVE",
"388 438 OFFCURVE",
"387 517 CURVE",
"310 517 LINE",
"310 437 OFFCURVE",
"275 401 OFFCURVE",
"222 401 CURVE SMOOTH",
"178 401 OFFCURVE",
"133 427 OFFCURVE",
"133 517 CURVE",
"55 517 LINE",
"55 382 OFFCURVE",
"128 335 OFFCURVE",
"219 335 CURVE SMOOTH",
"260 335 OFFCURVE",
"315 357 OFFCURVE",
"344 425 CURVE",
"348 425 LINE",
"370 355 OFFCURVE",
"429 335 OFFCURVE",
"469 335 CURVE SMOOTH",
"501 335 OFFCURVE",
"545 353 OFFCURVE",
"566 400 CURVE",
"570 400 LINE",
"570 302 LINE",
"385 148 LINE",
"333 210 LINE",
"280 166 LINE",
"428 -10 LINE"
);
},
{
closed = 1;
nodes = (
"666 186 OFFCURVE",
"648 204 OFFCURVE",
"648 251 CURVE SMOOTH",
"648 270 LINE",
"671 284 OFFCURVE",
"688 286 OFFCURVE",
"698 286 CURVE SMOOTH",
"727 286 OFFCURVE",
"748 267 OFFCURVE",
"748 236 CURVE SMOOTH",
"748 204 OFFCURVE",
"728 186 OFFCURVE",
"698 186 CURVE SMOOTH"
);
}
);
width = 842;
}
);
unicode = A528;
},
{
glyphname = uA529;
lastChange = "2017-01-31 20:33:09 +0000";
layers = (
{
layerId = UUID0;
paths = (
{
closed = 1;
nodes = (
"481 34 LINE",
"428 97 LINE",
"573 217 LINE",
"585 167 OFFCURVE",
"622 141 OFFCURVE",
"666 133 CURVE",
"666 105 LINE SMOOTH",
"666 37 OFFCURVE",
"713 -2 OFFCURVE",
"768 -2 CURVE SMOOTH",
"823 -2 OFFCURVE",
"870 37 OFFCURVE",
"870 105 CURVE",
"809 105 LINE",
"809 73 OFFCURVE",
"792 54 OFFCURVE",
"769 54 CURVE SMOOTH",
"745 54 OFFCURVE",
"729 72 OFFCURVE",
"729 104 CURVE SMOOTH",
"729 134 LINE",
"776 146 OFFCURVE",
"809 185 OFFCURVE",
"809 242 CURVE SMOOTH",
"809 307 OFFCURVE",
"761 351 OFFCURVE",
"698 351 CURVE SMOOTH",
"679 351 OFFCURVE",
"663 346 OFFCURVE",
"648 340 CURVE",
"648 714 LINE",
"570 714 LINE",
"570 647 OFFCURVE",
"533 598 OFFCURVE",
"482 598 CURVE SMOOTH",
"429 598 OFFCURVE",
"388 635 OFFCURVE",
"387 714 CURVE",
"310 714 LINE",
"310 634 OFFCURVE",
"275 598 OFFCURVE",
"222 598 CURVE SMOOTH",
"178 598 OFFCURVE",
"133 624 OFFCURVE",
"133 714 CURVE",
"55 714 LINE",
"55 579 OFFCURVE",
"128 532 OFFCURVE",
"219 532 CURVE SMOOTH",
"260 532 OFFCURVE",
"315 554 OFFCURVE",
"344 622 CURVE",
"348 622 LINE",
"370 552 OFFCURVE",
"429 532 OFFCURVE",
"469 532 CURVE SMOOTH",
"501 532 OFFCURVE",
"545 550 OFFCURVE",
"566 597 CURVE",
"570 597 LINE",
"570 517 LINE SMOOTH",
"570 450 OFFCURVE",
"533 401 OFFCURVE",
"482 401 CURVE SMOOTH",
"429 401 OFFCURVE",
"388 438 OFFCURVE",
"387 517 CURVE",
"310 517 LINE",
"310 437 OFFCURVE",
"275 401 OFFCURVE",
"222 401 CURVE SMOOTH",
"178 401 OFFCURVE",
"133 427 OFFCURVE",
"133 517 CURVE",
"55 517 LINE",
"55 382 OFFCURVE",
"128 335 OFFCURVE",
"219 335 CURVE SMOOTH",
"260 335 OFFCURVE",
"315 357 OFFCURVE",
"344 425 CURVE",
"348 425 LINE",
"370 355 OFFCURVE",
"429 335 OFFCURVE",
"469 335 CURVE SMOOTH",
"501 335 OFFCURVE",
"545 353 OFFCURVE",
"566 400 CURVE",
"570 400 LINE",
"570 302 LINE",
"385 148 LINE",
"333 210 LINE",
"280 166 LINE",
"428 -10 LINE"
);
},
{
closed = 1;
nodes = (
"666 186 OFFCURVE",
"648 204 OFFCURVE",
"648 251 CURVE SMOOTH",
"648 270 LINE",
"671 284 OFFCURVE",
"688 286 OFFCURVE",
"698 286 CURVE SMOOTH",
"727 286 OFFCURVE",
"748 267 OFFCURVE",
"748 236 CURVE SMOOTH",
"748 204 OFFCURVE",
"728 186 OFFCURVE",
"698 186 CURVE SMOOTH"
);
}
);
width = 892;
}
);
unicode = A529;
},
{
glyphname = uA52A;
lastChange = "2017-01-31 20:33:09 +0000";
layers = (
{
layerId = UUID0;
paths = (
{
closed = 1;
nodes = (
"530 183 LINE",
"223 363 LINE",
"223 367 LINE",
"526 534 LINE",
"111 724 LINE",
"111 -10 LINE"
);
}
);
width = 607;
}
);
unicode = A52A;
},
{
glyphname = uA52B;
lastChange = "2017-01-31 20:33:09 +0000";
layers = (
{
layerId = UUID0;
paths = (
{
closed = 1;
nodes = (
"162 0 LINE",
"226 110 OFFCURVE",
"267 289 OFFCURVE",
"271 437 CURVE",
"331 438 OFFCURVE",
"392 464 OFFCURVE",
"434 527 CURVE",
"438 527 LINE",
"476 465 OFFCURVE",
"542 438 OFFCURVE",
"600 437 CURVE",
"605 288 OFFCURVE",
"648 105 OFFCURVE",
"706 0 CURVE",
"796 0 LINE",
"732 111 OFFCURVE",
"683 284 OFFCURVE",
"678 442 CURVE",
"758 455 OFFCURVE",
"837 497 OFFCURVE",
"837 607 CURVE SMOOTH",
"837 697 OFFCURVE",
"780 728 OFFCURVE",
"729 728 CURVE SMOOTH",
"641 728 OFFCURVE",
"606 649 OFFCURVE",
"600 505 CURVE",
"548 506 OFFCURVE",
"482 526 OFFCURVE",
"469 613 CURVE",
"467 626 LINE",
"409 626 LINE",
"407 615 LINE SMOOTH",
"392 529 OFFCURVE",
"323 504 OFFCURVE",
"271 503 CURVE",
"266 650 OFFCURVE",
"231 728 OFFCURVE",
"143 728 CURVE SMOOTH",
"92 728 OFFCURVE",
"35 697 OFFCURVE",
"35 607 CURVE SMOOTH",
"35 501 OFFCURVE",
"119 458 OFFCURVE",
"193 443 CURVE",
"189 284 OFFCURVE",
"140 103 OFFCURVE",
"76 0 CURVE"
);
},
{
closed = 1;
nodes = (
"148 524 OFFCURVE",
"103 550 OFFCURVE",
"103 605 CURVE SMOOTH",
"103 639 OFFCURVE",
"115 660 OFFCURVE",
"143 660 CURVE SMOOTH",
"172 660 OFFCURVE",
"189 613 OFFCURVE",
"193 512 CURVE"
);
},
{
closed = 1;
nodes = (
"682 612 OFFCURVE",
"700 660 OFFCURVE",
"729 660 CURVE SMOOTH",
"753 660 OFFCURVE",
"769 645 OFFCURVE",
"769 605 CURVE SMOOTH",
"769 542 OFFCURVE",
"728 519 OFFCURVE",
"678 510 CURVE"
);
}
);
width = 872;
}
);
unicode = A52B;
},
{
glyphname = uA52C;
lastChange = "2017-01-31 20:33:09 +0000";
layers = (
{
layerId = UUID0;
paths = (
{
closed = 1;
nodes = (
"339 -10 OFFCURVE",
"422 50 OFFCURVE",
"422 183 CURVE SMOOTH",
"422 263 OFFCURVE",
"371 320 OFFCURVE",
"339 333 CURVE",
"340 337 LINE",
"373 329 OFFCURVE",
"432 328 OFFCURVE",
"498 328 CURVE SMOOTH",
"542 328 LINE",
"542 244 LINE",
"620 244 LINE",
"620 486 LINE",
"542 486 LINE",
"542 396 LINE",
"498 396 LINE SMOOTH",
"432 396 OFFCURVE",
"376 394 OFFCURVE",
"340 387 CURVE",
"339 391 LINE",
"371 404 OFFCURVE",
"418 466 OFFCURVE",
"418 534 CURVE",
"418 664 OFFCURVE",
"334 725 OFFCURVE",
"249 725 CURVE SMOOTH",
"167 725 OFFCURVE",
"81 664 OFFCURVE",
"81 534 CURVE SMOOTH",
"81 450 OFFCURVE",
"131 381 OFFCURVE",
"188 361 CURVE",
"188 357 LINE",
"132 335 OFFCURVE",
"77 272 OFFCURVE",
"77 183 CURVE SMOOTH",
"77 50 OFFCURVE",
"158 -10 OFFCURVE",
"249 -10 CURVE SMOOTH"
);
},
{
closed = 1;
nodes = (
"193 58 OFFCURVE",
"155 93 OFFCURVE",
"155 183 CURVE SMOOTH",
"155 273 OFFCURVE",
"198 329 OFFCURVE",
"249 329 CURVE SMOOTH",
"301 329 OFFCURVE",
"344 273 OFFCURVE",
"344 183 CURVE",
"344 93 OFFCURVE",
"304 58 OFFCURVE",
"249 58 CURVE SMOOTH"
);
},
{
closed = 1;
nodes = (
"197 394 OFFCURVE",
"159 448 OFFCURVE",
"159 534 CURVE SMOOTH",
"159 620 OFFCURVE",
"201 657 OFFCURVE",
"249 657 CURVE SMOOTH",
"299 657 OFFCURVE",
"340 620 OFFCURVE",
"340 534 CURVE",
"340 448 OFFCURVE",
"301 394 OFFCURVE",
"249 394 CURVE SMOOTH"
);
}
);
width = 664;
}
);
unicode = A52C;
},
{
glyphname = uA52D;
lastChange = "2017-01-31 20:33:09 +0000";
layers = (
{
layerId = UUID0;
paths = (
{
closed = 1;
nodes = (
"339 -10 OFFCURVE",
"422 50 OFFCURVE",
"422 183 CURVE SMOOTH",
"422 263 OFFCURVE",
"371 320 OFFCURVE",
"339 333 CURVE",
"340 337 LINE",
"373 329 OFFCURVE",
"432 328 OFFCURVE",
"498 328 CURVE SMOOTH",
"582 328 LINE",
"582 244 LINE",
"660 244 LINE",
"660 486 LINE",
"582 486 LINE",
"582 396 LINE",
"498 396 LINE SMOOTH",
"432 396 OFFCURVE",
"376 394 OFFCURVE",
"340 387 CURVE",
"339 391 LINE",
"371 404 OFFCURVE",
"418 466 OFFCURVE",
"418 534 CURVE",
"418 664 OFFCURVE",
"334 725 OFFCURVE",
"249 725 CURVE SMOOTH",
"167 725 OFFCURVE",
"81 664 OFFCURVE",
"81 534 CURVE SMOOTH",
"81 450 OFFCURVE",
"131 381 OFFCURVE",
"188 361 CURVE",
"188 357 LINE",
"132 335 OFFCURVE",
"77 272 OFFCURVE",
"77 183 CURVE SMOOTH",
"77 50 OFFCURVE",
"158 -10 OFFCURVE",
"249 -10 CURVE SMOOTH"
);
},
{
closed = 1;
nodes = (
"193 58 OFFCURVE",
"155 93 OFFCURVE",
"155 183 CURVE SMOOTH",
"155 273 OFFCURVE",
"198 329 OFFCURVE",
"249 329 CURVE SMOOTH",
"301 329 OFFCURVE",
"344 273 OFFCURVE",
"344 183 CURVE",
"344 93 OFFCURVE",
"304 58 OFFCURVE",
"249 58 CURVE SMOOTH"
);
},
{
closed = 1;
nodes = (
"528 153 OFFCURVE",
"548 171 OFFCURVE",
"548 203 CURVE SMOOTH",
"548 234 OFFCURVE",
"527 253 OFFCURVE",
"498 253 CURVE SMOOTH",
"469 253 OFFCURVE",
"448 234 OFFCURVE",
"448 203 CURVE SMOOTH",
"448 171 OFFCURVE",
"466 153 OFFCURVE",
"498 153 CURVE SMOOTH"
);
},
{
closed = 1;
nodes = (
"197 394 OFFCURVE",
"159 448 OFFCURVE",
"159 534 CURVE SMOOTH",
"159 620 OFFCURVE",
"201 657 OFFCURVE",
"249 657 CURVE SMOOTH",
"299 657 OFFCURVE",
"340 620 OFFCURVE",
"340 534 CURVE",
"340 448 OFFCURVE",
"301 394 OFFCURVE",
"249 394 CURVE SMOOTH"
);
},
{
closed = 1;
nodes = (
"528 471 OFFCURVE",
"548 489 OFFCURVE",
"548 521 CURVE SMOOTH",
"548 552 OFFCURVE",
"527 571 OFFCURVE",
"498 571 CURVE SMOOTH",
"469 571 OFFCURVE",
"448 552 OFFCURVE",
"448 521 CURVE SMOOTH",
"448 489 OFFCURVE",
"466 471 OFFCURVE",
"498 471 CURVE SMOOTH"
);
}
);
width = 704;
}
);
unicode = A52D;
},
{
glyphname = uA52E;
lastChange = "2017-01-31 20:33:09 +0000";
layers = (
{
layerId = UUID0;
paths = (
{
closed = 1;
nodes = (
"467 111 OFFCURVE",
"573 216 OFFCURVE",
"573 384 CURVE SMOOTH",
"573 549 OFFCURVE",
"462 660 OFFCURVE",
"309 660 CURVE SMOOTH",
"155 660 OFFCURVE",
"44 549 OFFCURVE",
"44 384 CURVE SMOOTH",
"44 216 OFFCURVE",
"141 111 OFFCURVE",
"309 111 CURVE SMOOTH"
);
},
{
closed = 1;
nodes = (
"242 179 OFFCURVE",
"191 204 OFFCURVE",
"160 248 CURVE",
"242 295 LINE",
"260 283 OFFCURVE",
"282 277 OFFCURVE",
"309 277 CURVE SMOOTH",
"335 277 OFFCURVE",
"358 283 OFFCURVE",
"376 295 CURVE",
"456 249 LINE",
"423 204 OFFCURVE",
"372 179 OFFCURVE",
"309 179 CURVE SMOOTH"
);
},
{
closed = 1;
nodes = (
"125 333 OFFCURVE",
"122 357 OFFCURVE",
"122 384 CURVE SMOOTH",
"122 495 OFFCURVE",
"184 573 OFFCURVE",
"276 589 CURVE",
"276 484 LINE",
"229 473 OFFCURVE",
"200 437 OFFCURVE",
"200 383 CURVE SMOOTH",
"200 372 OFFCURVE",
"201 362 OFFCURVE",
"203 353 CURVE",
"131 311 LINE"
);
},
{
closed = 1;
nodes = (
"277 333 OFFCURVE",
"259 351 OFFCURVE",
"259 383 CURVE SMOOTH",
"259 414 OFFCURVE",
"280 433 OFFCURVE",
"309 433 CURVE SMOOTH",
"338 433 OFFCURVE",
"359 414 OFFCURVE",
"359 383 CURVE SMOOTH",
"359 351 OFFCURVE",
"339 333 OFFCURVE",
"309 333 CURVE SMOOTH"
);
},
{
closed = 1;
nodes = (
"416 352 LINE",
"419 362 OFFCURVE",
"420 372 OFFCURVE",
"420 384 CURVE SMOOTH",
"420 436 OFFCURVE",
"389 471 OFFCURVE",
"345 483 CURVE",
"345 588 LINE",
"434 572 OFFCURVE",
"495 493 OFFCURVE",
"495 384 CURVE SMOOTH",
"495 358 OFFCURVE",
"492 334 OFFCURVE",
"486 312 CURVE"
);
}
);
width = 617;
}
);
unicode = A52E;
},
{
glyphname = uA52F;
lastChange = "2017-01-31 20:33:09 +0000";
layers = (
{
layerId = UUID0;
paths = (
{
closed = 1;
nodes = (
"362 0 LINE",
"362 177 LINE",
"554 177 LINE",
"554 246 LINE",
"362 246 LINE",
"362 645 LINE",
"624 645 LINE",
"624 714 LINE",
"22 714 LINE",
"22 645 LINE",
"284 645 LINE",
"284 246 LINE",
"92 246 LINE",
"92 177 LINE",
"284 177 LINE",
"284 0 LINE"
);
},
{
closed = 1;
nodes = (
"189 0 OFFCURVE",
"209 18 OFFCURVE",
"209 50 CURVE SMOOTH",
"209 81 OFFCURVE",
"188 100 OFFCURVE",
"159 100 CURVE SMOOTH",
"130 100 OFFCURVE",
"109 81 OFFCURVE",
"109 50 CURVE SMOOTH",
"109 18 OFFCURVE",
"127 0 OFFCURVE",
"159 0 CURVE SMOOTH"
);
},
{
closed = 1;
nodes = (
"189 325 OFFCURVE",
"209 343 OFFCURVE",
"209 375 CURVE SMOOTH",
"209 406 OFFCURVE",
"188 425 OFFCURVE",
"159 425 CURVE SMOOTH",
"130 425 OFFCURVE",
"109 406 OFFCURVE",
"109 375 CURVE SMOOTH",
"109 343 OFFCURVE",
"127 325 OFFCURVE",
"159 325 CURVE SMOOTH"
);
},
{
closed = 1;
nodes = (
"515 0 OFFCURVE",
"535 18 OFFCURVE",
"535 50 CURVE SMOOTH",
"535 81 OFFCURVE",
"514 100 OFFCURVE",
"485 100 CURVE SMOOTH",
"456 100 OFFCURVE",
"435 81 OFFCURVE",
"435 50 CURVE SMOOTH",
"435 18 OFFCURVE",
"453 0 OFFCURVE",
"485 0 CURVE SMOOTH"
);
},
{
closed = 1;
nodes = (
"515 325 OFFCURVE",
"535 343 OFFCURVE",
"535 375 CURVE SMOOTH",
"535 406 OFFCURVE",
"514 425 OFFCURVE",
"485 425 CURVE SMOOTH",
"456 425 OFFCURVE",
"435 406 OFFCURVE",
"435 375 CURVE SMOOTH",
"435 343 OFFCURVE",
"453 325 OFFCURVE",
"485 325 CURVE SMOOTH"
);
}
);
width = 646;
}
);
unicode = A52F;
},
{
glyphname = uA530;
lastChange = "2017-01-31 20:33:09 +0000";
layers = (
{
layerId = UUID0;
paths = (
{
closed = 1;
nodes = (
"424 0 LINE",
"424 339 LINE",
"726 339 LINE",
"726 408 LINE",
"424 408 LINE",
"424 714 LINE",
"346 714 LINE",
"346 408 LINE",
"44 408 LINE",
"44 339 LINE",
"346 339 LINE",
"346 0 LINE"
);
},
{
closed = 1;
nodes = (
"261 174 OFFCURVE",
"281 192 OFFCURVE",
"281 224 CURVE SMOOTH",
"281 255 OFFCURVE",
"260 274 OFFCURVE",
"231 274 CURVE SMOOTH",
"202 274 OFFCURVE",
"181 255 OFFCURVE",
"181 224 CURVE SMOOTH",
"181 192 OFFCURVE",
"199 174 OFFCURVE",
"231 174 CURVE SMOOTH"
);
},
{
closed = 1;
nodes = (
"261 473 OFFCURVE",
"281 491 OFFCURVE",
"281 523 CURVE SMOOTH",
"281 554 OFFCURVE",
"260 573 OFFCURVE",
"231 573 CURVE SMOOTH",
"202 573 OFFCURVE",
"181 554 OFFCURVE",
"181 523 CURVE SMOOTH",
"181 491 OFFCURVE",
"199 473 OFFCURVE",
"231 473 CURVE SMOOTH"
);
},
{
closed = 1;
nodes = (
"569 174 OFFCURVE",
"589 192 OFFCURVE",
"589 224 CURVE SMOOTH",
"589 255 OFFCURVE",
"568 274 OFFCURVE",
"539 274 CURVE SMOOTH",
"510 274 OFFCURVE",
"489 255 OFFCURVE",
"489 224 CURVE SMOOTH",
"489 192 OFFCURVE",
"507 174 OFFCURVE",
"539 174 CURVE SMOOTH"
);
},
{
closed = 1;
nodes = (
"569 473 OFFCURVE",
"589 491 OFFCURVE",
"589 523 CURVE SMOOTH",
"589 554 OFFCURVE",
"568 573 OFFCURVE",
"539 573 CURVE SMOOTH",
"510 573 OFFCURVE",
"489 554 OFFCURVE",
"489 523 CURVE SMOOTH",
"489 491 OFFCURVE",
"507 473 OFFCURVE",
"539 473 CURVE SMOOTH"
);
}
);
width = 770;
}
);
unicode = A530;
},
{
glyphname = uA531;
lastChange = "2017-01-31 20:33:09 +0000";
layers = (
{
layerId = UUID0;
paths = (
{
closed = 1;
nodes = (
"336 -5 OFFCURVE",
"380 25 OFFCURVE",
"407 70 CURVE",
"411 70 LINE",
"434 23 OFFCURVE",
"473 -5 OFFCURVE",
"550 -5 CURVE SMOOTH",
"644 -5 OFFCURVE",
"707 37 OFFCURVE",
"707 206 CURVE SMOOTH",
"707 284 LINE",
"629 284 LINE",
"629 205 LINE SMOOTH",
"629 100 OFFCURVE",
"600 61 OFFCURVE",
"540 61 CURVE SMOOTH",
"490 61 OFFCURVE",
"448 87 OFFCURVE",
"448 183 CURVE SMOOTH",
"448 284 LINE",
"370 284 LINE",
"370 183 LINE SMOOTH",
"370 87 OFFCURVE",
"328 61 OFFCURVE",
"278 61 CURVE SMOOTH",
"217 61 OFFCURVE",
"189 100 OFFCURVE",
"189 205 CURVE SMOOTH",
"189 470 LINE",
"193 470 LINE",
"209 438 OFFCURVE",
"242 425 OFFCURVE",
"278 425 CURVE SMOOTH",
"341 425 OFFCURVE",
"380 455 OFFCURVE",
"407 500 CURVE",
"411 500 LINE",
"434 453 OFFCURVE",
"473 425 OFFCURVE",
"550 425 CURVE SMOOTH",
"644 425 OFFCURVE",
"707 467 OFFCURVE",
"707 636 CURVE SMOOTH",
"707 714 LINE",
"629 714 LINE",
"629 635 LINE SMOOTH",
"629 530 OFFCURVE",
"606 491 OFFCURVE",
"540 491 CURVE SMOOTH",
"490 491 OFFCURVE",
"448 517 OFFCURVE",
"448 613 CURVE SMOOTH",
"448 714 LINE",
"370 714 LINE",
"370 613 LINE SMOOTH",
"370 517 OFFCURVE",
"328 491 OFFCURVE",
"278 491 CURVE SMOOTH",
"225 491 OFFCURVE",
"189 530 OFFCURVE",
"189 635 CURVE SMOOTH",
"189 714 LINE",
"111 714 LINE",
"111 206 LINE SMOOTH",
"111 37 OFFCURVE",
"174 -5 OFFCURVE",
"268 -5 CURVE SMOOTH"
);
}
);
width = 795;
}
);
unicode = A531;
},
{
glyphname = uA532;
lastChange = "2017-01-31 20:33:09 +0000";
layers = (
{
layerId = UUID0;
paths = (
{
closed = 1;
nodes = (
"345 -10 OFFCURVE",
"402 47 OFFCURVE",
"403 168 CURVE",
"407 168 LINE",
"423 136 OFFCURVE",
"469 115 OFFCURVE",
"505 115 CURVE SMOOTH",
"599 115 OFFCURVE",
"662 157 OFFCURVE",
"662 326 CURVE SMOOTH",
"662 334 LINE",
"584 334 LINE",
"584 325 LINE SMOOTH",
"584 220 OFFCURVE",
"555 181 OFFCURVE",
"495 181 CURVE SMOOTH",
"445 181 OFFCURVE",
"403 207 OFFCURVE",
"403 303 CURVE SMOOTH",
"403 334 LINE",
"325 334 LINE",
"325 303 LINE SMOOTH",
"325 207 OFFCURVE",
"283 181 OFFCURVE",
"233 181 CURVE SMOOTH",
"172 181 OFFCURVE",
"144 220 OFFCURVE",
"144 325 CURVE SMOOTH",
"144 403 LINE",
"148 403 LINE",
"164 371 OFFCURVE",
"197 358 OFFCURVE",
"233 358 CURVE SMOOTH",
"296 358 OFFCURVE",
"335 388 OFFCURVE",
"362 433 CURVE",
"366 433 LINE",
"389 386 OFFCURVE",
"428 358 OFFCURVE",
"505 358 CURVE SMOOTH",
"599 358 OFFCURVE",
"662 400 OFFCURVE",
"662 569 CURVE SMOOTH",
"662 587 LINE",
"584 587 LINE",
"584 568 LINE SMOOTH",
"584 463 OFFCURVE",
"561 424 OFFCURVE",
"495 424 CURVE SMOOTH",
"446 424 OFFCURVE",
"403 449 OFFCURVE",
"403 546 CURVE SMOOTH",
"403 629 OFFCURVE",
"425 662 OFFCURVE",
"475 662 CURVE SMOOTH",
"500 662 OFFCURVE",
"511 658 OFFCURVE",
"518 655 CURVE",
"531 716 LINE",
"520 721 OFFCURVE",
"500 725 OFFCURVE",
"475 725 CURVE SMOOTH",
"382 725 OFFCURVE",
"325 667 OFFCURVE",
"325 546 CURVE SMOOTH",
"325 450 OFFCURVE",
"283 424 OFFCURVE",
"233 424 CURVE SMOOTH",
"180 424 OFFCURVE",
"144 463 OFFCURVE",
"144 568 CURVE SMOOTH",
"144 587 LINE",
"66 587 LINE",
"66 326 LINE SMOOTH",
"66 157 OFFCURVE",
"129 115 OFFCURVE",
"223 115 CURVE SMOOTH",
"259 115 OFFCURVE",
"305 136 OFFCURVE",
"321 168 CURVE",
"325 168 LINE",
"325 86 OFFCURVE",
"303 53 OFFCURVE",
"253 53 CURVE SMOOTH",
"228 53 OFFCURVE",
"217 57 OFFCURVE",
"210 60 CURVE",
"197 -1 LINE",
"208 -6 OFFCURVE",
"228 -10 OFFCURVE",
"253 -10 CURVE SMOOTH"
);
}
);
width = 728;
}
);
unicode = A532;
},
{
glyphname = uA533;
lastChange = "2017-01-31 20:33:09 +0000";
layers = (
{
layerId = UUID0;
paths = (
{
closed = 1;
nodes = (
"653 -11 OFFCURVE",
"735 59 OFFCURVE",
"768 172 CURVE",
"701 189 LINE",
"677 106 OFFCURVE",
"627 57 OFFCURVE",
"555 57 CURVE SMOOTH",
"484 57 OFFCURVE",
"439 107 OFFCURVE",
"439 186 CURVE SMOOTH",
"439 329 OFFCURVE",
"554 519 OFFCURVE",
"686 689 CURVE",
"622 725 LINE",
"563 649 OFFCURVE",
"508 570 OFFCURVE",
"464 493 CURVE",
"422 502 OFFCURVE",
"392 540 OFFCURVE",
"392 621 CURVE SMOOTH",
"392 714 LINE",
"314 714 LINE",
"314 623 LINE SMOOTH",
"314 527 OFFCURVE",
"272 491 OFFCURVE",
"227 491 CURVE SMOOTH",
"169 491 OFFCURVE",
"133 540 OFFCURVE",
"133 643 CURVE SMOOTH",
"133 714 LINE",
"55 714 LINE",
"55 643 LINE SMOOTH",
"55 477 OFFCURVE",
"118 425 OFFCURVE",
"212 425 CURVE SMOOTH",
"264 425 OFFCURVE",
"319 447 OFFCURVE",
"349 515 CURVE",
"353 515 LINE",
"367 467 OFFCURVE",
"399 442 OFFCURVE",
"431 432 CURVE",
"387 345 OFFCURVE",
"361 260 OFFCURVE",
"361 186 CURVE SMOOTH",
"361 65 OFFCURVE",
"436 -11 OFFCURVE",
"555 -11 CURVE SMOOTH"
);
},
{
closed = 1;
nodes = (
"585 131 OFFCURVE",
"605 149 OFFCURVE",
"605 181 CURVE SMOOTH",
"605 212 OFFCURVE",
"584 231 OFFCURVE",
"555 231 CURVE SMOOTH",
"526 231 OFFCURVE",
"505 212 OFFCURVE",
"505 181 CURVE SMOOTH",
"505 149 OFFCURVE",
"523 131 OFFCURVE",
"555 131 CURVE SMOOTH"
);
},
{
closed = 1;
nodes = (
"688 331 OFFCURVE",
"708 349 OFFCURVE",
"708 381 CURVE SMOOTH",
"708 412 OFFCURVE",
"687 431 OFFCURVE",
"658 431 CURVE SMOOTH",
"629 431 OFFCURVE",
"608 412 OFFCURVE",
"608 381 CURVE SMOOTH",
"608 349 OFFCURVE",
"626 331 OFFCURVE",
"658 331 CURVE SMOOTH"
);
}
);
width = 801;
}
);
unicode = A533;
},
{
glyphname = uA534;
lastChange = "2017-01-31 20:33:09 +0000";
layers = (
{
layerId = UUID0;
paths = (
{
closed = 1;
nodes = (
"653 -11 OFFCURVE",
"735 59 OFFCURVE",
"768 172 CURVE",
"701 189 LINE",
"677 106 OFFCURVE",
"627 57 OFFCURVE",
"555 57 CURVE SMOOTH",
"484 57 OFFCURVE",
"439 107 OFFCURVE",
"439 186 CURVE SMOOTH",
"439 329 OFFCURVE",
"554 519 OFFCURVE",
"686 689 CURVE",
"622 725 LINE",
"563 649 OFFCURVE",
"508 570 OFFCURVE",
"464 493 CURVE",
"422 502 OFFCURVE",
"392 540 OFFCURVE",
"392 621 CURVE SMOOTH",
"392 714 LINE",
"314 714 LINE",
"314 623 LINE SMOOTH",
"314 527 OFFCURVE",
"272 491 OFFCURVE",
"227 491 CURVE SMOOTH",
"169 491 OFFCURVE",
"133 540 OFFCURVE",
"133 643 CURVE SMOOTH",
"133 714 LINE",
"55 714 LINE",
"55 643 LINE SMOOTH",
"55 477 OFFCURVE",
"118 425 OFFCURVE",
"212 425 CURVE SMOOTH",
"264 425 OFFCURVE",
"319 447 OFFCURVE",
"349 515 CURVE",
"353 515 LINE",
"367 467 OFFCURVE",
"399 442 OFFCURVE",
"431 432 CURVE",
"387 345 OFFCURVE",
"361 260 OFFCURVE",
"361 186 CURVE SMOOTH",
"361 65 OFFCURVE",
"436 -11 OFFCURVE",
"555 -11 CURVE SMOOTH"
);
},
{
closed = 1;
nodes = (
"585 131 OFFCURVE",
"605 149 OFFCURVE",
"605 181 CURVE SMOOTH",
"605 212 OFFCURVE",
"584 231 OFFCURVE",
"555 231 CURVE SMOOTH",
"526 231 OFFCURVE",
"505 212 OFFCURVE",
"505 181 CURVE SMOOTH",
"505 149 OFFCURVE",
"523 131 OFFCURVE",
"555 131 CURVE SMOOTH"
);
},
{
closed = 1;
nodes = (
"688 331 OFFCURVE",
"708 349 OFFCURVE",
"708 381 CURVE SMOOTH",
"708 412 OFFCURVE",
"687 431 OFFCURVE",
"658 431 CURVE SMOOTH",
"629 431 OFFCURVE",
"608 412 OFFCURVE",
"608 381 CURVE SMOOTH",
"608 349 OFFCURVE",
"626 331 OFFCURVE",
"658 331 CURVE SMOOTH"
);
},
{
closed = 1;
nodes = (
"791 531 OFFCURVE",
"811 549 OFFCURVE",
"811 581 CURVE SMOOTH",
"811 612 OFFCURVE",
"790 631 OFFCURVE",
"761 631 CURVE SMOOTH",
"732 631 OFFCURVE",
"711 612 OFFCURVE",
"711 581 CURVE SMOOTH",
"711 549 OFFCURVE",
"729 531 OFFCURVE",
"761 531 CURVE SMOOTH"
);
}
);
width = 844;
}
);
unicode = A534;
},
{
glyphname = uA535;
lastChange = "2017-01-31 20:33:09 +0000";
layers = (
{
layerId = UUID0;
paths = (
{
closed = 1;
nodes = (
"189 0 LINE",
"189 312 LINE",
"232 389 OFFCURVE",
"333 467 OFFCURVE",
"445 467 CURVE SMOOTH",
"502 467 OFFCURVE",
"527 450 OFFCURVE",
"542 421 CURVE",
"539 419 LINE",
"530 425 OFFCURVE",
"521 428 OFFCURVE",
"503 428 CURVE SMOOTH",
"452 428 OFFCURVE",
"412 394 OFFCURVE",
"412 335 CURVE SMOOTH",
"412 263 OFFCURVE",
"454 228 OFFCURVE",
"519 228 CURVE SMOOTH",
"577 228 OFFCURVE",
"628 273 OFFCURVE",
"628 360 CURVE SMOOTH",
"628 495 OFFCURVE",
"540 535 OFFCURVE",
"454 535 CURVE SMOOTH",
"340 535 OFFCURVE",
"261 483 OFFCURVE",
"193 400 CURVE",
"189 400 LINE",
"189 714 LINE",
"111 714 LINE",
"111 0 LINE"
);
},
{
closed = 1;
nodes = (
"488 284 OFFCURVE",
"468 294 OFFCURVE",
"468 334 CURVE SMOOTH",
"468 361 OFFCURVE",
"482 389 OFFCURVE",
"508 389 CURVE SMOOTH",
"517 389 OFFCURVE",
"538 386 OFFCURVE",
"549 377 CURVE",
"551 368 OFFCURVE",
"553 356 OFFCURVE",
"553 339 CURVE SMOOTH",
"553 303 OFFCURVE",
"535 284 OFFCURVE",
"508 284 CURVE SMOOTH"
);
}
);
width = 661;
}
);
unicode = A535;
},
{
glyphname = uA536;
lastChange = "2017-01-31 20:33:09 +0000";
layers = (
{
layerId = UUID0;
paths = (
{
closed = 1;
nodes = (
"189 0 LINE",
"189 312 LINE",
"232 389 OFFCURVE",
"333 467 OFFCURVE",
"445 467 CURVE SMOOTH",
"502 467 OFFCURVE",
"527 451 OFFCURVE",
"542 421 CURVE",
"539 419 LINE",
"530 425 OFFCURVE",
"521 428 OFFCURVE",
"503 428 CURVE SMOOTH",
"452 428 OFFCURVE",
"412 394 OFFCURVE",
"412 335 CURVE SMOOTH",
"412 263 OFFCURVE",
"454 228 OFFCURVE",
"519 228 CURVE SMOOTH",
"577 228 OFFCURVE",
"628 273 OFFCURVE",
"628 360 CURVE SMOOTH",
"628 495 OFFCURVE",
"540 535 OFFCURVE",
"454 535 CURVE SMOOTH",
"340 535 OFFCURVE",
"261 483 OFFCURVE",
"193 400 CURVE",
"189 400 LINE",
"189 714 LINE",
"111 714 LINE",
"111 0 LINE"
);
},
{
closed = 1;
nodes = (
"347 275 OFFCURVE",
"367 293 OFFCURVE",
"367 325 CURVE SMOOTH",
"367 356 OFFCURVE",
"346 375 OFFCURVE",
"317 375 CURVE SMOOTH",
"288 375 OFFCURVE",
"267 356 OFFCURVE",
"267 325 CURVE SMOOTH",
"267 293 OFFCURVE",
"285 275 OFFCURVE",
"317 275 CURVE SMOOTH"
);
},
{
closed = 1;
nodes = (
"488 284 OFFCURVE",
"468 294 OFFCURVE",
"468 334 CURVE SMOOTH",
"468 361 OFFCURVE",
"482 389 OFFCURVE",
"508 389 CURVE SMOOTH",
"517 389 OFFCURVE",
"538 386 OFFCURVE",
"549 377 CURVE",
"551 368 OFFCURVE",
"553 356 OFFCURVE",
"553 339 CURVE SMOOTH",
"553 303 OFFCURVE",
"535 284 OFFCURVE",
"508 284 CURVE SMOOTH"
);
},
{
closed = 1;
nodes = (
"347 547 OFFCURVE",
"367 565 OFFCURVE",
"367 597 CURVE SMOOTH",
"367 628 OFFCURVE",
"346 647 OFFCURVE",
"317 647 CURVE SMOOTH",
"288 647 OFFCURVE",
"267 628 OFFCURVE",
"267 597 CURVE SMOOTH",
"267 565 OFFCURVE",
"285 547 OFFCURVE",
"317 547 CURVE SMOOTH"
);
}
);
width = 661;
}
);
unicode = A536;
},
{
glyphname = uA537;
lastChange = "2017-01-31 20:33:09 +0000";
layers = (
{
layerId = UUID0;
paths = (
{
closed = 1;
nodes = (
"302 235 OFFCURVE",
"359 286 OFFCURVE",
"359 376 CURVE SMOOTH",
"359 464 OFFCURVE",
"299 518 OFFCURVE",
"217 518 CURVE SMOOTH",
"134 518 OFFCURVE",
"75 464 OFFCURVE",
"75 376 CURVE SMOOTH",
"75 286 OFFCURVE",
"127 235 OFFCURVE",
"217 235 CURVE SMOOTH"
);
}
);
width = 434;
}
);
unicode = A537;
},
{
glyphname = uA538;
lastChange = "2017-01-31 20:33:09 +0000";
layers = (
{
layerId = UUID0;
paths = (
{
closed = 1;
nodes = (
"302 235 OFFCURVE",
"359 286 OFFCURVE",
"359 376 CURVE SMOOTH",
"359 464 OFFCURVE",
"299 518 OFFCURVE",
"217 518 CURVE SMOOTH",
"134 518 OFFCURVE",
"75 464 OFFCURVE",
"75 376 CURVE SMOOTH",
"75 286 OFFCURVE",
"127 235 OFFCURVE",
"217 235 CURVE SMOOTH"
);
},
{
closed = 1;
nodes = (
"73 -123 OFFCURVE",
"97 -114 OFFCURVE",
"128 -114 CURVE SMOOTH",
"172 -114 OFFCURVE",
"244 -151 OFFCURVE",
"300 -151 CURVE SMOOTH",
"363 -151 OFFCURVE",
"400 -123 OFFCURVE",
"425 -60 CURVE",
"379 -33 LINE",
"359 -72 OFFCURVE",
"335 -81 OFFCURVE",
"304 -81 CURVE SMOOTH",
"262 -81 OFFCURVE",
"191 -44 OFFCURVE",
"132 -44 CURVE SMOOTH",
"69 -44 OFFCURVE",
"32 -72 OFFCURVE",
"7 -135 CURVE",
"53 -162 LINE"
);
}
);
width = 434;
}
);
unicode = A538;
},
{
glyphname = uA539;
lastChange = "2017-01-31 20:33:09 +0000";
layers = (
{
layerId = UUID0;
paths = (
{
closed = 1;
nodes = (
"391 235 OFFCURVE",
"448 286 OFFCURVE",
"448 376 CURVE SMOOTH",
"448 464 OFFCURVE",
"388 518 OFFCURVE",
"306 518 CURVE SMOOTH",
"223 518 OFFCURVE",
"164 464 OFFCURVE",
"164 376 CURVE SMOOTH",
"164 286 OFFCURVE",
"216 235 OFFCURVE",
"306 235 CURVE SMOOTH"
);
},
{
closed = 1;
nodes = (
"115 330 OFFCURVE",
"133 348 OFFCURVE",
"133 380 CURVE SMOOTH",
"133 410 OFFCURVE",
"115 430 OFFCURVE",
"83 430 CURVE SMOOTH",
"52 430 OFFCURVE",
"33 409 OFFCURVE",
"33 380 CURVE SMOOTH",
"33 351 OFFCURVE",
"52 330 OFFCURVE",
"83 330 CURVE SMOOTH"
);
},
{
closed = 1;
nodes = (
"565 330 OFFCURVE",
"583 348 OFFCURVE",
"583 380 CURVE SMOOTH",
"583 410 OFFCURVE",
"565 430 OFFCURVE",
"533 430 CURVE SMOOTH",
"502 430 OFFCURVE",
"483 409 OFFCURVE",
"483 380 CURVE SMOOTH",
"483 351 OFFCURVE",
"502 330 OFFCURVE",
"533 330 CURVE SMOOTH"
);
}
);
width = 616;
}
);
unicode = A539;
},
{
glyphname = uA53A;
lastChange = "2017-01-31 20:33:09 +0000";
layers = (
{
layerId = UUID0;
paths = (
{
closed = 1;
nodes = (
"527 51 LINE",
"489 73 OFFCURVE",
"468 88 OFFCURVE",
"468 109 CURVE SMOOTH",
"468 139 OFFCURVE",
"517 161 OFFCURVE",
"517 223 CURVE SMOOTH",
"517 264 OFFCURVE",
"497 286 OFFCURVE",
"478 307 CURVE",
"520 313 OFFCURVE",
"560 336 OFFCURVE",
"579 395 CURVE",
"583 395 LINE",
"613 327 OFFCURVE",
"673 305 OFFCURVE",
"715 305 CURVE SMOOTH",
"803 305 OFFCURVE",
"854 350 OFFCURVE",
"861 494 CURVE",
"783 494 LINE",
"780 410 OFFCURVE",
"761 371 OFFCURVE",
"705 371 CURVE SMOOTH",
"662 371 OFFCURVE",
"625 404 OFFCURVE",
"623 494 CURVE",
"545 494 LINE",
"542 407 OFFCURVE",
"508 373 OFFCURVE",
"458 371 CURVE",
"467 415 OFFCURVE",
"517 444 OFFCURVE",
"517 508 CURVE SMOOTH",
"517 578 OFFCURVE",
"462 589 OFFCURVE",
"462 625 CURVE SMOOTH",
"462 646 OFFCURVE",
"491 661 OFFCURVE",
"521 676 CURVE",
"477 725 LINE",
"421 706 OFFCURVE",
"382 665 OFFCURVE",
"382 619 CURVE SMOOTH",
"382 561 OFFCURVE",
"437 554 OFFCURVE",
"437 501 CURVE SMOOTH",
"437 456 OFFCURVE",
"408 435 OFFCURVE",
"399 386 CURVE",
"376 404 OFFCURVE",
"361 438 OFFCURVE",
"361 494 CURVE",
"283 494 LINE",
"281 405 OFFCURVE",
"249 371 OFFCURVE",
"201 371 CURVE SMOOTH",
"150 371 OFFCURVE",
"124 415 OFFCURVE",
"122 494 CURVE",
"44 494 LINE",
"50 350 OFFCURVE",
"94 305 OFFCURVE",
"191 305 CURVE SMOOTH",
"233 305 OFFCURVE",
"288 327 OFFCURVE",
"318 395 CURVE",
"322 395 LINE",
"336 347 OFFCURVE",
"368 323 OFFCURVE",
"403 312 CURVE",
"414 272 OFFCURVE",
"437 247 OFFCURVE",
"437 213 CURVE SMOOTH",
"437 173 OFFCURVE",
"377 146 OFFCURVE",
"377 89 CURVE SMOOTH",
"377 42 OFFCURVE",
"423 13 OFFCURVE",
"476 -11 CURVE"
);
}
);
width = 905;
}
);
unicode = A53A;
},
{
glyphname = uA53B;
lastChange = "2017-01-31 20:33:09 +0000";
layers = (
{
layerId = UUID0;
paths = (
{
closed = 1;
nodes = (
"339 -10 OFFCURVE",
"422 50 OFFCURVE",
"422 183 CURVE SMOOTH",
"422 263 OFFCURVE",
"371 320 OFFCURVE",
"339 333 CURVE",
"340 337 LINE",
"373 329 OFFCURVE",
"432 328 OFFCURVE",
"498 328 CURVE SMOOTH",
"512 328 LINE",
"512 244 LINE",
"590 244 LINE",
"590 486 LINE",
"512 486 LINE",
"512 396 LINE",
"498 396 LINE SMOOTH",
"432 396 OFFCURVE",
"376 394 OFFCURVE",
"340 387 CURVE",
"339 391 LINE",
"371 404 OFFCURVE",
"418 466 OFFCURVE",
"418 534 CURVE",
"418 664 OFFCURVE",
"334 725 OFFCURVE",
"249 725 CURVE SMOOTH",
"167 725 OFFCURVE",
"81 664 OFFCURVE",
"81 534 CURVE SMOOTH",
"81 450 OFFCURVE",
"131 381 OFFCURVE",
"188 361 CURVE",
"188 357 LINE",
"132 335 OFFCURVE",
"77 272 OFFCURVE",
"77 183 CURVE SMOOTH",
"77 50 OFFCURVE",
"158 -10 OFFCURVE",
"249 -10 CURVE SMOOTH"
);
},
{
closed = 1;
nodes = (
"193 58 OFFCURVE",
"155 93 OFFCURVE",
"155 183 CURVE SMOOTH",
"155 273 OFFCURVE",
"198 329 OFFCURVE",
"249 329 CURVE SMOOTH",
"301 329 OFFCURVE",
"344 273 OFFCURVE",
"344 183 CURVE",
"344 93 OFFCURVE",
"304 58 OFFCURVE",
"249 58 CURVE SMOOTH"
);
},
{
closed = 1;
nodes = (
"197 394 OFFCURVE",
"159 448 OFFCURVE",
"159 534 CURVE SMOOTH",
"159 620 OFFCURVE",
"201 657 OFFCURVE",
"249 657 CURVE SMOOTH",
"299 657 OFFCURVE",
"340 620 OFFCURVE",
"340 534 CURVE",
"340 448 OFFCURVE",
"301 394 OFFCURVE",
"249 394 CURVE SMOOTH"
);
},
{
closed = 1;
nodes = (
"719 244 LINE",
"719 486 LINE",
"641 486 LINE",
"641 244 LINE"
);
}
);
width = 763;
}
);
unicode = A53B;
},
{
glyphname = uA53C;
lastChange = "2017-01-31 20:33:09 +0000";
layers = (
{
layerId = UUID0;
paths = (
{
closed = 1;
nodes = (
"339 -10 OFFCURVE",
"422 50 OFFCURVE",
"422 183 CURVE SMOOTH",
"422 263 OFFCURVE",
"371 320 OFFCURVE",
"339 333 CURVE",
"340 337 LINE",
"373 329 OFFCURVE",
"432 328 OFFCURVE",
"498 328 CURVE SMOOTH",
"582 328 LINE",
"582 244 LINE",
"660 244 LINE",
"660 486 LINE",
"582 486 LINE",
"582 396 LINE",
"498 396 LINE SMOOTH",
"432 396 OFFCURVE",
"376 394 OFFCURVE",
"340 387 CURVE",
"339 391 LINE",
"371 404 OFFCURVE",
"418 466 OFFCURVE",
"418 534 CURVE",
"418 664 OFFCURVE",
"334 725 OFFCURVE",
"249 725 CURVE SMOOTH",
"167 725 OFFCURVE",
"81 664 OFFCURVE",
"81 534 CURVE SMOOTH",
"81 450 OFFCURVE",
"131 381 OFFCURVE",
"188 361 CURVE",
"188 357 LINE",
"132 335 OFFCURVE",
"77 272 OFFCURVE",
"77 183 CURVE SMOOTH",
"77 50 OFFCURVE",
"158 -10 OFFCURVE",
"249 -10 CURVE SMOOTH"
);
},
{
closed = 1;
nodes = (
"193 58 OFFCURVE",
"155 93 OFFCURVE",
"155 183 CURVE SMOOTH",
"155 273 OFFCURVE",
"198 329 OFFCURVE",
"249 329 CURVE SMOOTH",
"301 329 OFFCURVE",
"344 273 OFFCURVE",
"344 183 CURVE SMOOTH",
"344 93 OFFCURVE",
"304 58 OFFCURVE",
"249 58 CURVE SMOOTH"
);
},
{
closed = 1;
nodes = (
"528 153 OFFCURVE",
"548 171 OFFCURVE",
"548 203 CURVE SMOOTH",
"548 234 OFFCURVE",
"527 253 OFFCURVE",
"498 253 CURVE SMOOTH",
"469 253 OFFCURVE",
"448 234 OFFCURVE",
"448 203 CURVE SMOOTH",
"448 171 OFFCURVE",
"466 153 OFFCURVE",
"498 153 CURVE SMOOTH"
);
},
{
closed = 1;
nodes = (
"197 394 OFFCURVE",
"159 448 OFFCURVE",
"159 534 CURVE SMOOTH",
"159 620 OFFCURVE",
"201 657 OFFCURVE",
"249 657 CURVE SMOOTH",
"299 657 OFFCURVE",
"340 620 OFFCURVE",
"340 534 CURVE SMOOTH",
"340 448 OFFCURVE",
"301 394 OFFCURVE",
"249 394 CURVE SMOOTH"
);
},
{
closed = 1;
nodes = (
"528 471 OFFCURVE",
"548 489 OFFCURVE",
"548 521 CURVE SMOOTH",
"548 552 OFFCURVE",
"527 571 OFFCURVE",
"498 571 CURVE SMOOTH",
"469 571 OFFCURVE",
"448 552 OFFCURVE",
"448 521 CURVE SMOOTH",
"448 489 OFFCURVE",
"466 471 OFFCURVE",
"498 471 CURVE SMOOTH"
);
},
{
closed = 1;
nodes = (
"789 244 LINE",
"789 486 LINE",
"711 486 LINE",
"711 244 LINE"
);
}
);
width = 833;
}
);
unicode = A53C;
},
{
glyphname = uA53D;
lastChange = "2017-01-31 20:33:09 +0000";
layers = (
{
layerId = UUID0;
paths = (
{
closed = 1;
nodes = (
"627 52 LINE",
"329 197 LINE",
"610 367 LINE",
"342 527 LINE",
"626 662 LINE",
"594 724 LINE",
"179 534 LINE",
"465 366 LINE",
"175 183 LINE",
"594 -10 LINE"
);
},
{
closed = 1;
nodes = (
"206 258 OFFCURVE",
"253 297 OFFCURVE",
"253 365 CURVE SMOOTH",
"253 430 OFFCURVE",
"205 469 OFFCURVE",
"142 469 CURVE SMOOTH",
"77 469 OFFCURVE",
"33 430 OFFCURVE",
"33 364 CURVE SMOOTH",
"33 297 OFFCURVE",
"77 258 OFFCURVE",
"142 258 CURVE SMOOTH"
);
},
{
closed = 1;
nodes = (
"110 314 OFFCURVE",
"92 332 OFFCURVE",
"92 364 CURVE SMOOTH",
"92 395 OFFCURVE",
"113 414 OFFCURVE",
"142 414 CURVE SMOOTH",
"171 414 OFFCURVE",
"192 395 OFFCURVE",
"192 364 CURVE SMOOTH",
"192 332 OFFCURVE",
"172 314 OFFCURVE",
"142 314 CURVE SMOOTH"
);
}
);
width = 682;
}
);
unicode = A53D;
},
{
glyphname = uA53E;
lastChange = "2017-01-31 20:33:09 +0000";
layers = (
{
layerId = UUID0;
paths = (
{
closed = 1;
nodes = (
"627 52 LINE",
"329 197 LINE",
"610 367 LINE",
"342 527 LINE",
"626 662 LINE",
"594 724 LINE",
"179 534 LINE",
"465 366 LINE",
"175 183 LINE",
"594 -10 LINE"
);
},
{
closed = 1;
nodes = (
"206 258 OFFCURVE",
"253 297 OFFCURVE",
"253 365 CURVE SMOOTH",
"253 430 OFFCURVE",
"205 469 OFFCURVE",
"142 469 CURVE SMOOTH",
"77 469 OFFCURVE",
"33 430 OFFCURVE",
"33 364 CURVE SMOOTH",
"33 297 OFFCURVE",
"77 258 OFFCURVE",
"142 258 CURVE SMOOTH"
);
},
{
closed = 1;
nodes = (
"110 314 OFFCURVE",
"92 332 OFFCURVE",
"92 364 CURVE SMOOTH",
"92 395 OFFCURVE",
"113 414 OFFCURVE",
"142 414 CURVE SMOOTH",
"171 414 OFFCURVE",
"192 395 OFFCURVE",
"192 364 CURVE SMOOTH",
"192 332 OFFCURVE",
"172 314 OFFCURVE",
"142 314 CURVE SMOOTH"
);
},
{
closed = 1;
nodes = (
"720 314 OFFCURVE",
"740 332 OFFCURVE",
"740 364 CURVE SMOOTH",
"740 395 OFFCURVE",
"719 414 OFFCURVE",
"690 414 CURVE SMOOTH",
"661 414 OFFCURVE",
"640 395 OFFCURVE",
"640 364 CURVE SMOOTH",
"640 332 OFFCURVE",
"658 314 OFFCURVE",
"690 314 CURVE SMOOTH"
);
}
);
width = 773;
}
);
unicode = A53E;
},
{
glyphname = uA53F;
lastChange = "2017-01-31 20:33:09 +0000";
layers = (
{
layerId = UUID0;
paths = (
{
closed = 1;
nodes = (
"351 -10 OFFCURVE",
"443 60 OFFCURVE",
"443 176 CURVE SMOOTH",
"443 293 OFFCURVE",
"369 352 OFFCURVE",
"284 352 CURVE SMOOTH",
"233 352 OFFCURVE",
"190 327 OFFCURVE",
"161 296 CURVE",
"158 297 LINE",
"165 388 OFFCURVE",
"180 462 OFFCURVE",
"203 525 CURVE",
"493 525 LINE",
"493 594 LINE",
"234 594 LINE",
"243 612 OFFCURVE",
"253 629 OFFCURVE",
"264 645 CURVE",
"573 645 LINE",
"573 714 LINE",
"231 714 LINE",
"150 623 OFFCURVE",
"77 458 OFFCURVE",
"77 181 CURVE SMOOTH",
"77 44 OFFCURVE",
"159 -10 OFFCURVE",
"242 -10 CURVE SMOOTH"
);
},
{
closed = 1;
nodes = (
"161 56 OFFCURVE",
"155 156 OFFCURVE",
"155 225 CURVE",
"177 257 OFFCURVE",
"213 286 OFFCURVE",
"267 286 CURVE SMOOTH",
"340 286 OFFCURVE",
"366 229 OFFCURVE",
"366 176 CURVE SMOOTH",
"366 103 OFFCURVE",
"312 56 OFFCURVE",
"255 56 CURVE SMOOTH"
);
}
);
width = 606;
}
);
unicode = A53F;
},
{
glyphname = uA540;
lastChange = "2017-01-31 20:33:09 +0000";
layers = (
{
layerId = UUID0;
paths = (
{
closed = 1;
nodes = (
"228 265 OFFCURVE",
"283 287 OFFCURVE",
"313 355 CURVE",
"317 355 LINE",
"338 285 OFFCURVE",
"397 265 OFFCURVE",
"448 265 CURVE SMOOTH",
"499 265 OFFCURVE",
"548 285 OFFCURVE",
"574 355 CURVE",
"578 355 LINE",
"608 287 OFFCURVE",
"668 265 OFFCURVE",
"710 265 CURVE SMOOTH",
"785 265 OFFCURVE",
"846 320 OFFCURVE",
"873 394 CURVE",
"812 425 LINE",
"798 385 OFFCURVE",
"757 336 OFFCURVE",
"710 336 CURVE",
"666 336 OFFCURVE",
"618 367 OFFCURVE",
"618 463 CURVE SMOOTH",
"618 494 LINE",
"540 494 LINE",
"540 463 LINE SMOOTH",
"540 367 OFFCURVE",
"504 331 OFFCURVE",
"448 331 CURVE SMOOTH",
"392 331 OFFCURVE",
"356 367 OFFCURVE",
"356 463 CURVE SMOOTH",
"356 494 LINE",
"278 494 LINE",
"278 463 LINE SMOOTH",
"278 367 OFFCURVE",
"246 336 OFFCURVE",
"196 336 CURVE SMOOTH",
"149 336 OFFCURVE",
"108 385 OFFCURVE",
"94 425 CURVE",
"33 394 LINE",
"60 320 OFFCURVE",
"118 265 OFFCURVE",
"186 265 CURVE SMOOTH"
);
}
);
width = 906;
}
);
unicode = A540;
},
{
glyphname = uA541;
lastChange = "2017-01-31 20:33:09 +0000";
layers = (
{
layerId = UUID0;
paths = (
{
closed = 1;
nodes = (
"228 265 OFFCURVE",
"283 287 OFFCURVE",
"313 355 CURVE",
"317 355 LINE",
"338 285 OFFCURVE",
"397 265 OFFCURVE",
"448 265 CURVE SMOOTH",
"499 265 OFFCURVE",
"548 285 OFFCURVE",
"574 355 CURVE",
"578 355 LINE",
"608 287 OFFCURVE",
"668 265 OFFCURVE",
"710 265 CURVE SMOOTH",
"785 265 OFFCURVE",
"846 320 OFFCURVE",
"873 394 CURVE",
"812 425 LINE",
"798 385 OFFCURVE",
"757 336 OFFCURVE",
"710 336 CURVE SMOOTH",
"666 336 OFFCURVE",
"618 367 OFFCURVE",
"618 463 CURVE SMOOTH",
"618 494 LINE",
"540 494 LINE",
"540 463 LINE SMOOTH",
"540 367 OFFCURVE",
"504 331 OFFCURVE",
"448 331 CURVE SMOOTH",
"392 331 OFFCURVE",
"356 367 OFFCURVE",
"356 463 CURVE SMOOTH",
"356 494 LINE",
"278 494 LINE",
"278 463 LINE SMOOTH",
"278 367 OFFCURVE",
"246 336 OFFCURVE",
"196 336 CURVE SMOOTH",
"149 336 OFFCURVE",
"108 385 OFFCURVE",
"94 425 CURVE",
"33 394 LINE",
"60 320 OFFCURVE",
"118 265 OFFCURVE",
"186 265 CURVE SMOOTH"
);
},
{
closed = 1;
nodes = (
"346 535 OFFCURVE",
"366 553 OFFCURVE",
"366 585 CURVE SMOOTH",
"366 616 OFFCURVE",
"345 635 OFFCURVE",
"316 635 CURVE SMOOTH",
"287 635 OFFCURVE",
"266 616 OFFCURVE",
"266 585 CURVE SMOOTH",
"266 553 OFFCURVE",
"284 535 OFFCURVE",
"316 535 CURVE SMOOTH"
);
},
{
closed = 1;
nodes = (
"609 535 OFFCURVE",
"629 553 OFFCURVE",
"629 585 CURVE SMOOTH",
"629 616 OFFCURVE",
"608 635 OFFCURVE",
"579 635 CURVE SMOOTH",
"550 635 OFFCURVE",
"529 616 OFFCURVE",
"529 585 CURVE SMOOTH",
"529 553 OFFCURVE",
"547 535 OFFCURVE",
"579 535 CURVE SMOOTH"
);
}
);
width = 906;
}
);
unicode = A541;
},
{
glyphname = uA542;
lastChange = "2017-01-31 20:33:09 +0000";
layers = (
{
layerId = UUID0;
paths = (
{
closed = 1;
nodes = (
"228 265 OFFCURVE",
"283 287 OFFCURVE",
"313 355 CURVE",
"317 355 LINE",
"338 285 OFFCURVE",
"397 265 OFFCURVE",
"448 265 CURVE SMOOTH",
"499 265 OFFCURVE",
"548 285 OFFCURVE",
"574 355 CURVE",
"578 355 LINE",
"608 287 OFFCURVE",
"668 265 OFFCURVE",
"710 265 CURVE SMOOTH",
"785 265 OFFCURVE",
"846 320 OFFCURVE",
"873 394 CURVE",
"812 425 LINE",
"798 385 OFFCURVE",
"757 336 OFFCURVE",
"710 336 CURVE SMOOTH",
"666 336 OFFCURVE",
"618 367 OFFCURVE",
"618 463 CURVE SMOOTH",
"618 494 LINE",
"540 494 LINE",
"540 463 LINE SMOOTH",
"540 367 OFFCURVE",
"504 331 OFFCURVE",
"448 331 CURVE SMOOTH",
"392 331 OFFCURVE",
"356 367 OFFCURVE",
"356 463 CURVE SMOOTH",
"356 494 LINE",
"278 494 LINE",
"278 463 LINE SMOOTH",
"278 367 OFFCURVE",
"246 336 OFFCURVE",
"196 336 CURVE SMOOTH",
"149 336 OFFCURVE",
"108 385 OFFCURVE",
"94 425 CURVE",
"33 394 LINE",
"60 320 OFFCURVE",
"118 265 OFFCURVE",
"186 265 CURVE SMOOTH"
);
},
{
closed = 1;
nodes = (
"478 115 OFFCURVE",
"498 133 OFFCURVE",
"498 165 CURVE SMOOTH",
"498 196 OFFCURVE",
"477 215 OFFCURVE",
"448 215 CURVE SMOOTH",
"419 215 OFFCURVE",
"398 196 OFFCURVE",
"398 165 CURVE SMOOTH",
"398 133 OFFCURVE",
"416 115 OFFCURVE",
"448 115 CURVE SMOOTH"
);
},
{
closed = 1;
nodes = (
"478 535 OFFCURVE",
"498 553 OFFCURVE",
"498 585 CURVE SMOOTH",
"498 616 OFFCURVE",
"477 635 OFFCURVE",
"448 635 CURVE SMOOTH",
"419 635 OFFCURVE",
"398 616 OFFCURVE",
"398 585 CURVE SMOOTH",
"398 553 OFFCURVE",
"416 535 OFFCURVE",
"448 535 CURVE SMOOTH"
);
}
);
width = 906;
}
);
unicode = A542;
},
{
glyphname = uA543;
lastChange = "2017-01-31 20:33:09 +0000";
layers = (
{
layerId = UUID0;
paths = (
{
closed = 1;
nodes = (
"358 -11 OFFCURVE",
"484 67 OFFCURVE",
"484 199 CURVE SMOOTH",
"484 320 OFFCURVE",
"399 386 OFFCURVE",
"293 386 CURVE SMOOTH",
"245 386 OFFCURVE",
"199 356 OFFCURVE",
"172 321 CURVE",
"169 323 LINE",
"212 437 OFFCURVE",
"300 572 OFFCURVE",
"391 689 CURVE",
"327 725 LINE",
"186 543 OFFCURVE",
"66 343 OFFCURVE",
"66 186 CURVE SMOOTH",
"66 65 OFFCURVE",
"141 -11 OFFCURVE",
"260 -11 CURVE SMOOTH"
);
},
{
closed = 1;
nodes = (
"189 57 OFFCURVE",
"144 107 OFFCURVE",
"144 186 CURVE",
"144 205 OFFCURVE",
"145 218 OFFCURVE",
"148 237 CURVE",
"173 279 OFFCURVE",
"227 318 OFFCURVE",
"292 318 CURVE SMOOTH",
"354 318 OFFCURVE",
"406 278 OFFCURVE",
"406 199 CURVE SMOOTH",
"406 106 OFFCURVE",
"332 57 OFFCURVE",
"260 57 CURVE SMOOTH"
);
}
);
width = 528;
}
);
unicode = A543;
},
{
glyphname = uA544;
lastChange = "2017-01-31 20:33:09 +0000";
layers = (
{
layerId = UUID0;
paths = (
{
closed = 1;
nodes = (
"358 -11 OFFCURVE",
"484 67 OFFCURVE",
"484 199 CURVE SMOOTH",
"484 320 OFFCURVE",
"399 386 OFFCURVE",
"293 386 CURVE SMOOTH",
"245 386 OFFCURVE",
"199 356 OFFCURVE",
"172 321 CURVE",
"169 323 LINE",
"212 437 OFFCURVE",
"300 572 OFFCURVE",
"391 689 CURVE",
"327 725 LINE",
"186 543 OFFCURVE",
"66 343 OFFCURVE",
"66 186 CURVE SMOOTH",
"66 65 OFFCURVE",
"141 -11 OFFCURVE",
"260 -11 CURVE SMOOTH"
);
},
{
closed = 1;
nodes = (
"189 57 OFFCURVE",
"144 107 OFFCURVE",
"144 186 CURVE",
"144 205 OFFCURVE",
"145 218 OFFCURVE",
"148 237 CURVE",
"173 279 OFFCURVE",
"227 318 OFFCURVE",
"292 318 CURVE SMOOTH",
"354 318 OFFCURVE",
"406 278 OFFCURVE",
"406 199 CURVE SMOOTH",
"406 106 OFFCURVE",
"332 57 OFFCURVE",
"260 57 CURVE SMOOTH"
);
},
{
closed = 1;
nodes = (
"304 143 OFFCURVE",
"324 161 OFFCURVE",
"324 193 CURVE SMOOTH",
"324 224 OFFCURVE",
"303 243 OFFCURVE",
"274 243 CURVE SMOOTH",
"245 243 OFFCURVE",
"224 224 OFFCURVE",
"224 193 CURVE SMOOTH",
"224 161 OFFCURVE",
"242 143 OFFCURVE",
"274 143 CURVE SMOOTH"
);
}
);
width = 528;
}
);
unicode = A544;
},
{
glyphname = uA545;
lastChange = "2017-01-31 20:33:09 +0000";
layers = (
{
layerId = UUID0;
paths = (
{
closed = 1;
nodes = (
"598 -10 OFFCURVE",
"652 81 OFFCURVE",
"652 253 CURVE SMOOTH",
"652 315 LINE",
"839 315 LINE",
"839 231 LINE",
"917 231 LINE",
"917 473 LINE",
"839 473 LINE",
"839 383 LINE",
"652 383 LINE",
"652 714 LINE",
"574 714 LINE",
"574 645 LINE SMOOTH",
"574 540 OFFCURVE",
"537 491 OFFCURVE",
"486 491 CURVE SMOOTH",
"433 491 OFFCURVE",
"392 527 OFFCURVE",
"392 621 CURVE SMOOTH",
"392 714 LINE",
"314 714 LINE",
"314 623 LINE SMOOTH",
"314 527 OFFCURVE",
"272 491 OFFCURVE",
"227 491 CURVE SMOOTH",
"169 491 OFFCURVE",
"133 540 OFFCURVE",
"133 643 CURVE SMOOTH",
"133 714 LINE",
"55 714 LINE",
"55 643 LINE SMOOTH",
"55 477 OFFCURVE",
"118 425 OFFCURVE",
"212 425 CURVE SMOOTH",
"264 425 OFFCURVE",
"319 447 OFFCURVE",
"349 515 CURVE",
"353 515 LINE",
"374 445 OFFCURVE",
"433 425 OFFCURVE",
"473 425 CURVE SMOOTH",
"505 425 OFFCURVE",
"549 443 OFFCURVE",
"570 490 CURVE",
"574 490 LINE",
"574 378 LINE",
"427 351 OFFCURVE",
"385 230 OFFCURVE",
"385 131 CURVE SMOOTH",
"385 31 OFFCURVE",
"452 -10 OFFCURVE",
"503 -10 CURVE SMOOTH"
);
},
{
closed = 1;
nodes = (
"476 58 OFFCURVE",
"453 82 OFFCURVE",
"453 133 CURVE SMOOTH",
"453 189 OFFCURVE",
"459 283 OFFCURVE",
"574 309 CURVE",
"574 253 LINE SMOOTH",
"574 106 OFFCURVE",
"548 58 OFFCURVE",
"503 58 CURVE SMOOTH"
);
},
{
closed = 1;
nodes = (
"775 165 OFFCURVE",
"795 183 OFFCURVE",
"795 215 CURVE SMOOTH",
"795 246 OFFCURVE",
"774 265 OFFCURVE",
"745 265 CURVE SMOOTH",
"716 265 OFFCURVE",
"695 246 OFFCURVE",
"695 215 CURVE SMOOTH",
"695 183 OFFCURVE",
"713 165 OFFCURVE",
"745 165 CURVE SMOOTH"
);
},
{
closed = 1;
nodes = (
"775 435 OFFCURVE",
"795 453 OFFCURVE",
"795 485 CURVE SMOOTH",
"795 516 OFFCURVE",
"774 535 OFFCURVE",
"745 535 CURVE SMOOTH",
"716 535 OFFCURVE",
"695 516 OFFCURVE",
"695 485 CURVE SMOOTH",
"695 453 OFFCURVE",
"713 435 OFFCURVE",
"745 435 CURVE SMOOTH"
);
}
);
width = 950;
}
);
unicode = A545;
},
{
glyphname = uA546;
lastChange = "2017-01-31 20:33:09 +0000";
layers = (
{
layerId = UUID0;
paths = (
{
closed = 1;
nodes = (
"734 58 LINE",
"558 58 OFFCURVE",
"466 172 OFFCURVE",
"466 356 CURVE SMOOTH",
"466 536 OFFCURVE",
"571 659 OFFCURVE",
"734 659 CURVE",
"729 727 LINE",
"522 727 OFFCURVE",
"388 577 OFFCURVE",
"388 356 CURVE SMOOTH",
"388 130 OFFCURVE",
"503 -10 OFFCURVE",
"729 -10 CURVE"
);
},
{
closed = 1;
nodes = (
"434 58 LINE",
"258 58 OFFCURVE",
"166 172 OFFCURVE",
"166 356 CURVE SMOOTH",
"166 536 OFFCURVE",
"272 659 OFFCURVE",
"434 659 CURVE",
"429 727 LINE",
"222 727 OFFCURVE",
"88 577 OFFCURVE",
"88 356 CURVE SMOOTH",
"88 130 OFFCURVE",
"203 -10 OFFCURVE",
"429 -10 CURVE"
);
}
);
width = 778;
}
);
unicode = A546;
},
{
glyphname = uA547;
lastChange = "2017-01-31 20:33:09 +0000";
layers = (
{
layerId = UUID0;
paths = (
{
closed = 1;
nodes = (
"425 1 OFFCURVE",
"496 16 OFFCURVE",
"548 41 CURVE",
"520 98 LINE",
"469 77 OFFCURVE",
"395 69 OFFCURVE",
"323 69 CURVE SMOOTH",
"216 69 OFFCURVE",
"155 90 OFFCURVE",
"155 140 CURVE SMOOTH",
"155 188 OFFCURVE",
"216 210 OFFCURVE",
"323 210 CURVE SMOOTH",
"395 210 OFFCURVE",
"450 202 OFFCURVE",
"487 175 CURVE",
"542 214 LINE",
"542 446 LINE",
"151 365 LINE",
"151 471 LINE",
"191 457 OFFCURVE",
"242 450 OFFCURVE",
"303 450 CURVE SMOOTH",
"470 450 OFFCURVE",
"549 497 OFFCURVE",
"549 584 CURVE SMOOTH",
"549 668 OFFCURVE",
"470 722 OFFCURVE",
"303 722 CURVE SMOOTH",
"201 722 OFFCURVE",
"140 707 OFFCURVE",
"88 682 CURVE",
"116 625 LINE",
"167 646 OFFCURVE",
"231 654 OFFCURVE",
"303 654 CURVE SMOOTH",
"410 654 OFFCURVE",
"471 632 OFFCURVE",
"471 584 CURVE SMOOTH",
"471 534 OFFCURVE",
"410 513 OFFCURVE",
"303 513 CURVE SMOOTH",
"226 513 OFFCURVE",
"170 523 OFFCURVE",
"134 554 CURVE",
"78 516 LINE",
"78 284 LINE",
"469 365 LINE",
"469 254 LINE",
"429 267 OFFCURVE",
"381 273 OFFCURVE",
"323 273 CURVE SMOOTH",
"156 273 OFFCURVE",
"77 224 OFFCURVE",
"77 140 CURVE SMOOTH",
"77 53 OFFCURVE",
"156 1 OFFCURVE",
"323 1 CURVE SMOOTH"
);
}
);
width = 626;
}
);
unicode = A547;
},
{
glyphname = uA548;
lastChange = "2017-01-31 20:33:09 +0000";
layers = (
{
layerId = UUID0;
paths = (
{
closed = 1;
nodes = (
"336 -10 OFFCURVE",
"396 66 OFFCURVE",
"396 193 CURVE SMOOTH",
"396 331 LINE",
"529 331 LINE",
"529 0 LINE",
"607 0 LINE",
"607 400 LINE",
"396 400 LINE",
"396 714 LINE",
"318 714 LINE",
"318 400 LINE",
"143 400 OFFCURVE",
"33 337 OFFCURVE",
"33 183 CURVE SMOOTH",
"33 51 OFFCURVE",
"101 -10 OFFCURVE",
"219 -10 CURVE SMOOTH"
);
},
{
closed = 1;
nodes = (
"153 58 OFFCURVE",
"111 112 OFFCURVE",
"111 183 CURVE SMOOTH",
"111 304 OFFCURVE",
"169 331 OFFCURVE",
"318 331 CURVE",
"318 192 LINE SMOOTH",
"318 101 OFFCURVE",
"285 58 OFFCURVE",
"219 58 CURVE SMOOTH"
);
}
);
width = 695;
}
);
unicode = A548;
},
{
glyphname = uA549;
lastChange = "2017-01-31 20:33:09 +0000";
layers = (
{
layerId = UUID0;
paths = (
{
closed = 1;
nodes = (
"311 0 LINE",
"311 289 LINE",
"411 305 OFFCURVE",
"490 383 OFFCURVE",
"490 502 CURVE SMOOTH",
"490 633 OFFCURVE",
"386 722 OFFCURVE",
"273 722 CURVE SMOOTH",
"159 722 OFFCURVE",
"56 633 OFFCURVE",
"56 502 CURVE SMOOTH",
"56 384 OFFCURVE",
"130 305 OFFCURVE",
"233 289 CURVE",
"233 0 LINE"
);
},
{
closed = 1;
nodes = (
"167 40 OFFCURVE",
"187 58 OFFCURVE",
"187 90 CURVE SMOOTH",
"187 121 OFFCURVE",
"166 140 OFFCURVE",
"137 140 CURVE SMOOTH",
"108 140 OFFCURVE",
"87 121 OFFCURVE",
"87 90 CURVE SMOOTH",
"87 58 OFFCURVE",
"105 40 OFFCURVE",
"137 40 CURVE SMOOTH"
);
},
{
closed = 1;
nodes = (
"167 175 OFFCURVE",
"187 193 OFFCURVE",
"187 225 CURVE SMOOTH",
"187 256 OFFCURVE",
"166 275 OFFCURVE",
"137 275 CURVE SMOOTH",
"108 275 OFFCURVE",
"87 256 OFFCURVE",
"87 225 CURVE SMOOTH",
"87 193 OFFCURVE",
"105 175 OFFCURVE",
"137 175 CURVE SMOOTH"
);
},
{
closed = 1;
nodes = (
"438 40 OFFCURVE",
"458 58 OFFCURVE",
"458 90 CURVE SMOOTH",
"458 121 OFFCURVE",
"437 140 OFFCURVE",
"408 140 CURVE SMOOTH",
"379 140 OFFCURVE",
"358 121 OFFCURVE",
"358 90 CURVE SMOOTH",
"358 58 OFFCURVE",
"376 40 OFFCURVE",
"408 40 CURVE SMOOTH"
);
},
{
closed = 1;
nodes = (
"438 175 OFFCURVE",
"458 193 OFFCURVE",
"458 225 CURVE SMOOTH",
"458 256 OFFCURVE",
"437 275 OFFCURVE",
"408 275 CURVE SMOOTH",
"379 275 OFFCURVE",
"358 256 OFFCURVE",
"358 225 CURVE SMOOTH",
"358 193 OFFCURVE",
"376 175 OFFCURVE",
"408 175 CURVE SMOOTH"
);
},
{
closed = 1;
nodes = (
"196 354 OFFCURVE",
"134 411 OFFCURVE",
"134 502 CURVE SMOOTH",
"134 593 OFFCURVE",
"202 654 OFFCURVE",
"273 654 CURVE SMOOTH",
"343 654 OFFCURVE",
"412 593 OFFCURVE",
"412 502 CURVE SMOOTH",
"412 411 OFFCURVE",
"346 354 OFFCURVE",
"273 354 CURVE SMOOTH"
);
}
);
width = 546;
}
);
unicode = A549;
},
{
glyphname = uA54A;
lastChange = "2017-01-31 20:33:09 +0000";
layers = (
{
layerId = UUID0;
paths = (
{
closed = 1;
nodes = (
"305 135 OFFCURVE",
"334 143 OFFCURVE",
"361 157 CURVE",
"390 143 OFFCURVE",
"421 135 OFFCURVE",
"453 135 CURVE SMOOTH",
"569 135 OFFCURVE",
"637 176 OFFCURVE",
"695 326 CURVE",
"639 355 LINE",
"592 234 OFFCURVE",
"534 203 OFFCURVE",
"453 203 CURVE",
"443 203 OFFCURVE",
"429 204 OFFCURVE",
"419 206 CURVE",
"474 263 OFFCURVE",
"515 348 OFFCURVE",
"515 436 CURVE SMOOTH",
"515 568 OFFCURVE",
"455 644 OFFCURVE",
"359 644 CURVE SMOOTH",
"263 644 OFFCURVE",
"203 543 OFFCURVE",
"203 436 CURVE SMOOTH",
"203 340 OFFCURVE",
"245 258 OFFCURVE",
"300 204 CURVE",
"294 203 OFFCURVE",
"282 203 OFFCURVE",
"275 203 CURVE SMOOTH",
"194 203 OFFCURVE",
"128 234 OFFCURVE",
"84 355 CURVE",
"23 324 LINE",
"78 174 OFFCURVE",
"159 135 OFFCURVE",
"275 135 CURVE SMOOTH"
);
},
{
closed = 1;
nodes = (
"317 269 OFFCURVE",
"281 355 OFFCURVE",
"281 436 CURVE SMOOTH",
"281 507 OFFCURVE",
"305 576 OFFCURVE",
"359 576 CURVE SMOOTH",
"413 576 OFFCURVE",
"437 507 OFFCURVE",
"437 436 CURVE SMOOTH",
"437 355 OFFCURVE",
"414 269 OFFCURVE",
"367 227 CURVE"
);
}
);
width = 718;
}
);
unicode = A54A;
},
{
glyphname = uA54B;
lastChange = "2017-01-31 20:33:09 +0000";
layers = (
{
layerId = UUID0;
paths = (
{
closed = 1;
nodes = (
"305 135 OFFCURVE",
"334 143 OFFCURVE",
"361 157 CURVE",
"390 143 OFFCURVE",
"421 135 OFFCURVE",
"453 135 CURVE SMOOTH",
"569 135 OFFCURVE",
"637 176 OFFCURVE",
"695 326 CURVE",
"639 355 LINE",
"592 234 OFFCURVE",
"534 203 OFFCURVE",
"453 203 CURVE",
"443 203 OFFCURVE",
"429 204 OFFCURVE",
"419 206 CURVE",
"474 263 OFFCURVE",
"515 348 OFFCURVE",
"515 436 CURVE SMOOTH",
"515 568 OFFCURVE",
"455 644 OFFCURVE",
"359 644 CURVE SMOOTH",
"263 644 OFFCURVE",
"203 543 OFFCURVE",
"203 436 CURVE SMOOTH",
"203 340 OFFCURVE",
"245 258 OFFCURVE",
"300 204 CURVE",
"294 203 OFFCURVE",
"282 203 OFFCURVE",
"275 203 CURVE SMOOTH",
"194 203 OFFCURVE",
"128 234 OFFCURVE",
"84 355 CURVE",
"23 324 LINE",
"78 174 OFFCURVE",
"159 135 OFFCURVE",
"275 135 CURVE SMOOTH"
);
},
{
closed = 1;
nodes = (
"676 0 OFFCURVE",
"696 18 OFFCURVE",
"696 50 CURVE SMOOTH",
"696 81 OFFCURVE",
"675 100 OFFCURVE",
"646 100 CURVE SMOOTH",
"617 100 OFFCURVE",
"596 81 OFFCURVE",
"596 50 CURVE SMOOTH",
"596 18 OFFCURVE",
"614 0 OFFCURVE",
"646 0 CURVE SMOOTH"
);
},
{
closed = 1;
nodes = (
"317 269 OFFCURVE",
"281 355 OFFCURVE",
"281 436 CURVE SMOOTH",
"281 507 OFFCURVE",
"305 576 OFFCURVE",
"359 576 CURVE SMOOTH",
"413 576 OFFCURVE",
"437 507 OFFCURVE",
"437 436 CURVE SMOOTH",
"437 355 OFFCURVE",
"414 269 OFFCURVE",
"367 227 CURVE"
);
},
{
closed = 1;
nodes = (
"676 449 OFFCURVE",
"696 467 OFFCURVE",
"696 499 CURVE SMOOTH",
"696 530 OFFCURVE",
"675 549 OFFCURVE",
"646 549 CURVE SMOOTH",
"617 549 OFFCURVE",
"596 530 OFFCURVE",
"596 499 CURVE SMOOTH",
"596 467 OFFCURVE",
"614 449 OFFCURVE",
"646 449 CURVE SMOOTH"
);
}
);
width = 740;
}
);
unicode = A54B;
},
{
glyphname = uA54C;
lastChange = "2017-01-31 20:33:09 +0000";
layers = (
{
layerId = UUID0;
paths = (
{
closed = 1;
nodes = (
"372 0 LINE",
"372 480 LINE",
"376 480 LINE",
"399 433 OFFCURVE",
"443 425 OFFCURVE",
"464 425 CURVE SMOOTH",
"489 425 OFFCURVE",
"525 435 OFFCURVE",
"552 480 CURVE",
"556 480 LINE",
"556 0 LINE",
"634 0 LINE",
"634 480 LINE",
"638 480 LINE",
"661 433 OFFCURVE",
"705 425 OFFCURVE",
"726 425 CURVE SMOOTH",
"820 425 OFFCURVE",
"873 477 OFFCURVE",
"873 646 CURVE SMOOTH",
"873 714 LINE",
"795 714 LINE",
"795 645 LINE SMOOTH",
"795 540 OFFCURVE",
"769 491 OFFCURVE",
"716 491 CURVE SMOOTH",
"666 491 OFFCURVE",
"634 527 OFFCURVE",
"634 623 CURVE SMOOTH",
"634 714 LINE",
"556 714 LINE",
"556 623 LINE SMOOTH",
"556 527 OFFCURVE",
"520 491 OFFCURVE",
"464 491 CURVE SMOOTH",
"408 491 OFFCURVE",
"372 527 OFFCURVE",
"372 623 CURVE SMOOTH",
"372 714 LINE",
"294 714 LINE",
"294 623 LINE SMOOTH",
"294 527 OFFCURVE",
"262 491 OFFCURVE",
"212 491 CURVE SMOOTH",
"159 491 OFFCURVE",
"133 540 OFFCURVE",
"133 645 CURVE SMOOTH",
"133 714 LINE",
"55 714 LINE",
"55 646 LINE SMOOTH",
"55 477 OFFCURVE",
"108 425 OFFCURVE",
"202 425 CURVE SMOOTH",
"227 425 OFFCURVE",
"263 435 OFFCURVE",
"290 480 CURVE",
"294 480 LINE",
"294 0 LINE"
);
}
);
width = 928;
}
);
unicode = A54C;
},
{
glyphname = uA54D;
lastChange = "2017-01-31 20:33:09 +0000";
layers = (
{
layerId = UUID0;
paths = (
{
closed = 1;
nodes = (
"372 0 LINE",
"372 380 LINE",
"376 380 LINE",
"399 333 OFFCURVE",
"443 325 OFFCURVE",
"464 325 CURVE SMOOTH",
"489 325 OFFCURVE",
"525 335 OFFCURVE",
"552 380 CURVE",
"556 380 LINE",
"556 0 LINE",
"634 0 LINE",
"634 380 LINE",
"638 380 LINE",
"661 333 OFFCURVE",
"705 325 OFFCURVE",
"726 325 CURVE SMOOTH",
"820 325 OFFCURVE",
"873 377 OFFCURVE",
"873 546 CURVE SMOOTH",
"873 614 LINE",
"795 614 LINE",
"795 545 LINE SMOOTH",
"795 440 OFFCURVE",
"769 391 OFFCURVE",
"716 391 CURVE SMOOTH",
"666 391 OFFCURVE",
"634 427 OFFCURVE",
"634 523 CURVE SMOOTH",
"634 614 LINE",
"556 614 LINE",
"556 523 LINE SMOOTH",
"556 427 OFFCURVE",
"520 391 OFFCURVE",
"464 391 CURVE SMOOTH",
"408 391 OFFCURVE",
"372 427 OFFCURVE",
"372 523 CURVE SMOOTH",
"372 614 LINE",
"294 614 LINE",
"294 523 LINE SMOOTH",
"294 427 OFFCURVE",
"262 391 OFFCURVE",
"212 391 CURVE SMOOTH",
"159 391 OFFCURVE",
"133 440 OFFCURVE",
"133 545 CURVE SMOOTH",
"133 614 LINE",
"55 614 LINE",
"55 546 LINE SMOOTH",
"55 377 OFFCURVE",
"108 325 OFFCURVE",
"202 325 CURVE SMOOTH",
"227 325 OFFCURVE",
"263 335 OFFCURVE",
"290 380 CURVE",
"294 380 LINE",
"294 0 LINE"
);
},
{
closed = 1;
nodes = (
"492 112 OFFCURVE",
"512 130 OFFCURVE",
"512 162 CURVE SMOOTH",
"512 193 OFFCURVE",
"491 212 OFFCURVE",
"462 212 CURVE SMOOTH",
"433 212 OFFCURVE",
"412 193 OFFCURVE",
"412 162 CURVE SMOOTH",
"412 130 OFFCURVE",
"430 112 OFFCURVE",
"462 112 CURVE SMOOTH"
);
},
{
closed = 1;
nodes = (
"492 621 OFFCURVE",
"512 639 OFFCURVE",
"512 671 CURVE SMOOTH",
"512 702 OFFCURVE",
"491 721 OFFCURVE",
"462 721 CURVE SMOOTH",
"433 721 OFFCURVE",
"412 702 OFFCURVE",
"412 671 CURVE SMOOTH",
"412 639 OFFCURVE",
"430 621 OFFCURVE",
"462 621 CURVE SMOOTH"
);
}
);
width = 928;
}
);
unicode = A54D;
},
{
glyphname = uA54E;
lastChange = "2017-01-31 20:33:09 +0000";
layers = (
{
layerId = UUID0;
paths = (
{
closed = 1;
nodes = (
"653 -11 OFFCURVE",
"735 59 OFFCURVE",
"768 172 CURVE",
"701 189 LINE",
"677 106 OFFCURVE",
"627 57 OFFCURVE",
"555 57 CURVE SMOOTH",
"484 57 OFFCURVE",
"439 107 OFFCURVE",
"439 186 CURVE SMOOTH",
"439 329 OFFCURVE",
"554 519 OFFCURVE",
"686 689 CURVE",
"622 725 LINE",
"563 649 OFFCURVE",
"508 570 OFFCURVE",
"464 493 CURVE",
"422 502 OFFCURVE",
"392 540 OFFCURVE",
"392 621 CURVE SMOOTH",
"392 714 LINE",
"314 714 LINE",
"314 623 LINE SMOOTH",
"314 527 OFFCURVE",
"272 491 OFFCURVE",
"227 491 CURVE SMOOTH",
"169 491 OFFCURVE",
"133 540 OFFCURVE",
"133 643 CURVE SMOOTH",
"133 714 LINE",
"55 714 LINE",
"55 643 LINE SMOOTH",
"55 477 OFFCURVE",
"118 425 OFFCURVE",
"212 425 CURVE SMOOTH",
"264 425 OFFCURVE",
"319 447 OFFCURVE",
"349 515 CURVE",
"353 515 LINE",
"367 467 OFFCURVE",
"399 442 OFFCURVE",
"431 432 CURVE",
"387 345 OFFCURVE",
"361 260 OFFCURVE",
"361 186 CURVE SMOOTH",
"361 65 OFFCURVE",
"436 -11 OFFCURVE",
"555 -11 CURVE SMOOTH"
);
}
);
width = 801;
}
);
unicode = A54E;
},
{
glyphname = uA54F;
lastChange = "2017-01-31 20:33:09 +0000";
layers = (
{
layerId = UUID0;
paths = (
{
closed = 1;
nodes = (
"652 0 LINE",
"652 58 LINE",
"666 77 OFFCURVE",
"692 86 OFFCURVE",
"721 86 CURVE SMOOTH",
"775 86 OFFCURVE",
"810 50 OFFCURVE",
"810 0 CURVE",
"888 0 LINE",
"888 100 OFFCURVE",
"825 152 OFFCURVE",
"731 152 CURVE SMOOTH",
"702 152 OFFCURVE",
"676 141 OFFCURVE",
"657 129 CURVE",
"652 129 LINE",
"652 257 LINE",
"666 276 OFFCURVE",
"692 285 OFFCURVE",
"721 285 CURVE SMOOTH",
"775 285 OFFCURVE",
"810 255 OFFCURVE",
"810 199 CURVE",
"888 199 LINE",
"888 293 OFFCURVE",
"825 351 OFFCURVE",
"731 351 CURVE SMOOTH",
"702 351 OFFCURVE",
"676 340 OFFCURVE",
"657 328 CURVE",
"652 328 LINE",
"652 714 LINE",
"574 714 LINE",
"574 645 LINE SMOOTH",
"574 540 OFFCURVE",
"537 491 OFFCURVE",
"486 491 CURVE SMOOTH",
"433 491 OFFCURVE",
"392 527 OFFCURVE",
"392 621 CURVE SMOOTH",
"392 714 LINE",
"314 714 LINE",
"314 623 LINE SMOOTH",
"314 527 OFFCURVE",
"272 491 OFFCURVE",
"227 491 CURVE SMOOTH",
"169 491 OFFCURVE",
"133 540 OFFCURVE",
"133 643 CURVE SMOOTH",
"133 714 LINE",
"55 714 LINE",
"55 643 LINE SMOOTH",
"55 477 OFFCURVE",
"118 425 OFFCURVE",
"212 425 CURVE SMOOTH",
"264 425 OFFCURVE",
"319 447 OFFCURVE",
"349 515 CURVE",
"353 515 LINE",
"374 445 OFFCURVE",
"433 425 OFFCURVE",
"473 425 CURVE SMOOTH",
"505 425 OFFCURVE",
"549 443 OFFCURVE",
"570 490 CURVE",
"574 490 LINE",
"574 0 LINE"
);
}
);
width = 932;
}
);
unicode = A54F;
},
{
glyphname = uA550;
lastChange = "2017-01-31 20:33:09 +0000";
layers = (
{
layerId = UUID0;
paths = (
{
closed = 1;
nodes = (
"652 0 LINE",
"652 714 LINE",
"574 714 LINE",
"574 645 LINE SMOOTH",
"574 540 OFFCURVE",
"537 491 OFFCURVE",
"486 491 CURVE SMOOTH",
"433 491 OFFCURVE",
"392 527 OFFCURVE",
"392 621 CURVE SMOOTH",
"392 714 LINE",
"314 714 LINE",
"314 623 LINE SMOOTH",
"314 527 OFFCURVE",
"272 491 OFFCURVE",
"227 491 CURVE SMOOTH",
"169 491 OFFCURVE",
"133 540 OFFCURVE",
"133 643 CURVE SMOOTH",
"133 714 LINE",
"55 714 LINE",
"55 643 LINE SMOOTH",
"55 477 OFFCURVE",
"118 425 OFFCURVE",
"212 425 CURVE SMOOTH",
"264 425 OFFCURVE",
"319 447 OFFCURVE",
"349 515 CURVE",
"353 515 LINE",
"374 445 OFFCURVE",
"433 425 OFFCURVE",
"473 425 CURVE SMOOTH",
"505 425 OFFCURVE",
"549 443 OFFCURVE",
"570 490 CURVE",
"574 490 LINE",
"574 0 LINE"
);
},
{
closed = 1;
nodes = (
"479 245 OFFCURVE",
"499 263 OFFCURVE",
"499 295 CURVE SMOOTH",
"499 326 OFFCURVE",
"478 345 OFFCURVE",
"449 345 CURVE SMOOTH",
"420 345 OFFCURVE",
"399 326 OFFCURVE",
"399 295 CURVE SMOOTH",
"399 263 OFFCURVE",
"417 245 OFFCURVE",
"449 245 CURVE SMOOTH"
);
},
{
closed = 1;
nodes = (
"805 245 OFFCURVE",
"825 263 OFFCURVE",
"825 295 CURVE SMOOTH",
"825 326 OFFCURVE",
"804 345 OFFCURVE",
"775 345 CURVE SMOOTH",
"746 345 OFFCURVE",
"725 326 OFFCURVE",
"725 295 CURVE SMOOTH",
"725 263 OFFCURVE",
"743 245 OFFCURVE",
"775 245 CURVE SMOOTH"
);
}
);
width = 869;
}
);
unicode = A550;
},
{
glyphname = uA551;
lastChange = "2017-01-31 20:33:09 +0000";
layers = (
{
layerId = UUID0;
paths = (
{
closed = 1;
nodes = (
"259 100 OFFCURVE",
"330 217 OFFCURVE",
"372 328 CURVE",
"446 328 LINE",
"430 274 OFFCURVE",
"421 222 OFFCURVE",
"421 176 CURVE SMOOTH",
"421 55 OFFCURVE",
"476 -11 OFFCURVE",
"595 -11 CURVE SMOOTH",
"683 -11 OFFCURVE",
"769 67 OFFCURVE",
"769 189 CURVE SMOOTH",
"769 294 OFFCURVE",
"697 373 OFFCURVE",
"548 392 CURVE",
"594 504 OFFCURVE",
"665 610 OFFCURVE",
"726 689 CURVE",
"662 725 LINE",
"580 619 OFFCURVE",
"512 504 OFFCURVE",
"469 396 CURVE",
"394 396 LINE",
"407 442 OFFCURVE",
"414 486 OFFCURVE",
"414 528 CURVE SMOOTH",
"414 649 OFFCURVE",
"349 725 OFFCURVE",
"240 725 CURVE SMOOTH",
"152 725 OFFCURVE",
"66 647 OFFCURVE",
"66 525 CURVE SMOOTH",
"66 417 OFFCURVE",
"133 347 OFFCURVE",
"293 331 CURVE",
"247 216 OFFCURVE",
"173 107 OFFCURVE",
"109 25 CURVE",
"173 -11 LINE"
);
},
{
closed = 1;
nodes = (
"183 409 OFFCURVE",
"144 456 OFFCURVE",
"144 525 CURVE SMOOTH",
"144 608 OFFCURVE",
"178 657 OFFCURVE",
"240 657 CURVE SMOOTH",
"301 657 OFFCURVE",
"336 607 OFFCURVE",
"336 528 CURVE SMOOTH",
"336 485 OFFCURVE",
"329 442 OFFCURVE",
"316 398 CURVE"
);
},
{
closed = 1;
nodes = (
"524 57 OFFCURVE",
"499 97 OFFCURVE",
"499 176 CURVE SMOOTH",
"499 224 OFFCURVE",
"508 274 OFFCURVE",
"523 324 CURVE",
"645 310 OFFCURVE",
"691 257 OFFCURVE",
"691 189 CURVE SMOOTH",
"691 106 OFFCURVE",
"657 57 OFFCURVE",
"595 57 CURVE SMOOTH"
);
}
);
width = 835;
}
);
unicode = A551;
},
{
glyphname = uA552;
lastChange = "2017-01-31 20:33:09 +0000";
layers = (
{
layerId = UUID0;
paths = (
{
closed = 1;
nodes = (
"649 0 LINE",
"649 200 LINE",
"869 200 LINE",
"869 514 LINE",
"649 514 LINE",
"649 714 LINE",
"111 714 LINE",
"111 0 LINE"
);
},
{
closed = 1;
nodes = (
"189 645 LINE",
"571 645 LINE",
"571 69 LINE",
"189 69 LINE"
);
},
{
closed = 1;
nodes = (
"408 309 OFFCURVE",
"428 327 OFFCURVE",
"428 359 CURVE SMOOTH",
"428 390 OFFCURVE",
"407 409 OFFCURVE",
"378 409 CURVE SMOOTH",
"349 409 OFFCURVE",
"328 390 OFFCURVE",
"328 359 CURVE SMOOTH",
"328 327 OFFCURVE",
"346 309 OFFCURVE",
"378 309 CURVE SMOOTH"
);
},
{
closed = 1;
nodes = (
"649 445 LINE",
"791 445 LINE",
"791 269 LINE",
"649 269 LINE"
);
}
);
width = 946;
}
);
unicode = A552;
},
{
glyphname = uA553;
lastChange = "2017-01-31 20:33:09 +0000";
layers = (
{
layerId = UUID0;
paths = (
{
closed = 1;
nodes = (
"765 0 OFFCURVE",
"817 43 OFFCURVE",
"817 126 CURVE SMOOTH",
"817 209 OFFCURVE",
"777 257 OFFCURVE",
"611 257 CURVE SMOOTH",
"549 257 LINE",
"549 645 LINE",
"612 645 LINE SMOOTH",
"715 645 OFFCURVE",
"739 624 OFFCURVE",
"739 583 CURVE SMOOTH",
"739 542 OFFCURVE",
"712 520 OFFCURVE",
"673 520 CURVE",
"673 457 LINE",
"765 457 OFFCURVE",
"817 500 OFFCURVE",
"817 583 CURVE SMOOTH",
"817 666 OFFCURVE",
"777 714 OFFCURVE",
"611 714 CURVE SMOOTH",
"111 714 LINE",
"111 188 LINE",
"612 188 LINE SMOOTH",
"715 188 OFFCURVE",
"739 167 OFFCURVE",
"739 126 CURVE SMOOTH",
"739 85 OFFCURVE",
"712 63 OFFCURVE",
"673 63 CURVE",
"673 0 LINE"
);
},
{
closed = 1;
nodes = (
"189 645 LINE",
"471 645 LINE",
"471 257 LINE",
"189 257 LINE"
);
},
{
closed = 1;
nodes = (
"357 409 OFFCURVE",
"377 427 OFFCURVE",
"377 459 CURVE SMOOTH",
"377 490 OFFCURVE",
"356 509 OFFCURVE",
"327 509 CURVE SMOOTH",
"298 509 OFFCURVE",
"277 490 OFFCURVE",
"277 459 CURVE SMOOTH",
"277 427 OFFCURVE",
"295 409 OFFCURVE",
"327 409 CURVE SMOOTH"
);
}
);
width = 894;
}
);
unicode = A553;
},
{
glyphname = uA554;
lastChange = "2017-01-31 20:33:09 +0000";
layers = (
{
layerId = UUID0;
paths = (
{
closed = 1;
nodes = (
"660 0 LINE",
"371 714 LINE",
"314 714 LINE",
"22 0 LINE"
);
},
{
closed = 1;
nodes = (
"337 594 LINE",
"542 73 LINE",
"131 73 LINE"
);
}
);
width = 682;
}
);
unicode = A554;
},
{
glyphname = uA555;
lastChange = "2017-01-31 20:33:09 +0000";
layers = (
{
layerId = UUID0;
paths = (
{
closed = 1;
nodes = (
"498 84 OFFCURVE",
"614 199 OFFCURVE",
"614 384 CURVE SMOOTH",
"614 565 OFFCURVE",
"492 687 OFFCURVE",
"324 687 CURVE SMOOTH",
"155 687 OFFCURVE",
"33 565 OFFCURVE",
"33 384 CURVE SMOOTH",
"33 199 OFFCURVE",
"139 84 OFFCURVE",
"324 84 CURVE SMOOTH"
);
},
{
closed = 1;
nodes = (
"268 152 OFFCURVE",
"222 167 OFFCURVE",
"187 195 CURVE",
"324 332 LINE",
"459 197 LINE",
"423 168 OFFCURVE",
"377 152 OFFCURVE",
"324 152 CURVE SMOOTH"
);
},
{
closed = 1;
nodes = (
"121 288 OFFCURVE",
"111 332 OFFCURVE",
"111 384 CURVE SMOOTH",
"111 433 OFFCURVE",
"122 478 OFFCURVE",
"142 514 CURVE",
"272 384 LINE",
"140 252 LINE"
);
},
{
closed = 1;
nodes = (
"376 384 LINE",
"505 513 LINE",
"524 477 OFFCURVE",
"536 433 OFFCURVE",
"536 384 CURVE SMOOTH",
"536 333 OFFCURVE",
"525 289 OFFCURVE",
"506 254 CURVE"
);
},
{
closed = 1;
nodes = (
"188 571 LINE",
"224 602 OFFCURVE",
"271 619 OFFCURVE",
"324 619 CURVE SMOOTH",
"377 619 OFFCURVE",
"423 601 OFFCURVE",
"459 570 CURVE",
"324 435 LINE"
);
}
);
width = 647;
}
);
unicode = A555;
},
{
glyphname = uA556;
lastChange = "2017-01-31 20:33:09 +0000";
layers = (
{
layerId = UUID0;
paths = (
{
closed = 1;
nodes = (
"693 0 LINE",
"404 714 LINE",
"347 714 LINE",
"55 0 LINE"
);
},
{
closed = 1;
nodes = (
"158 395 OFFCURVE",
"176 413 OFFCURVE",
"176 445 CURVE SMOOTH",
"176 476 OFFCURVE",
"155 495 OFFCURVE",
"126 495 CURVE SMOOTH",
"97 495 OFFCURVE",
"76 476 OFFCURVE",
"76 445 CURVE SMOOTH",
"76 413 OFFCURVE",
"96 395 OFFCURVE",
"126 395 CURVE SMOOTH"
);
},
{
closed = 1;
nodes = (
"370 594 LINE",
"575 73 LINE",
"164 73 LINE"
);
},
{
closed = 1;
nodes = (
"654 395 OFFCURVE",
"674 413 OFFCURVE",
"674 445 CURVE SMOOTH",
"674 476 OFFCURVE",
"653 495 OFFCURVE",
"624 495 CURVE SMOOTH",
"595 495 OFFCURVE",
"574 476 OFFCURVE",
"574 445 CURVE SMOOTH",
"574 413 OFFCURVE",
"592 395 OFFCURVE",
"624 395 CURVE SMOOTH"
);
}
);
width = 748;
}
);
unicode = A556;
},
{
glyphname = uA557;
lastChange = "2017-01-31 20:33:09 +0000";
layers = (
{
layerId = UUID0;
paths = (
{
closed = 1;
nodes = (
"317 0 LINE SMOOTH",
"438 0 OFFCURVE",
"530 60 OFFCURVE",
"530 193 CURVE SMOOTH",
"530 282 OFFCURVE",
"472 344 OFFCURVE",
"413 363 CURVE",
"413 367 LINE",
"470 383 OFFCURVE",
"526 440 OFFCURVE",
"526 524 CURVE SMOOTH",
"526 654 OFFCURVE",
"438 714 OFFCURVE",
"316 714 CURVE SMOOTH",
"111 714 LINE",
"111 0 LINE"
);
},
{
closed = 1;
nodes = (
"189 329 LINE",
"316 329 LINE SMOOTH",
"392 329 OFFCURVE",
"452 283 OFFCURVE",
"452 193 CURVE",
"452 103 OFFCURVE",
"395 69 OFFCURVE",
"317 69 CURVE SMOOTH",
"189 69 LINE"
);
},
{
closed = 1;
nodes = (
"189 645 LINE",
"316 645 LINE SMOOTH",
"388 645 OFFCURVE",
"448 610 OFFCURVE",
"448 524 CURVE SMOOTH",
"448 438 OFFCURVE",
"391 394 OFFCURVE",
"316 394 CURVE SMOOTH",
"189 394 LINE"
);
}
);
width = 607;
}
);
unicode = A557;
},
{
glyphname = uA558;
lastChange = "2017-01-31 20:33:09 +0000";
layers = (
{
layerId = UUID0;
paths = (
{
closed = 1;
nodes = (
"390 -8 OFFCURVE",
"482 17 OFFCURVE",
"482 113 CURVE SMOOTH",
"482 177 OFFCURVE",
"430 222 OFFCURVE",
"359 222 CURVE",
"359 492 LINE",
"430 492 OFFCURVE",
"482 537 OFFCURVE",
"482 601 CURVE SMOOTH",
"482 697 OFFCURVE",
"390 722 OFFCURVE",
"320 722 CURVE SMOOTH",
"229 722 OFFCURVE",
"124 677 OFFCURVE",
"44 580 CURVE",
"89 543 LINE",
"152 605 OFFCURVE",
"231 654 OFFCURVE",
"320 654 CURVE SMOOTH",
"383 654 OFFCURVE",
"409 630 OFFCURVE",
"409 601 CURVE SMOOTH",
"409 564 OFFCURVE",
"381 555 OFFCURVE",
"336 555 CURVE SMOOTH",
"284 555 LINE",
"284 159 LINE",
"336 159 LINE SMOOTH",
"381 159 OFFCURVE",
"409 150 OFFCURVE",
"409 113 CURVE SMOOTH",
"409 84 OFFCURVE",
"381 60 OFFCURVE",
"320 60 CURVE SMOOTH",
"231 60 OFFCURVE",
"157 114 OFFCURVE",
"94 176 CURVE",
"44 134 LINE",
"124 37 OFFCURVE",
"229 -8 OFFCURVE",
"320 -8 CURVE SMOOTH"
);
}
);
width = 548;
}
);
unicode = A558;
},
{
glyphname = uA559;
lastChange = "2017-01-31 20:33:09 +0000";
layers = (
{
layerId = UUID0;
paths = (
{
closed = 1;
nodes = (
"576 -8 OFFCURVE",
"668 17 OFFCURVE",
"668 113 CURVE SMOOTH",
"668 177 OFFCURVE",
"616 222 OFFCURVE",
"545 222 CURVE",
"545 492 LINE",
"616 492 OFFCURVE",
"668 537 OFFCURVE",
"668 601 CURVE SMOOTH",
"668 697 OFFCURVE",
"576 722 OFFCURVE",
"506 722 CURVE SMOOTH",
"415 722 OFFCURVE",
"310 677 OFFCURVE",
"230 580 CURVE",
"275 543 LINE",
"338 605 OFFCURVE",
"417 654 OFFCURVE",
"506 654 CURVE",
"569 654 OFFCURVE",
"595 630 OFFCURVE",
"595 601 CURVE SMOOTH",
"595 564 OFFCURVE",
"567 555 OFFCURVE",
"522 555 CURVE SMOOTH",
"470 555 LINE",
"470 403 LINE",
"155 403 LINE",
"155 563 LINE",
"77 563 LINE",
"77 175 LINE",
"155 175 LINE",
"155 335 LINE",
"470 335 LINE",
"470 159 LINE",
"522 159 LINE SMOOTH",
"567 159 OFFCURVE",
"595 150 OFFCURVE",
"595 113 CURVE SMOOTH",
"595 84 OFFCURVE",
"567 60 OFFCURVE",
"506 60 CURVE SMOOTH",
"417 60 OFFCURVE",
"343 114 OFFCURVE",
"280 176 CURVE",
"230 134 LINE",
"310 37 OFFCURVE",
"415 -8 OFFCURVE",
"506 -8 CURVE SMOOTH"
);
}
);
width = 734;
}
);
unicode = A559;
},
{
glyphname = uA55A;
lastChange = "2017-01-31 20:33:09 +0000";
layers = (
{
layerId = UUID0;
paths = (
{
closed = 1;
nodes = (
"392 0 LINE",
"392 480 LINE",
"396 480 LINE",
"419 433 OFFCURVE",
"473 425 OFFCURVE",
"494 425 CURVE SMOOTH",
"588 425 OFFCURVE",
"651 477 OFFCURVE",
"651 646 CURVE",
"651 714 LINE",
"573 714 LINE",
"573 645 LINE SMOOTH",
"573 540 OFFCURVE",
"537 491 OFFCURVE",
"484 491 CURVE SMOOTH",
"434 491 OFFCURVE",
"392 527 OFFCURVE",
"392 623 CURVE SMOOTH",
"392 714 LINE",
"314 714 LINE",
"314 623 LINE SMOOTH",
"314 527 OFFCURVE",
"272 491 OFFCURVE",
"222 491 CURVE SMOOTH",
"169 491 OFFCURVE",
"133 540 OFFCURVE",
"133 645 CURVE SMOOTH",
"133 714 LINE",
"55 714 LINE",
"55 646 LINE SMOOTH",
"55 477 OFFCURVE",
"118 425 OFFCURVE",
"212 425 CURVE SMOOTH",
"237 425 OFFCURVE",
"283 435 OFFCURVE",
"310 480 CURVE",
"314 480 LINE",
"314 0 LINE"
);
}
);
width = 706;
}
);
unicode = A55A;
},
{
glyphname = uA55B;
lastChange = "2017-01-31 20:33:09 +0000";
layers = (
{
layerId = UUID0;
paths = (
{
closed = 1;
nodes = (
"544 0 LINE",
"544 69 LINE",
"392 69 LINE",
"392 480 LINE",
"396 480 LINE",
"419 433 OFFCURVE",
"473 425 OFFCURVE",
"494 425 CURVE SMOOTH",
"588 425 OFFCURVE",
"651 477 OFFCURVE",
"651 646 CURVE SMOOTH",
"651 714 LINE",
"573 714 LINE",
"573 645 LINE SMOOTH",
"573 540 OFFCURVE",
"537 491 OFFCURVE",
"484 491 CURVE SMOOTH",
"434 491 OFFCURVE",
"392 527 OFFCURVE",
"392 623 CURVE SMOOTH",
"392 645 LINE",
"524 645 LINE",
"524 714 LINE",
"182 714 LINE",
"182 645 LINE",
"314 645 LINE",
"314 623 LINE SMOOTH",
"314 527 OFFCURVE",
"272 491 OFFCURVE",
"222 491 CURVE SMOOTH",
"169 491 OFFCURVE",
"133 540 OFFCURVE",
"133 645 CURVE SMOOTH",
"133 714 LINE",
"55 714 LINE",
"55 646 LINE SMOOTH",
"55 477 OFFCURVE",
"118 425 OFFCURVE",
"212 425 CURVE SMOOTH",
"237 425 OFFCURVE",
"283 435 OFFCURVE",
"310 480 CURVE",
"314 480 LINE",
"314 69 LINE",
"162 69 LINE",
"162 0 LINE"
);
}
);
width = 706;
}
);
unicode = A55B;
},
{
glyphname = uA55C;
lastChange = "2017-01-31 20:33:09 +0000";
layers = (
{
layerId = UUID0;
paths = (
{
closed = 1;
nodes = (
"652 0 LINE",
"652 714 LINE",
"574 714 LINE",
"574 477 LINE SMOOTH",
"574 372 OFFCURVE",
"537 323 OFFCURVE",
"486 323 CURVE SMOOTH",
"433 323 OFFCURVE",
"392 359 OFFCURVE",
"392 453 CURVE SMOOTH",
"392 546 LINE",
"314 546 LINE",
"314 455 LINE SMOOTH",
"314 359 OFFCURVE",
"272 323 OFFCURVE",
"227 323 CURVE SMOOTH",
"169 323 OFFCURVE",
"133 372 OFFCURVE",
"133 475 CURVE SMOOTH",
"133 546 LINE",
"55 546 LINE",
"55 475 LINE SMOOTH",
"55 309 OFFCURVE",
"118 257 OFFCURVE",
"212 257 CURVE SMOOTH",
"264 257 OFFCURVE",
"319 279 OFFCURVE",
"349 347 CURVE",
"353 347 LINE",
"374 277 OFFCURVE",
"433 257 OFFCURVE",
"473 257 CURVE SMOOTH",
"505 257 OFFCURVE",
"549 275 OFFCURVE",
"570 322 CURVE",
"574 322 LINE",
"574 0 LINE"
);
},
{
closed = 1;
nodes = (
"383 146 OFFCURVE",
"403 164 OFFCURVE",
"403 196 CURVE SMOOTH",
"403 227 OFFCURVE",
"382 246 OFFCURVE",
"353 246 CURVE SMOOTH",
"324 246 OFFCURVE",
"303 227 OFFCURVE",
"303 196 CURVE SMOOTH",
"303 164 OFFCURVE",
"321 146 OFFCURVE",
"353 146 CURVE SMOOTH"
);
},
{
closed = 1;
nodes = (
"383 586 OFFCURVE",
"403 604 OFFCURVE",
"403 636 CURVE SMOOTH",
"403 667 OFFCURVE",
"382 686 OFFCURVE",
"353 686 CURVE SMOOTH",
"324 686 OFFCURVE",
"303 667 OFFCURVE",
"303 636 CURVE SMOOTH",
"303 604 OFFCURVE",
"321 586 OFFCURVE",
"353 586 CURVE SMOOTH"
);
}
);
width = 763;
}
);
unicode = A55C;
},
{
glyphname = uA55D;
lastChange = "2017-01-31 20:33:09 +0000";
layers = (
{
layerId = UUID0;
paths = (
{
closed = 1;
nodes = (
"652 0 LINE",
"652 714 LINE",
"574 714 LINE",
"574 477 LINE SMOOTH",
"574 372 OFFCURVE",
"537 323 OFFCURVE",
"486 323 CURVE SMOOTH",
"433 323 OFFCURVE",
"392 359 OFFCURVE",
"392 453 CURVE SMOOTH",
"392 546 LINE",
"314 546 LINE",
"314 455 LINE SMOOTH",
"314 359 OFFCURVE",
"272 323 OFFCURVE",
"227 323 CURVE SMOOTH",
"169 323 OFFCURVE",
"133 372 OFFCURVE",
"133 475 CURVE SMOOTH",
"133 546 LINE",
"55 546 LINE",
"55 475 LINE SMOOTH",
"55 309 OFFCURVE",
"118 257 OFFCURVE",
"212 257 CURVE SMOOTH",
"264 257 OFFCURVE",
"319 279 OFFCURVE",
"349 347 CURVE",
"353 347 LINE",
"374 277 OFFCURVE",
"433 257 OFFCURVE",
"473 257 CURVE SMOOTH",
"505 257 OFFCURVE",
"549 275 OFFCURVE",
"570 322 CURVE",
"574 322 LINE",
"574 0 LINE"
);
},
{
closed = 1;
nodes = (
"383 146 OFFCURVE",
"403 164 OFFCURVE",
"403 196 CURVE SMOOTH",
"403 227 OFFCURVE",
"382 246 OFFCURVE",
"353 246 CURVE SMOOTH",
"324 246 OFFCURVE",
"303 227 OFFCURVE",
"303 196 CURVE SMOOTH",
"303 164 OFFCURVE",
"321 146 OFFCURVE",
"353 146 CURVE SMOOTH"
);
},
{
closed = 1;
nodes = (
"383 586 OFFCURVE",
"403 604 OFFCURVE",
"403 636 CURVE SMOOTH",
"403 667 OFFCURVE",
"382 686 OFFCURVE",
"353 686 CURVE SMOOTH",
"324 686 OFFCURVE",
"303 667 OFFCURVE",
"303 636 CURVE SMOOTH",
"303 604 OFFCURVE",
"321 586 OFFCURVE",
"353 586 CURVE SMOOTH"
);
},
{
closed = 1;
nodes = (
"851 0 LINE",
"851 714 LINE",
"773 714 LINE",
"773 0 LINE"
);
}
);
width = 962;
}
);
unicode = A55D;
},
{
glyphname = uA55E;
lastChange = "2017-01-31 20:33:09 +0000";
layers = (
{
layerId = UUID0;
paths = (
{
closed = 1;
nodes = (
"389 0 LINE",
"389 228 LINE",
"658 228 LINE",
"658 296 LINE",
"389 296 LINE",
"389 428 LINE",
"658 428 LINE",
"658 496 LINE",
"389 496 LINE",
"389 714 LINE",
"311 714 LINE",
"311 0 LINE"
);
},
{
closed = 1;
nodes = (
"189 0 LINE",
"189 714 LINE",
"111 714 LINE",
"111 0 LINE"
);
}
);
width = 702;
}
);
unicode = A55E;
},
{
glyphname = uA55F;
lastChange = "2017-01-31 20:33:09 +0000";
layers = (
{
layerId = UUID0;
paths = (
{
closed = 1;
nodes = (
"389 0 LINE",
"389 228 LINE",
"658 228 LINE",
"658 296 LINE",
"389 296 LINE",
"389 428 LINE",
"658 428 LINE",
"658 496 LINE",
"389 496 LINE",
"389 714 LINE",
"311 714 LINE",
"311 0 LINE"
);
},
{
closed = 1;
nodes = (
"293 -123 OFFCURVE",
"317 -114 OFFCURVE",
"348 -114 CURVE SMOOTH",
"392 -114 OFFCURVE",
"464 -151 OFFCURVE",
"520 -151 CURVE SMOOTH",
"583 -151 OFFCURVE",
"620 -123 OFFCURVE",
"645 -60 CURVE",
"599 -33 LINE",
"579 -72 OFFCURVE",
"555 -81 OFFCURVE",
"524 -81 CURVE SMOOTH",
"482 -81 OFFCURVE",
"411 -44 OFFCURVE",
"352 -44 CURVE SMOOTH",
"289 -44 OFFCURVE",
"252 -72 OFFCURVE",
"227 -135 CURVE",
"273 -162 LINE"
);
},
{
closed = 1;
nodes = (
"189 0 LINE",
"189 714 LINE",
"111 714 LINE",
"111 0 LINE"
);
}
);
width = 702;
}
);
unicode = A55F;
},
{
glyphname = uA560;
lastChange = "2017-01-31 20:33:09 +0000";
layers = (
{
layerId = UUID0;
paths = (
{
closed = 1;
nodes = (
"629 0 LINE",
"629 437 LINE",
"773 437 OFFCURVE",
"834 495 OFFCURVE",
"834 578 CURVE SMOOTH",
"834 661 OFFCURVE",
"782 714 OFFCURVE",
"640 714 CURVE",
"640 651 LINE",
"729 651 OFFCURVE",
"756 619 OFFCURVE",
"756 578 CURVE SMOOTH",
"756 537 OFFCURVE",
"723 506 OFFCURVE",
"629 506 CURVE SMOOTH",
"111 506 LINE",
"111 0 LINE"
);
},
{
closed = 1;
nodes = (
"189 437 LINE",
"331 437 LINE",
"331 69 LINE",
"189 69 LINE"
);
},
{
closed = 1;
nodes = (
"409 437 LINE",
"551 437 LINE",
"551 69 LINE",
"409 69 LINE"
);
}
);
width = 878;
}
);
unicode = A560;
},
{
glyphname = uA561;
lastChange = "2017-01-31 20:33:09 +0000";
layers = (
{
layerId = UUID0;
paths = (
{
closed = 1;
nodes = (
"629 0 LINE",
"629 437 LINE",
"773 437 OFFCURVE",
"834 495 OFFCURVE",
"834 578 CURVE SMOOTH",
"834 661 OFFCURVE",
"782 714 OFFCURVE",
"640 714 CURVE",
"640 651 LINE",
"729 651 OFFCURVE",
"756 619 OFFCURVE",
"756 578 CURVE SMOOTH",
"756 537 OFFCURVE",
"723 506 OFFCURVE",
"629 506 CURVE SMOOTH",
"111 506 LINE",
"111 0 LINE"
);
},
{
closed = 1;
nodes = (
"189 437 LINE",
"331 437 LINE",
"331 69 LINE",
"189 69 LINE"
);
},
{
closed = 1;
nodes = (
"409 437 LINE",
"551 437 LINE",
"551 69 LINE",
"409 69 LINE"
);
},
{
closed = 1;
nodes = (
"783 284 OFFCURVE",
"803 302 OFFCURVE",
"803 334 CURVE SMOOTH",
"803 365 OFFCURVE",
"782 384 OFFCURVE",
"753 384 CURVE SMOOTH",
"724 384 OFFCURVE",
"703 365 OFFCURVE",
"703 334 CURVE SMOOTH",
"703 302 OFFCURVE",
"721 284 OFFCURVE",
"753 284 CURVE SMOOTH"
);
},
{
closed = 1;
nodes = (
"563 574 OFFCURVE",
"583 592 OFFCURVE",
"583 624 CURVE SMOOTH",
"583 655 OFFCURVE",
"562 674 OFFCURVE",
"533 674 CURVE SMOOTH",
"504 674 OFFCURVE",
"483 655 OFFCURVE",
"483 624 CURVE SMOOTH",
"483 592 OFFCURVE",
"501 574 OFFCURVE",
"533 574 CURVE SMOOTH"
);
}
);
width = 878;
}
);
unicode = A561;
},
{
glyphname = uA562;
lastChange = "2017-01-31 20:33:09 +0000";
layers = (
{
layerId = UUID0;
paths = (
{
closed = 1;
nodes = (
"575 -8 OFFCURVE",
"674 78 OFFCURVE",
"674 206 CURVE SMOOTH",
"674 241 OFFCURVE",
"666 272 OFFCURVE",
"652 300 CURVE",
"761 308 OFFCURVE",
"851 392 OFFCURVE",
"851 512 CURVE SMOOTH",
"851 639 OFFCURVE",
"752 725 OFFCURVE",
"635 725 CURVE SMOOTH",
"563 725 OFFCURVE",
"498 693 OFFCURVE",
"458 639 CURVE",
"419 693 OFFCURVE",
"354 725 OFFCURVE",
"283 725 CURVE SMOOTH",
"166 725 OFFCURVE",
"66 639 OFFCURVE",
"66 512 CURVE SMOOTH",
"66 393 OFFCURVE",
"154 310 OFFCURVE",
"262 301 CURVE",
"248 273 OFFCURVE",
"241 241 OFFCURVE",
"241 206 CURVE SMOOTH",
"241 78 OFFCURVE",
"341 -8 OFFCURVE",
"458 -8 CURVE SMOOTH"
);
},
{
closed = 1;
nodes = (
"381 58 OFFCURVE",
"317 117 OFFCURVE",
"317 206 CURVE SMOOTH",
"317 293 OFFCURVE",
"381 351 OFFCURVE",
"458 351 CURVE SMOOTH",
"535 351 OFFCURVE",
"598 293 OFFCURVE",
"598 206 CURVE SMOOTH",
"598 117 OFFCURVE",
"535 58 OFFCURVE",
"458 58 CURVE SMOOTH"
);
},
{
closed = 1;
nodes = (
"206 366 OFFCURVE",
"142 424 OFFCURVE",
"142 512 CURVE SMOOTH",
"142 600 OFFCURVE",
"206 659 OFFCURVE",
"283 659 CURVE SMOOTH",
"360 659 OFFCURVE",
"423 600 OFFCURVE",
"423 512 CURVE SMOOTH",
"423 424 OFFCURVE",
"360 366 OFFCURVE",
"283 366 CURVE SMOOTH"
);
},
{
closed = 1;
nodes = (
"558 366 OFFCURVE",
"494 424 OFFCURVE",
"494 512 CURVE SMOOTH",
"494 600 OFFCURVE",
"558 659 OFFCURVE",
"635 659 CURVE SMOOTH",
"712 659 OFFCURVE",
"775 600 OFFCURVE",
"775 512 CURVE SMOOTH",
"775 424 OFFCURVE",
"712 366 OFFCURVE",
"635 366 CURVE SMOOTH"
);
}
);
width = 917;
}
);
unicode = A562;
},
{
glyphname = uA563;
lastChange = "2017-01-31 20:33:09 +0000";
layers = (
{
layerId = UUID0;
paths = (
{
closed = 1;
nodes = (
"575 -8 OFFCURVE",
"674 78 OFFCURVE",
"674 206 CURVE SMOOTH",
"674 241 OFFCURVE",
"666 272 OFFCURVE",
"652 300 CURVE",
"761 308 OFFCURVE",
"851 392 OFFCURVE",
"851 512 CURVE SMOOTH",
"851 639 OFFCURVE",
"752 725 OFFCURVE",
"635 725 CURVE SMOOTH",
"563 725 OFFCURVE",
"498 693 OFFCURVE",
"458 639 CURVE",
"419 693 OFFCURVE",
"354 725 OFFCURVE",
"283 725 CURVE SMOOTH",
"166 725 OFFCURVE",
"66 639 OFFCURVE",
"66 512 CURVE SMOOTH",
"66 393 OFFCURVE",
"154 310 OFFCURVE",
"262 301 CURVE",
"248 273 OFFCURVE",
"241 241 OFFCURVE",
"241 206 CURVE SMOOTH",
"241 78 OFFCURVE",
"341 -8 OFFCURVE",
"458 -8 CURVE SMOOTH"
);
},
{
closed = 1;
nodes = (
"159 159 OFFCURVE",
"179 177 OFFCURVE",
"179 209 CURVE SMOOTH",
"179 240 OFFCURVE",
"158 259 OFFCURVE",
"129 259 CURVE SMOOTH",
"100 259 OFFCURVE",
"79 240 OFFCURVE",
"79 209 CURVE SMOOTH",
"79 177 OFFCURVE",
"97 159 OFFCURVE",
"129 159 CURVE SMOOTH"
);
},
{
closed = 1;
nodes = (
"381 58 OFFCURVE",
"317 117 OFFCURVE",
"317 206 CURVE SMOOTH",
"317 293 OFFCURVE",
"381 351 OFFCURVE",
"458 351 CURVE SMOOTH",
"535 351 OFFCURVE",
"598 293 OFFCURVE",
"598 206 CURVE SMOOTH",
"598 117 OFFCURVE",
"535 58 OFFCURVE",
"458 58 CURVE SMOOTH"
);
},
{
closed = 1;
nodes = (
"206 366 OFFCURVE",
"142 424 OFFCURVE",
"142 512 CURVE SMOOTH",
"142 600 OFFCURVE",
"206 659 OFFCURVE",
"283 659 CURVE SMOOTH",
"360 659 OFFCURVE",
"423 600 OFFCURVE",
"423 512 CURVE SMOOTH",
"423 424 OFFCURVE",
"360 366 OFFCURVE",
"283 366 CURVE SMOOTH"
);
},
{
closed = 1;
nodes = (
"817 159 OFFCURVE",
"837 177 OFFCURVE",
"837 209 CURVE SMOOTH",
"837 240 OFFCURVE",
"816 259 OFFCURVE",
"787 259 CURVE SMOOTH",
"758 259 OFFCURVE",
"737 240 OFFCURVE",
"737 209 CURVE SMOOTH",
"737 177 OFFCURVE",
"755 159 OFFCURVE",
"787 159 CURVE SMOOTH"
);
},
{
closed = 1;
nodes = (
"558 366 OFFCURVE",
"494 424 OFFCURVE",
"494 512 CURVE SMOOTH",
"494 600 OFFCURVE",
"558 659 OFFCURVE",
"635 659 CURVE SMOOTH",
"712 659 OFFCURVE",
"775 600 OFFCURVE",
"775 512 CURVE SMOOTH",
"775 424 OFFCURVE",
"712 366 OFFCURVE",
"635 366 CURVE SMOOTH"
);
}
);
width = 917;
}
);
unicode = A563;
},
{
glyphname = uA564;
lastChange = "2017-01-31 20:33:09 +0000";
layers = (
{
layerId = UUID0;
paths = (
{
closed = 1;
nodes = (
"316 -10 OFFCURVE",
"407 70 OFFCURVE",
"436 161 CURVE",
"440 161 LINE",
"469 70 OFFCURVE",
"558 -10 OFFCURVE",
"651 -10 CURVE SMOOTH",
"741 -10 OFFCURVE",
"808 50 OFFCURVE",
"808 145 CURVE SMOOTH",
"808 238 OFFCURVE",
"726 330 OFFCURVE",
"606 356 CURVE",
"606 360 LINE",
"726 391 OFFCURVE",
"808 480 OFFCURVE",
"808 570 CURVE SMOOTH",
"808 661 OFFCURVE",
"745 725 OFFCURVE",
"651 725 CURVE SMOOTH",
"558 725 OFFCURVE",
"469 645 OFFCURVE",
"440 554 CURVE",
"436 554 LINE",
"407 645 OFFCURVE",
"316 725 OFFCURVE",
"223 725 CURVE SMOOTH",
"129 725 OFFCURVE",
"66 661 OFFCURVE",
"66 570 CURVE SMOOTH",
"66 477 OFFCURVE",
"148 385 OFFCURVE",
"268 359 CURVE",
"268 355 LINE",
"148 324 OFFCURVE",
"66 235 OFFCURVE",
"66 145 CURVE",
"66 50 OFFCURVE",
"133 -10 OFFCURVE",
"223 -10 CURVE SMOOTH"
);
},
{
closed = 1;
nodes = (
"178 58 OFFCURVE",
"144 92 OFFCURVE",
"144 145 CURVE SMOOTH",
"144 242 OFFCURVE",
"280 329 OFFCURVE",
"369 329 CURVE SMOOTH",
"403 329 LINE",
"403 280 LINE",
"403 171 OFFCURVE",
"323 58 OFFCURVE",
"223 58 CURVE SMOOTH"
);
},
{
closed = 1;
nodes = (
"551 58 OFFCURVE",
"471 178 OFFCURVE",
"471 280 CURVE",
"471 329 LINE",
"505 329 LINE SMOOTH",
"594 329 OFFCURVE",
"730 242 OFFCURVE",
"730 145 CURVE SMOOTH",
"730 92 OFFCURVE",
"696 58 OFFCURVE",
"651 58 CURVE SMOOTH"
);
},
{
closed = 1;
nodes = (
"280 386 OFFCURVE",
"144 468 OFFCURVE",
"144 570 CURVE SMOOTH",
"144 621 OFFCURVE",
"176 657 OFFCURVE",
"223 657 CURVE SMOOTH",
"319 657 OFFCURVE",
"403 543 OFFCURVE",
"403 435 CURVE",
"403 386 LINE",
"369 386 LINE SMOOTH"
);
},
{
closed = 1;
nodes = (
"471 435 LINE",
"471 543 OFFCURVE",
"555 657 OFFCURVE",
"651 657 CURVE SMOOTH",
"698 657 OFFCURVE",
"730 621 OFFCURVE",
"730 570 CURVE SMOOTH",
"730 468 OFFCURVE",
"594 386 OFFCURVE",
"505 386 CURVE SMOOTH",
"471 386 LINE"
);
}
);
width = 874;
}
);
unicode = A564;
},
{
glyphname = uA565;
lastChange = "2017-01-31 20:33:09 +0000";
layers = (
{
layerId = UUID0;
paths = (
{
closed = 1;
nodes = (
"333 -10 OFFCURVE",
"424 70 OFFCURVE",
"453 161 CURVE",
"457 161 LINE",
"486 70 OFFCURVE",
"575 -10 OFFCURVE",
"668 -10 CURVE SMOOTH",
"758 -10 OFFCURVE",
"825 50 OFFCURVE",
"825 145 CURVE SMOOTH",
"825 238 OFFCURVE",
"743 330 OFFCURVE",
"623 356 CURVE",
"623 360 LINE",
"743 391 OFFCURVE",
"825 480 OFFCURVE",
"825 570 CURVE SMOOTH",
"825 661 OFFCURVE",
"762 725 OFFCURVE",
"668 725 CURVE SMOOTH",
"575 725 OFFCURVE",
"486 645 OFFCURVE",
"457 554 CURVE",
"453 554 LINE",
"424 645 OFFCURVE",
"333 725 OFFCURVE",
"240 725 CURVE SMOOTH",
"146 725 OFFCURVE",
"83 661 OFFCURVE",
"83 570 CURVE SMOOTH",
"83 477 OFFCURVE",
"165 385 OFFCURVE",
"285 359 CURVE",
"285 355 LINE",
"165 324 OFFCURVE",
"83 235 OFFCURVE",
"83 145 CURVE SMOOTH",
"83 50 OFFCURVE",
"150 -10 OFFCURVE",
"240 -10 CURVE SMOOTH"
);
},
{
closed = 1;
nodes = (
"113 307 OFFCURVE",
"133 325 OFFCURVE",
"133 357 CURVE SMOOTH",
"133 388 OFFCURVE",
"112 407 OFFCURVE",
"83 407 CURVE SMOOTH",
"54 407 OFFCURVE",
"33 388 OFFCURVE",
"33 357 CURVE SMOOTH",
"33 325 OFFCURVE",
"51 307 OFFCURVE",
"83 307 CURVE SMOOTH"
);
},
{
closed = 1;
nodes = (
"485 -60 OFFCURVE",
"505 -42 OFFCURVE",
"505 -10 CURVE SMOOTH",
"505 21 OFFCURVE",
"484 40 OFFCURVE",
"455 40 CURVE SMOOTH",
"426 40 OFFCURVE",
"405 21 OFFCURVE",
"405 -10 CURVE SMOOTH",
"405 -42 OFFCURVE",
"423 -60 OFFCURVE",
"455 -60 CURVE SMOOTH"
);
},
{
closed = 1;
nodes = (
"195 58 OFFCURVE",
"161 92 OFFCURVE",
"161 145 CURVE SMOOTH",
"161 242 OFFCURVE",
"297 329 OFFCURVE",
"386 329 CURVE SMOOTH",
"420 329 LINE",
"420 280 LINE SMOOTH",
"420 171 OFFCURVE",
"340 58 OFFCURVE",
"240 58 CURVE SMOOTH"
);
},
{
closed = 1;
nodes = (
"568 58 OFFCURVE",
"488 178 OFFCURVE",
"488 280 CURVE SMOOTH",
"488 329 LINE",
"522 329 LINE SMOOTH",
"611 329 OFFCURVE",
"747 242 OFFCURVE",
"747 145 CURVE SMOOTH",
"747 92 OFFCURVE",
"713 58 OFFCURVE",
"668 58 CURVE SMOOTH"
);
},
{
closed = 1;
nodes = (
"297 386 OFFCURVE",
"161 468 OFFCURVE",
"161 570 CURVE SMOOTH",
"161 621 OFFCURVE",
"193 657 OFFCURVE",
"240 657 CURVE SMOOTH",
"336 657 OFFCURVE",
"420 543 OFFCURVE",
"420 435 CURVE SMOOTH",
"420 386 LINE",
"386 386 LINE SMOOTH"
);
},
{
closed = 1;
nodes = (
"488 435 LINE SMOOTH",
"488 543 OFFCURVE",
"572 657 OFFCURVE",
"668 657 CURVE SMOOTH",
"715 657 OFFCURVE",
"747 621 OFFCURVE",
"747 570 CURVE SMOOTH",
"747 468 OFFCURVE",
"611 386 OFFCURVE",
"522 386 CURVE SMOOTH",
"488 386 LINE"
);
},
{
closed = 1;
nodes = (
"485 670 OFFCURVE",
"505 688 OFFCURVE",
"505 720 CURVE SMOOTH",
"505 751 OFFCURVE",
"484 770 OFFCURVE",
"455 770 CURVE SMOOTH",
"426 770 OFFCURVE",
"405 751 OFFCURVE",
"405 720 CURVE SMOOTH",
"405 688 OFFCURVE",
"423 670 OFFCURVE",
"455 670 CURVE SMOOTH"
);
},
{
closed = 1;
nodes = (
"853 307 OFFCURVE",
"873 325 OFFCURVE",
"873 357 CURVE SMOOTH",
"873 388 OFFCURVE",
"852 407 OFFCURVE",
"823 407 CURVE SMOOTH",
"794 407 OFFCURVE",
"773 388 OFFCURVE",
"773 357 CURVE SMOOTH",
"773 325 OFFCURVE",
"791 307 OFFCURVE",
"823 307 CURVE SMOOTH"
);
}
);
width = 906;
}
);
unicode = A565;
},
{
glyphname = uA566;
lastChange = "2017-01-31 20:33:09 +0000";
layers = (
{
layerId = UUID0;
paths = (
{
closed = 1;
nodes = (
"576 -10 OFFCURVE",
"668 60 OFFCURVE",
"668 176 CURVE SMOOTH",
"668 293 OFFCURVE",
"594 352 OFFCURVE",
"509 352 CURVE SMOOTH",
"458 352 OFFCURVE",
"415 327 OFFCURVE",
"386 296 CURVE",
"383 297 LINE",
"396 458 OFFCURVE",
"434 565 OFFCURVE",
"494 652 CURVE",
"456 714 LINE",
"54 561 LINE",
"78 497 LINE",
"389 614 LINE",
"370 577 OFFCURVE",
"352 534 OFFCURVE",
"338 483 CURVE",
"55 376 LINE",
"80 311 LINE",
"320 402 LINE",
"308 338 OFFCURVE",
"302 264 OFFCURVE",
"302 181 CURVE SMOOTH",
"302 44 OFFCURVE",
"384 -10 OFFCURVE",
"467 -10 CURVE SMOOTH"
);
},
{
closed = 1;
nodes = (
"386 56 OFFCURVE",
"380 156 OFFCURVE",
"380 225 CURVE",
"402 257 OFFCURVE",
"438 286 OFFCURVE",
"492 286 CURVE SMOOTH",
"565 286 OFFCURVE",
"591 229 OFFCURVE",
"591 176 CURVE SMOOTH",
"591 103 OFFCURVE",
"537 56 OFFCURVE",
"480 56 CURVE SMOOTH"
);
}
);
width = 723;
}
);
unicode = A566;
},
{
glyphname = uA567;
lastChange = "2017-01-31 20:33:09 +0000";
layers = (
{
layerId = UUID0;
paths = (
{
closed = 1;
nodes = (
"114 0 LINE",
"250 335 LINE SMOOTH",
"288 429 OFFCURVE",
"337 578 OFFCURVE",
"346 643 CURVE",
"350 642 LINE",
"345 604 OFFCURVE",
"342 417 OFFCURVE",
"342 334 CURVE SMOOTH",
"342 0 LINE",
"420 0 LINE",
"420 334 LINE SMOOTH",
"420 417 OFFCURVE",
"416 602 OFFCURVE",
"412 642 CURVE",
"416 643 LINE",
"425 577 OFFCURVE",
"478 418 OFFCURVE",
"512 334 CURVE SMOOTH",
"646 0 LINE",
"734 0 LINE",
"473 645 LINE",
"638 645 LINE",
"638 714 LINE",
"136 714 LINE",
"136 645 LINE",
"301 645 LINE",
"34 0 LINE"
);
}
);
width = 768;
}
);
unicode = A567;
},
{
glyphname = uA568;
lastChange = "2017-01-31 20:33:09 +0000";
layers = (
{
layerId = UUID0;
paths = (
{
closed = 1;
nodes = (
"114 0 LINE",
"205 225 LINE SMOOTH",
"243 319 OFFCURVE",
"295 468 OFFCURVE",
"301 533 CURVE",
"305 532 LINE",
"300 494 OFFCURVE",
"297 303 OFFCURVE",
"297 224 CURVE SMOOTH",
"297 0 LINE",
"375 0 LINE",
"375 224 LINE SMOOTH",
"375 307 OFFCURVE",
"371 492 OFFCURVE",
"367 532 CURVE",
"371 533 LINE",
"377 467 OFFCURVE",
"433 308 OFFCURVE",
"467 224 CURVE SMOOTH",
"557 0 LINE",
"641 0 LINE",
"424 535 LINE",
"583 535 LINE",
"583 564 LINE SMOOTH",
"583 684 OFFCURVE",
"530 725 OFFCURVE",
"444 725 CURVE SMOOTH",
"395 725 OFFCURVE",
"356 703 OFFCURVE",
"343 666 CURVE",
"339 666 LINE",
"328 700 OFFCURVE",
"289 725 OFFCURVE",
"236 725 CURVE SMOOTH",
"154 725 OFFCURVE",
"101 685 OFFCURVE",
"101 564 CURVE SMOOTH",
"101 535 LINE",
"256 535 LINE",
"34 0 LINE"
);
},
{
closed = 1;
nodes = (
"173 637 OFFCURVE",
"197 667 OFFCURVE",
"236 667 CURVE SMOOTH",
"272 667 OFFCURVE",
"297 637 OFFCURVE",
"297 596 CURVE",
"173 596 LINE"
);
},
{
closed = 1;
nodes = (
"384 635 OFFCURVE",
"415 667 OFFCURVE",
"443 667 CURVE SMOOTH",
"484 667 OFFCURVE",
"509 637 OFFCURVE",
"509 596 CURVE",
"384 596 LINE"
);
}
);
width = 679;
}
);
unicode = A568;
},
{
glyphname = uA569;
lastChange = "2017-01-31 20:33:09 +0000";
layers = (
{
layerId = UUID0;
paths = (
{
closed = 1;
nodes = (
"662 -11 OFFCURVE",
"744 59 OFFCURVE",
"777 172 CURVE",
"710 189 LINE",
"686 106 OFFCURVE",
"636 57 OFFCURVE",
"564 57 CURVE SMOOTH",
"493 57 OFFCURVE",
"448 107 OFFCURVE",
"448 186 CURVE SMOOTH",
"448 329 OFFCURVE",
"563 519 OFFCURVE",
"695 689 CURVE",
"631 725 LINE",
"599 684 OFFCURVE",
"568 642 OFFCURVE",
"540 600 CURVE",
"528 598 OFFCURVE",
"514 598 OFFCURVE",
"502 598 CURVE SMOOTH",
"464 598 OFFCURVE",
"428 635 OFFCURVE",
"427 714 CURVE",
"350 714 LINE",
"350 634 OFFCURVE",
"320 598 OFFCURVE",
"282 598 CURVE SMOOTH",
"244 598 OFFCURVE",
"213 624 OFFCURVE",
"213 714 CURVE",
"135 714 LINE",
"135 579 OFFCURVE",
"188 532 OFFCURVE",
"279 532 CURVE SMOOTH",
"320 532 OFFCURVE",
"355 554 OFFCURVE",
"384 622 CURVE",
"388 622 LINE",
"410 552 OFFCURVE",
"449 532 OFFCURVE",
"489 532 CURVE SMOOTH",
"496 532 LINE",
"470 488 OFFCURVE",
"446 445 OFFCURVE",
"426 402 CURVE",
"418 401 OFFCURVE",
"409 401 OFFCURVE",
"400 401 CURVE SMOOTH",
"354 401 OFFCURVE",
"326 438 OFFCURVE",
"325 517 CURVE",
"248 517 LINE",
"248 437 OFFCURVE",
"220 401 OFFCURVE",
"180 401 CURVE SMOOTH",
"140 401 OFFCURVE",
"111 427 OFFCURVE",
"111 517 CURVE",
"33 517 LINE",
"33 382 OFFCURVE",
"86 335 OFFCURVE",
"177 335 CURVE SMOOTH",
"218 335 OFFCURVE",
"253 357 OFFCURVE",
"282 425 CURVE",
"286 425 LINE",
"308 355 OFFCURVE",
"347 335 OFFCURVE",
"387 335 CURVE SMOOTH",
"391 335 OFFCURVE",
"395 335 OFFCURVE",
"399 336 CURVE",
"380 283 OFFCURVE",
"370 232 OFFCURVE",
"370 186 CURVE SMOOTH",
"370 65 OFFCURVE",
"445 -11 OFFCURVE",
"564 -11 CURVE SMOOTH"
);
}
);
width = 810;
}
);
unicode = A569;
},
{
glyphname = uA56A;
lastChange = "2017-01-31 20:33:09 +0000";
layers = (
{
layerId = UUID0;
paths = (
{
closed = 1;
nodes = (
"561 0 LINE",
"561 554 LINE",
"483 554 LINE",
"466 500 OFFCURVE",
"352 449 OFFCURVE",
"257 449 CURVE SMOOTH",
"184 449 OFFCURVE",
"121 479 OFFCURVE",
"121 562 CURVE SMOOTH",
"121 608 OFFCURVE",
"138 641 OFFCURVE",
"180 680 CURVE",
"134 724 LINE",
"80 684 OFFCURVE",
"44 627 OFFCURVE",
"44 561 CURVE SMOOTH",
"44 427 OFFCURVE",
"136 380 OFFCURVE",
"238 380 CURVE SMOOTH",
"330 380 OFFCURVE",
"431 419 OFFCURVE",
"479 466 CURVE",
"483 466 LINE",
"483 0 LINE"
);
}
);
width = 672;
}
);
unicode = A56A;
},
{
glyphname = uA56B;
lastChange = "2017-01-31 20:33:09 +0000";
layers = (
{
layerId = UUID0;
paths = (
{
closed = 1;
nodes = (
"702 -10 OFFCURVE",
"784 61 OFFCURVE",
"784 166 CURVE SMOOTH",
"784 271 OFFCURVE",
"702 342 OFFCURVE",
"606 342 CURVE SMOOTH",
"521 342 OFFCURVE",
"448 287 OFFCURVE",
"431 202 CURVE",
"160 202 LINE",
"159 205 LINE",
"304 277 OFFCURVE",
"390 429 OFFCURVE",
"390 541 CURVE SMOOTH",
"390 675 OFFCURVE",
"315 721 OFFCURVE",
"222 721 CURVE SMOOTH",
"126 721 OFFCURVE",
"64 640 OFFCURVE",
"64 535 CURVE",
"136 535 LINE",
"136 601 OFFCURVE",
"161 655 OFFCURVE",
"222 655 CURVE SMOOTH",
"270 655 OFFCURVE",
"313 629 OFFCURVE",
"313 543 CURVE SMOOTH",
"313 429 OFFCURVE",
"217 280 OFFCURVE",
"33 202 CURVE",
"33 133 LINE",
"431 133 LINE",
"446 46 OFFCURVE",
"520 -10 OFFCURVE",
"606 -10 CURVE SMOOTH"
);
},
{
closed = 1;
nodes = (
"553 56 OFFCURVE",
"505 100 OFFCURVE",
"505 166 CURVE SMOOTH",
"505 232 OFFCURVE",
"553 276 OFFCURVE",
"606 276 CURVE SMOOTH",
"658 276 OFFCURVE",
"707 232 OFFCURVE",
"707 166 CURVE SMOOTH",
"707 100 OFFCURVE",
"658 56 OFFCURVE",
"606 56 CURVE SMOOTH"
);
}
);
width = 817;
}
);
unicode = A56B;
},
{
glyphname = uA56C;
lastChange = "2017-01-31 20:33:09 +0000";
layers = (
{
layerId = UUID0;
paths = (
{
closed = 1;
nodes = (
"453 0 LINE SMOOTH",
"574 0 OFFCURVE",
"666 60 OFFCURVE",
"666 193 CURVE SMOOTH",
"666 282 OFFCURVE",
"608 344 OFFCURVE",
"549 363 CURVE",
"549 367 LINE",
"606 383 OFFCURVE",
"662 440 OFFCURVE",
"662 524 CURVE SMOOTH",
"662 654 OFFCURVE",
"574 714 OFFCURVE",
"452 714 CURVE SMOOTH",
"291 714 LINE SMOOTH",
"169 714 OFFCURVE",
"81 654 OFFCURVE",
"81 524 CURVE SMOOTH",
"81 440 OFFCURVE",
"137 383 OFFCURVE",
"194 367 CURVE",
"194 363 LINE",
"135 344 OFFCURVE",
"77 282 OFFCURVE",
"77 193 CURVE SMOOTH",
"77 60 OFFCURVE",
"169 0 OFFCURVE",
"290 0 CURVE"
);
},
{
closed = 1;
nodes = (
"192 84 OFFCURVE",
"155 120 OFFCURVE",
"155 193 CURVE SMOOTH",
"155 265 OFFCURVE",
"193 308 OFFCURVE",
"247 323 CURVE",
"247 73 LINE"
);
},
{
closed = 1;
nodes = (
"195 414 OFFCURVE",
"159 456 OFFCURVE",
"159 524 CURVE SMOOTH",
"159 591 OFFCURVE",
"196 627 OFFCURVE",
"247 640 CURVE",
"247 399 LINE"
);
},
{
closed = 1;
nodes = (
"320 645 LINE",
"423 645 LINE",
"423 69 LINE",
"320 69 LINE"
);
},
{
closed = 1;
nodes = (
"496 323 LINE",
"550 308 OFFCURVE",
"588 265 OFFCURVE",
"588 193 CURVE SMOOTH",
"588 120 OFFCURVE",
"551 84 OFFCURVE",
"496 73 CURVE"
);
},
{
closed = 1;
nodes = (
"496 640 LINE",
"547 627 OFFCURVE",
"584 591 OFFCURVE",
"584 524 CURVE SMOOTH",
"584 456 OFFCURVE",
"548 414 OFFCURVE",
"496 399 CURVE"
);
}
);
width = 743;
}
);
unicode = A56C;
},
{
glyphname = uA56D;
lastChange = "2017-01-31 20:33:09 +0000";
layers = (
{
layerId = UUID0;
paths = (
{
closed = 1;
nodes = (
"254 -5 OFFCURVE",
"309 17 OFFCURVE",
"339 85 CURVE",
"343 85 LINE",
"364 15 OFFCURVE",
"423 -5 OFFCURVE",
"474 -5 CURVE SMOOTH",
"525 -5 OFFCURVE",
"577 15 OFFCURVE",
"600 85 CURVE",
"604 85 LINE",
"634 17 OFFCURVE",
"694 -5 OFFCURVE",
"736 -5 CURVE SMOOTH",
"824 -5 OFFCURVE",
"875 40 OFFCURVE",
"882 184 CURVE",
"804 184 LINE",
"801 100 OFFCURVE",
"782 61 OFFCURVE",
"726 61 CURVE SMOOTH",
"683 61 OFFCURVE",
"644 94 OFFCURVE",
"644 184 CURVE SMOOTH",
"644 577 LINE",
"648 577 LINE",
"664 540 OFFCURVE",
"711 525 OFFCURVE",
"736 525 CURVE SMOOTH",
"824 525 OFFCURVE",
"875 570 OFFCURVE",
"882 714 CURVE",
"804 714 LINE",
"801 630 OFFCURVE",
"782 591 OFFCURVE",
"726 591 CURVE SMOOTH",
"683 591 OFFCURVE",
"646 624 OFFCURVE",
"644 714 CURVE",
"566 714 LINE",
"563 624 OFFCURVE",
"527 591 OFFCURVE",
"474 591 CURVE SMOOTH",
"419 591 OFFCURVE",
"383 624 OFFCURVE",
"382 714 CURVE",
"304 714 LINE",
"302 625 OFFCURVE",
"270 591 OFFCURVE",
"222 591 CURVE SMOOTH",
"171 591 OFFCURVE",
"145 635 OFFCURVE",
"143 714 CURVE",
"65 714 LINE",
"71 570 OFFCURVE",
"115 525 OFFCURVE",
"212 525 CURVE SMOOTH",
"237 525 OFFCURVE",
"284 540 OFFCURVE",
"300 577 CURVE",
"304 577 LINE",
"304 184 LINE SMOOTH",
"304 95 OFFCURVE",
"270 61 OFFCURVE",
"222 61 CURVE SMOOTH",
"171 61 OFFCURVE",
"145 105 OFFCURVE",
"143 184 CURVE",
"65 184 LINE",
"71 40 OFFCURVE",
"115 -5 OFFCURVE",
"212 -5 CURVE SMOOTH"
);
},
{
closed = 1;
nodes = (
"419 61 OFFCURVE",
"382 94 OFFCURVE",
"382 184 CURVE SMOOTH",
"382 577 LINE",
"386 577 LINE",
"402 540 OFFCURVE",
"449 525 OFFCURVE",
"474 525 CURVE SMOOTH",
"499 525 OFFCURVE",
"546 540 OFFCURVE",
"562 577 CURVE",
"566 577 LINE",
"566 184 LINE SMOOTH",
"566 94 OFFCURVE",
"527 61 OFFCURVE",
"474 61 CURVE SMOOTH"
);
}
);
width = 948;
}
);
unicode = A56D;
},
{
glyphname = uA56E;
lastChange = "2017-01-31 20:33:09 +0000";
layers = (
{
layerId = UUID0;
paths = (
{
closed = 1;
nodes = (
"162 0 LINE",
"224 106 OFFCURVE",
"264 277 OFFCURVE",
"271 422 CURVE",
"298 419 OFFCURVE",
"328 417 OFFCURVE",
"361 417 CURVE SMOOTH",
"398 417 OFFCURVE",
"431 419 OFFCURVE",
"461 424 CURVE",
"468 278 OFFCURVE",
"510 102 OFFCURVE",
"566 0 CURVE",
"656 0 LINE",
"592 111 OFFCURVE",
"543 284 OFFCURVE",
"538 442 CURVE",
"635 476 OFFCURVE",
"677 541 OFFCURVE",
"677 617 CURVE SMOOTH",
"677 707 OFFCURVE",
"630 728 OFFCURVE",
"579 728 CURVE SMOOTH",
"489 728 OFFCURVE",
"462 643 OFFCURVE",
"460 491 CURVE",
"432 487 OFFCURVE",
"399 485 OFFCURVE",
"361 485 CURVE SMOOTH",
"327 485 OFFCURVE",
"297 486 OFFCURVE",
"272 490 CURVE",
"269 645 OFFCURVE",
"243 728 OFFCURVE",
"153 728 CURVE SMOOTH",
"102 728 OFFCURVE",
"55 707 OFFCURVE",
"55 617 CURVE SMOOTH",
"55 539 OFFCURVE",
"93 473 OFFCURVE",
"193 439 CURVE",
"188 281 OFFCURVE",
"139 102 OFFCURVE",
"76 0 CURVE"
);
},
{
closed = 1;
nodes = (
"140 531 OFFCURVE",
"123 575 OFFCURVE",
"123 615 CURVE SMOOTH",
"123 649 OFFCURVE",
"135 660 OFFCURVE",
"153 660 CURVE SMOOTH",
"182 660 OFFCURVE",
"194 608 OFFCURVE",
"196 506 CURVE"
);
},
{
closed = 1;
nodes = (
"537 608 OFFCURVE",
"550 660 OFFCURVE",
"579 660 CURVE SMOOTH",
"598 660 OFFCURVE",
"609 649 OFFCURVE",
"609 615 CURVE SMOOTH",
"609 573 OFFCURVE",
"590 530 OFFCURVE",
"535 506 CURVE"
);
}
);
width = 732;
}
);
unicode = A56E;
},
{
glyphname = uA56F;
lastChange = "2017-01-31 20:33:09 +0000";
layers = (
{
layerId = UUID0;
paths = (
{
closed = 1;
nodes = (
"548 0 LINE",
"548 69 LINE",
"346 69 LINE",
"346 645 LINE",
"548 645 LINE",
"548 714 LINE",
"66 714 LINE",
"66 645 LINE",
"268 645 LINE",
"268 69 LINE",
"66 69 LINE",
"66 0 LINE"
);
}
);
width = 614;
}
);
unicode = A56F;
},
{
glyphname = uA570;
lastChange = "2017-01-31 20:33:09 +0000";
layers = (
{
layerId = UUID0;
paths = (
{
closed = 1;
nodes = (
"859 0 LINE",
"859 451 LINE",
"543 451 LINE",
"543 714 LINE",
"465 714 LINE",
"462 630 OFFCURVE",
"435 598 OFFCURVE",
"397 598 CURVE SMOOTH",
"362 598 OFFCURVE",
"326 635 OFFCURVE",
"325 714 CURVE",
"248 714 LINE",
"248 634 OFFCURVE",
"218 598 OFFCURVE",
"180 598 CURVE SMOOTH",
"142 598 OFFCURVE",
"111 624 OFFCURVE",
"111 714 CURVE",
"33 714 LINE",
"33 579 OFFCURVE",
"86 532 OFFCURVE",
"177 532 CURVE SMOOTH",
"218 532 OFFCURVE",
"253 554 OFFCURVE",
"282 622 CURVE",
"286 622 LINE",
"308 552 OFFCURVE",
"347 532 OFFCURVE",
"379 532 CURVE SMOOTH",
"412 532 OFFCURVE",
"445 547 OFFCURVE",
"461 584 CURVE",
"465 584 LINE",
"465 0 LINE"
);
},
{
closed = 1;
nodes = (
"543 383 LINE",
"781 383 LINE",
"781 69 LINE",
"543 69 LINE"
);
}
);
width = 914;
}
);
unicode = A570;
},
{
glyphname = uA571;
lastChange = "2017-01-31 20:33:09 +0000";
layers = (
{
layerId = UUID0;
paths = (
{
closed = 1;
nodes = (
"552 0 LINE",
"552 69 LINE",
"400 69 LINE",
"400 275 LINE",
"557 275 LINE",
"557 191 LINE",
"635 191 LINE",
"635 433 LINE",
"557 433 LINE",
"557 343 LINE",
"400 343 LINE",
"400 624 LINE",
"111 624 LINE",
"111 714 LINE",
"33 714 LINE",
"33 472 LINE",
"111 472 LINE",
"111 556 LINE",
"322 556 LINE",
"322 69 LINE",
"170 69 LINE",
"170 0 LINE"
);
}
);
width = 679;
}
);
unicode = A571;
},
{
glyphname = uA572;
lastChange = "2017-01-31 20:33:09 +0000";
layers = (
{
layerId = UUID0;
paths = (
{
closed = 1;
nodes = (
"552 0 LINE",
"552 69 LINE",
"400 69 LINE",
"400 275 LINE",
"587 275 LINE",
"587 191 LINE",
"665 191 LINE",
"665 433 LINE",
"587 433 LINE",
"587 343 LINE",
"400 343 LINE",
"400 624 LINE",
"111 624 LINE",
"111 714 LINE",
"33 714 LINE",
"33 472 LINE",
"111 472 LINE",
"111 556 LINE",
"322 556 LINE",
"322 69 LINE",
"170 69 LINE",
"170 0 LINE"
);
},
{
closed = 1;
nodes = (
"523 125 OFFCURVE",
"543 143 OFFCURVE",
"543 175 CURVE SMOOTH",
"543 206 OFFCURVE",
"522 225 OFFCURVE",
"493 225 CURVE SMOOTH",
"464 225 OFFCURVE",
"443 206 OFFCURVE",
"443 175 CURVE SMOOTH",
"443 143 OFFCURVE",
"461 125 OFFCURVE",
"493 125 CURVE SMOOTH"
);
},
{
closed = 1;
nodes = (
"523 395 OFFCURVE",
"543 413 OFFCURVE",
"543 445 CURVE SMOOTH",
"543 476 OFFCURVE",
"522 495 OFFCURVE",
"493 495 CURVE SMOOTH",
"464 495 OFFCURVE",
"443 476 OFFCURVE",
"443 445 CURVE SMOOTH",
"443 413 OFFCURVE",
"461 395 OFFCURVE",
"493 395 CURVE SMOOTH"
);
}
);
width = 709;
}
);
unicode = A572;
},
{
glyphname = uA573;
lastChange = "2017-01-31 20:33:09 +0000";
layers = (
{
layerId = UUID0;
paths = (
{
closed = 1;
nodes = (
"552 0 LINE",
"552 69 LINE",
"400 69 LINE",
"400 275 LINE",
"517 275 LINE",
"517 191 LINE",
"595 191 LINE",
"595 433 LINE",
"517 433 LINE",
"517 343 LINE",
"400 343 LINE",
"400 624 LINE",
"111 624 LINE",
"111 714 LINE",
"33 714 LINE",
"33 472 LINE",
"111 472 LINE",
"111 556 LINE",
"322 556 LINE",
"322 343 LINE",
"201 343 LINE",
"201 433 LINE",
"123 433 LINE",
"123 191 LINE",
"201 191 LINE",
"201 275 LINE",
"322 275 LINE",
"322 69 LINE",
"170 69 LINE",
"170 0 LINE"
);
}
);
width = 679;
}
);
unicode = A573;
},
{
glyphname = uA574;
lastChange = "2017-01-31 20:33:09 +0000";
layers = (
{
layerId = UUID0;
paths = (
{
closed = 1;
nodes = (
"554 0 LINE",
"554 69 LINE",
"432 69 LINE",
"432 315 LINE",
"549 315 LINE",
"549 231 LINE",
"627 231 LINE",
"627 473 LINE",
"549 473 LINE",
"549 383 LINE",
"233 383 LINE",
"233 645 LINE",
"355 645 LINE",
"355 714 LINE",
"33 714 LINE",
"33 645 LINE",
"155 645 LINE",
"155 315 LINE",
"354 315 LINE",
"354 69 LINE",
"232 69 LINE",
"232 0 LINE"
);
}
);
width = 711;
}
);
unicode = A574;
},
{
glyphname = uA575;
lastChange = "2017-01-31 20:33:09 +0000";
layers = (
{
layerId = UUID0;
paths = (
{
closed = 1;
nodes = (
"554 0 LINE",
"554 69 LINE",
"432 69 LINE",
"432 315 LINE",
"619 315 LINE",
"619 231 LINE",
"697 231 LINE",
"697 473 LINE",
"619 473 LINE",
"619 383 LINE",
"233 383 LINE",
"233 645 LINE",
"355 645 LINE",
"355 714 LINE",
"33 714 LINE",
"33 645 LINE",
"155 645 LINE",
"155 315 LINE",
"354 315 LINE",
"354 69 LINE",
"232 69 LINE",
"232 0 LINE"
);
},
{
closed = 1;
nodes = (
"555 165 OFFCURVE",
"575 183 OFFCURVE",
"575 215 CURVE SMOOTH",
"575 246 OFFCURVE",
"554 265 OFFCURVE",
"525 265 CURVE SMOOTH",
"496 265 OFFCURVE",
"475 246 OFFCURVE",
"475 215 CURVE SMOOTH",
"475 183 OFFCURVE",
"493 165 OFFCURVE",
"525 165 CURVE SMOOTH"
);
},
{
closed = 1;
nodes = (
"555 435 OFFCURVE",
"575 453 OFFCURVE",
"575 485 CURVE SMOOTH",
"575 516 OFFCURVE",
"554 535 OFFCURVE",
"525 535 CURVE SMOOTH",
"496 535 OFFCURVE",
"475 516 OFFCURVE",
"475 485 CURVE SMOOTH",
"475 453 OFFCURVE",
"493 435 OFFCURVE",
"525 435 CURVE SMOOTH"
);
}
);
width = 741;
}
);
unicode = A575;
},
{
glyphname = uA576;
lastChange = "2017-01-31 20:33:09 +0000";
layers = (
{
layerId = UUID0;
paths = (
{
closed = 1;
nodes = (
"133 -10 LINE",
"133 17 LINE",
"165 2 OFFCURVE",
"204 -10 OFFCURVE",
"256 -10 CURVE SMOOTH",
"412 -10 OFFCURVE",
"511 64 OFFCURVE",
"511 191 CURVE SMOOTH",
"511 303 OFFCURVE",
"442 350 OFFCURVE",
"316 397 CURVE SMOOTH",
"200 440 OFFCURVE",
"147 469 OFFCURVE",
"147 541 CURVE SMOOTH",
"147 603 OFFCURVE",
"206 655 OFFCURVE",
"295 655 CURVE SMOOTH",
"347 655 OFFCURVE",
"388 639 OFFCURVE",
"420 623 CURVE",
"420 483 LINE",
"498 483 LINE",
"498 725 LINE",
"420 725 LINE",
"420 698 LINE",
"388 713 OFFCURVE",
"349 724 OFFCURVE",
"297 724 CURVE SMOOTH",
"162 724 OFFCURVE",
"69 655 OFFCURVE",
"69 542 CURVE SMOOTH",
"69 431 OFFCURVE",
"131 374 OFFCURVE",
"253 330 CURVE SMOOTH",
"382 283 OFFCURVE",
"432 253 OFFCURVE",
"432 183 CURVE SMOOTH",
"432 112 OFFCURVE",
"366 58 OFFCURVE",
"260 58 CURVE SMOOTH",
"208 58 OFFCURVE",
"166 74 OFFCURVE",
"133 91 CURVE",
"133 232 LINE",
"55 232 LINE",
"55 -10 LINE"
);
}
);
width = 566;
}
);
unicode = A576;
},
{
glyphname = uA577;
lastChange = "2017-01-31 20:33:09 +0000";
layers = (
{
layerId = UUID0;
paths = (
{
closed = 1;
nodes = (
"133 -10 LINE",
"133 17 LINE",
"165 2 OFFCURVE",
"204 -10 OFFCURVE",
"256 -10 CURVE SMOOTH",
"412 -10 OFFCURVE",
"511 64 OFFCURVE",
"511 191 CURVE SMOOTH",
"511 303 OFFCURVE",
"442 347 OFFCURVE",
"316 394 CURVE SMOOTH",
"200 437 OFFCURVE",
"147 469 OFFCURVE",
"147 541 CURVE SMOOTH",
"147 613 OFFCURVE",
"206 655 OFFCURVE",
"295 655 CURVE SMOOTH",
"347 655 OFFCURVE",
"388 639 OFFCURVE",
"420 623 CURVE",
"420 483 LINE",
"498 483 LINE",
"498 725 LINE",
"420 725 LINE",
"420 698 LINE",
"388 713 OFFCURVE",
"349 724 OFFCURVE",
"297 724 CURVE SMOOTH",
"162 724 OFFCURVE",
"69 655 OFFCURVE",
"69 542 CURVE SMOOTH",
"69 431 OFFCURVE",
"131 377 OFFCURVE",
"253 333 CURVE SMOOTH",
"382 286 OFFCURVE",
"432 253 OFFCURVE",
"432 183 CURVE SMOOTH",
"432 103 OFFCURVE",
"366 58 OFFCURVE",
"260 58 CURVE SMOOTH",
"208 58 OFFCURVE",
"166 74 OFFCURVE",
"133 91 CURVE",
"133 232 LINE",
"55 232 LINE",
"55 -10 LINE"
);
},
{
closed = 1;
nodes = (
"326 135 OFFCURVE",
"346 153 OFFCURVE",
"346 185 CURVE SMOOTH",
"346 216 OFFCURVE",
"325 235 OFFCURVE",
"296 235 CURVE SMOOTH",
"267 235 OFFCURVE",
"246 216 OFFCURVE",
"246 185 CURVE SMOOTH",
"246 153 OFFCURVE",
"264 135 OFFCURVE",
"296 135 CURVE SMOOTH"
);
},
{
closed = 1;
nodes = (
"326 485 OFFCURVE",
"346 503 OFFCURVE",
"346 535 CURVE SMOOTH",
"346 566 OFFCURVE",
"325 585 OFFCURVE",
"296 585 CURVE SMOOTH",
"267 585 OFFCURVE",
"246 566 OFFCURVE",
"246 535 CURVE SMOOTH",
"246 503 OFFCURVE",
"264 485 OFFCURVE",
"296 485 CURVE SMOOTH"
);
}
);
width = 566;
}
);
unicode = A577;
},
{
glyphname = uA578;
lastChange = "2017-01-31 20:33:09 +0000";
layers = (
{
layerId = UUID0;
paths = (
{
closed = 1;
nodes = (
"596 -7 OFFCURVE",
"648 43 OFFCURVE",
"648 107 CURVE SMOOTH",
"648 203 OFFCURVE",
"556 228 OFFCURVE",
"486 228 CURVE SMOOTH",
"389 228 OFFCURVE",
"277 171 OFFCURVE",
"193 93 CURVE",
"189 93 LINE",
"189 494 LINE",
"252 566 OFFCURVE",
"364 649 OFFCURVE",
"486 649 CURVE SMOOTH",
"542 649 OFFCURVE",
"575 625 OFFCURVE",
"575 596 CURVE SMOOTH",
"575 559 OFFCURVE",
"540 550 OFFCURVE",
"525 550 CURVE",
"525 487 LINE",
"596 487 OFFCURVE",
"648 532 OFFCURVE",
"648 596 CURVE SMOOTH",
"648 692 OFFCURVE",
"556 722 OFFCURVE",
"486 722 CURVE SMOOTH",
"359 722 OFFCURVE",
"218 638 OFFCURVE",
"111 517 CURVE",
"111 0 LINE",
"189 0 LINE",
"252 72 OFFCURVE",
"364 155 OFFCURVE",
"486 155 CURVE SMOOTH",
"542 155 OFFCURVE",
"575 131 OFFCURVE",
"575 102 CURVE SMOOTH",
"575 65 OFFCURVE",
"540 56 OFFCURVE",
"525 56 CURVE",
"525 -7 LINE"
);
},
{
closed = 1;
nodes = (
"410 334 OFFCURVE",
"428 352 OFFCURVE",
"428 384 CURVE SMOOTH",
"428 415 OFFCURVE",
"407 434 OFFCURVE",
"378 434 CURVE SMOOTH",
"349 434 OFFCURVE",
"328 415 OFFCURVE",
"328 384 CURVE SMOOTH",
"328 352 OFFCURVE",
"348 334 OFFCURVE",
"378 334 CURVE SMOOTH"
);
}
);
width = 736;
}
);
unicode = A578;
},
{
glyphname = uA579;
lastChange = "2017-01-31 20:33:09 +0000";
layers = (
{
layerId = UUID0;
paths = (
{
closed = 1;
nodes = (
"230 242 OFFCURVE",
"282 277 OFFCURVE",
"295 338 CURVE",
"591 338 LINE",
"604 277 OFFCURVE",
"652 242 OFFCURVE",
"720 242 CURVE SMOOTH",
"797 242 OFFCURVE",
"854 290 OFFCURVE",
"854 372 CURVE SMOOTH",
"854 451 OFFCURVE",
"796 499 OFFCURVE",
"720 499 CURVE SMOOTH",
"653 499 OFFCURVE",
"605 465 OFFCURVE",
"592 407 CURVE",
"295 407 LINE",
"280 465 OFFCURVE",
"229 499 OFFCURVE",
"165 499 CURVE SMOOTH",
"86 499 OFFCURVE",
"33 451 OFFCURVE",
"33 371 CURVE SMOOTH",
"33 290 OFFCURVE",
"86 242 OFFCURVE",
"165 242 CURVE SMOOTH"
);
}
);
width = 887;
}
);
unicode = A579;
},
{
glyphname = uA57A;
lastChange = "2017-01-31 20:33:09 +0000";
layers = (
{
layerId = UUID0;
paths = (
{
closed = 1;
nodes = (
"327 0 LINE",
"533 356 LINE",
"329 712 LINE",
"272 712 LINE",
"66 356 LINE",
"270 0 LINE"
);
},
{
closed = 1;
nodes = (
"148 367 LINE",
"295 624 LINE",
"452 347 LINE",
"305 89 LINE"
);
}
);
width = 599;
}
);
unicode = A57A;
},
{
glyphname = uA57B;
lastChange = "2017-01-31 20:33:09 +0000";
layers = (
{
layerId = UUID0;
paths = (
{
closed = 1;
nodes = (
"425 0 LINE",
"631 356 LINE",
"427 712 LINE",
"370 712 LINE",
"164 356 LINE",
"368 0 LINE"
);
},
{
closed = 1;
nodes = (
"113 307 OFFCURVE",
"133 325 OFFCURVE",
"133 357 CURVE SMOOTH",
"133 388 OFFCURVE",
"112 407 OFFCURVE",
"83 407 CURVE SMOOTH",
"54 407 OFFCURVE",
"33 388 OFFCURVE",
"33 357 CURVE SMOOTH",
"33 325 OFFCURVE",
"51 307 OFFCURVE",
"83 307 CURVE SMOOTH"
);
},
{
closed = 1;
nodes = (
"246 367 LINE",
"393 624 LINE",
"550 347 LINE",
"403 89 LINE"
);
},
{
closed = 1;
nodes = (
"740 305 OFFCURVE",
"760 323 OFFCURVE",
"760 355 CURVE SMOOTH",
"760 386 OFFCURVE",
"739 405 OFFCURVE",
"710 405 CURVE SMOOTH",
"681 405 OFFCURVE",
"660 386 OFFCURVE",
"660 355 CURVE SMOOTH",
"660 323 OFFCURVE",
"678 305 OFFCURVE",
"710 305 CURVE SMOOTH"
);
}
);
width = 793;
}
);
unicode = A57B;
},
{
glyphname = uA57C;
lastChange = "2017-01-31 20:33:09 +0000";
layers = (
{
layerId = UUID0;
paths = (
{
closed = 1;
nodes = (
"482 0 LINE",
"482 714 LINE",
"404 714 LINE",
"404 579 LINE",
"88 579 LINE",
"88 178 LINE",
"404 178 LINE",
"404 0 LINE"
);
},
{
closed = 1;
nodes = (
"166 511 LINE",
"404 511 LINE",
"404 247 LINE",
"166 247 LINE"
);
}
);
width = 593;
}
);
unicode = A57C;
},
{
glyphname = uA57D;
lastChange = "2017-01-31 20:33:09 +0000";
layers = (
{
layerId = UUID0;
paths = (
{
closed = 1;
nodes = (
"402 0 LINE",
"402 210 LINE",
"554 210 LINE",
"554 279 LINE",
"402 279 LINE",
"402 480 LINE",
"406 480 LINE",
"429 433 OFFCURVE",
"483 425 OFFCURVE",
"504 425 CURVE SMOOTH",
"598 425 OFFCURVE",
"661 477 OFFCURVE",
"661 646 CURVE SMOOTH",
"661 714 LINE",
"583 714 LINE",
"583 645 LINE SMOOTH",
"583 540 OFFCURVE",
"547 491 OFFCURVE",
"494 491 CURVE SMOOTH",
"444 491 OFFCURVE",
"402 527 OFFCURVE",
"402 623 CURVE SMOOTH",
"402 714 LINE",
"324 714 LINE",
"324 623 LINE SMOOTH",
"324 527 OFFCURVE",
"282 491 OFFCURVE",
"232 491 CURVE SMOOTH",
"179 491 OFFCURVE",
"143 540 OFFCURVE",
"143 645 CURVE SMOOTH",
"143 714 LINE",
"65 714 LINE",
"65 646 LINE SMOOTH",
"65 477 OFFCURVE",
"128 425 OFFCURVE",
"222 425 CURVE SMOOTH",
"247 425 OFFCURVE",
"293 435 OFFCURVE",
"320 480 CURVE",
"324 480 LINE",
"324 279 LINE",
"172 279 LINE",
"172 210 LINE",
"324 210 LINE",
"324 0 LINE"
);
}
);
width = 726;
}
);
unicode = A57D;
},
{
glyphname = uA57E;
lastChange = "2017-01-31 20:33:09 +0000";
layers = (
{
layerId = UUID0;
paths = (
{
closed = 1;
nodes = (
"402 0 LINE",
"402 90 LINE",
"554 90 LINE",
"554 159 LINE",
"402 159 LINE",
"402 210 LINE",
"554 210 LINE",
"554 279 LINE",
"402 279 LINE",
"402 480 LINE",
"406 480 LINE",
"429 433 OFFCURVE",
"483 425 OFFCURVE",
"504 425 CURVE SMOOTH",
"598 425 OFFCURVE",
"661 477 OFFCURVE",
"661 646 CURVE SMOOTH",
"661 714 LINE",
"583 714 LINE",
"583 645 LINE SMOOTH",
"583 540 OFFCURVE",
"547 491 OFFCURVE",
"494 491 CURVE SMOOTH",
"444 491 OFFCURVE",
"402 527 OFFCURVE",
"402 623 CURVE SMOOTH",
"402 714 LINE",
"324 714 LINE",
"324 623 LINE SMOOTH",
"324 527 OFFCURVE",
"282 491 OFFCURVE",
"232 491 CURVE SMOOTH",
"179 491 OFFCURVE",
"143 540 OFFCURVE",
"143 645 CURVE SMOOTH",
"143 714 LINE",
"65 714 LINE",
"65 646 LINE SMOOTH",
"65 477 OFFCURVE",
"128 425 OFFCURVE",
"222 425 CURVE SMOOTH",
"247 425 OFFCURVE",
"293 435 OFFCURVE",
"320 480 CURVE",
"324 480 LINE",
"324 279 LINE",
"172 279 LINE",
"172 210 LINE",
"324 210 LINE",
"324 159 LINE",
"172 159 LINE",
"172 90 LINE",
"324 90 LINE",
"324 0 LINE"
);
}
);
width = 726;
}
);
unicode = A57E;
},
{
glyphname = uA57F;
lastChange = "2017-01-31 20:33:09 +0000";
layers = (
{
layerId = UUID0;
paths = (
{
closed = 1;
nodes = (
"644 58 LINE",
"468 58 OFFCURVE",
"376 172 OFFCURVE",
"376 356 CURVE SMOOTH",
"376 536 OFFCURVE",
"482 659 OFFCURVE",
"644 659 CURVE",
"639 727 LINE",
"432 727 OFFCURVE",
"298 577 OFFCURVE",
"298 356 CURVE SMOOTH",
"298 130 OFFCURVE",
"413 -10 OFFCURVE",
"639 -10 CURVE"
);
},
{
closed = 1;
nodes = (
"191 -1 OFFCURVE",
"211 17 OFFCURVE",
"211 49 CURVE SMOOTH",
"211 80 OFFCURVE",
"190 99 OFFCURVE",
"161 99 CURVE SMOOTH",
"132 99 OFFCURVE",
"111 80 OFFCURVE",
"111 49 CURVE SMOOTH",
"111 17 OFFCURVE",
"129 -1 OFFCURVE",
"161 -1 CURVE SMOOTH"
);
},
{
closed = 1;
nodes = (
"191 304 OFFCURVE",
"211 322 OFFCURVE",
"211 354 CURVE SMOOTH",
"211 385 OFFCURVE",
"190 404 OFFCURVE",
"161 404 CURVE SMOOTH",
"132 404 OFFCURVE",
"111 385 OFFCURVE",
"111 354 CURVE SMOOTH",
"111 322 OFFCURVE",
"129 304 OFFCURVE",
"161 304 CURVE SMOOTH"
);
},
{
closed = 1;
nodes = (
"191 614 OFFCURVE",
"211 632 OFFCURVE",
"211 664 CURVE SMOOTH",
"211 695 OFFCURVE",
"190 714 OFFCURVE",
"161 714 CURVE SMOOTH",
"132 714 OFFCURVE",
"111 695 OFFCURVE",
"111 664 CURVE SMOOTH",
"111 632 OFFCURVE",
"129 614 OFFCURVE",
"161 614 CURVE SMOOTH"
);
}
);
width = 688;
}
);
unicode = A57F;
},
{
glyphname = uA580;
lastChange = "2017-01-31 20:33:09 +0000";
layers = (
{
layerId = UUID0;
paths = (
{
closed = 1;
nodes = (
"644 58 LINE",
"468 58 OFFCURVE",
"376 172 OFFCURVE",
"376 356 CURVE SMOOTH",
"376 536 OFFCURVE",
"482 659 OFFCURVE",
"644 659 CURVE",
"639 727 LINE",
"432 727 OFFCURVE",
"298 577 OFFCURVE",
"298 356 CURVE SMOOTH",
"298 130 OFFCURVE",
"413 -10 OFFCURVE",
"639 -10 CURVE"
);
},
{
closed = 1;
nodes = (
"191 -1 OFFCURVE",
"211 17 OFFCURVE",
"211 49 CURVE SMOOTH",
"211 80 OFFCURVE",
"190 99 OFFCURVE",
"161 99 CURVE SMOOTH",
"132 99 OFFCURVE",
"111 80 OFFCURVE",
"111 49 CURVE SMOOTH",
"111 17 OFFCURVE",
"129 -1 OFFCURVE",
"161 -1 CURVE SMOOTH"
);
},
{
closed = 1;
nodes = (
"191 304 OFFCURVE",
"211 322 OFFCURVE",
"211 354 CURVE SMOOTH",
"211 385 OFFCURVE",
"190 404 OFFCURVE",
"161 404 CURVE SMOOTH",
"132 404 OFFCURVE",
"111 385 OFFCURVE",
"111 354 CURVE SMOOTH",
"111 322 OFFCURVE",
"129 304 OFFCURVE",
"161 304 CURVE SMOOTH"
);
},
{
closed = 1;
nodes = (
"191 614 OFFCURVE",
"211 632 OFFCURVE",
"211 664 CURVE SMOOTH",
"211 695 OFFCURVE",
"190 714 OFFCURVE",
"161 714 CURVE SMOOTH",
"132 714 OFFCURVE",
"111 695 OFFCURVE",
"111 664 CURVE SMOOTH",
"111 632 OFFCURVE",
"129 614 OFFCURVE",
"161 614 CURVE SMOOTH"
);
},
{
closed = 1;
nodes = (
"560 304 OFFCURVE",
"580 322 OFFCURVE",
"580 354 CURVE SMOOTH",
"580 385 OFFCURVE",
"559 404 OFFCURVE",
"530 404 CURVE SMOOTH",
"501 404 OFFCURVE",
"480 385 OFFCURVE",
"480 354 CURVE SMOOTH",
"480 322 OFFCURVE",
"498 304 OFFCURVE",
"530 304 CURVE SMOOTH"
);
}
);
width = 688;
}
);
unicode = A580;
},
{
glyphname = uA581;
lastChange = "2017-01-31 20:33:09 +0000";
layers = (
{
layerId = UUID0;
paths = (
{
closed = 1;
nodes = (
"444 0 LINE",
"444 69 LINE",
"372 69 LINE",
"372 480 LINE",
"376 480 LINE",
"399 433 OFFCURVE",
"443 425 OFFCURVE",
"464 425 CURVE SMOOTH",
"489 425 OFFCURVE",
"525 435 OFFCURVE",
"552 480 CURVE",
"556 480 LINE",
"556 69 LINE",
"484 69 LINE",
"484 0 LINE",
"716 0 LINE",
"716 69 LINE",
"634 69 LINE",
"634 480 LINE",
"638 480 LINE",
"661 433 OFFCURVE",
"705 425 OFFCURVE",
"726 425 CURVE SMOOTH",
"820 425 OFFCURVE",
"873 477 OFFCURVE",
"873 646 CURVE SMOOTH",
"873 714 LINE",
"795 714 LINE",
"795 645 LINE SMOOTH",
"795 540 OFFCURVE",
"769 491 OFFCURVE",
"716 491 CURVE SMOOTH",
"666 491 OFFCURVE",
"634 527 OFFCURVE",
"634 623 CURVE SMOOTH",
"634 714 LINE",
"556 714 LINE",
"556 623 LINE SMOOTH",
"556 527 OFFCURVE",
"520 491 OFFCURVE",
"464 491 CURVE SMOOTH",
"408 491 OFFCURVE",
"372 527 OFFCURVE",
"372 623 CURVE SMOOTH",
"372 714 LINE",
"294 714 LINE",
"294 623 LINE SMOOTH",
"294 527 OFFCURVE",
"262 491 OFFCURVE",
"212 491 CURVE SMOOTH",
"159 491 OFFCURVE",
"133 540 OFFCURVE",
"133 645 CURVE SMOOTH",
"133 714 LINE",
"55 714 LINE",
"55 646 LINE SMOOTH",
"55 477 OFFCURVE",
"108 425 OFFCURVE",
"202 425 CURVE SMOOTH",
"227 425 OFFCURVE",
"263 435 OFFCURVE",
"290 480 CURVE",
"294 480 LINE",
"294 69 LINE",
"212 69 LINE",
"212 0 LINE"
);
}
);
width = 928;
}
);
unicode = A581;
},
{
glyphname = uA582;
lastChange = "2017-01-31 20:33:09 +0000";
layers = (
{
layerId = UUID0;
paths = (
{
closed = 1;
nodes = (
"444 0 LINE",
"444 69 LINE",
"372 69 LINE",
"372 480 LINE",
"376 480 LINE",
"399 433 OFFCURVE",
"443 425 OFFCURVE",
"464 425 CURVE SMOOTH",
"489 425 OFFCURVE",
"525 435 OFFCURVE",
"552 480 CURVE",
"556 480 LINE",
"556 69 LINE",
"484 69 LINE",
"484 0 LINE",
"716 0 LINE",
"716 69 LINE",
"634 69 LINE",
"634 480 LINE",
"638 480 LINE",
"661 433 OFFCURVE",
"705 425 OFFCURVE",
"726 425 CURVE SMOOTH",
"820 425 OFFCURVE",
"873 477 OFFCURVE",
"873 646 CURVE SMOOTH",
"873 714 LINE",
"795 714 LINE",
"795 645 LINE SMOOTH",
"795 540 OFFCURVE",
"769 491 OFFCURVE",
"716 491 CURVE SMOOTH",
"666 491 OFFCURVE",
"634 527 OFFCURVE",
"634 623 CURVE SMOOTH",
"634 714 LINE",
"556 714 LINE",
"556 623 LINE SMOOTH",
"556 527 OFFCURVE",
"520 491 OFFCURVE",
"464 491 CURVE SMOOTH",
"408 491 OFFCURVE",
"372 527 OFFCURVE",
"372 623 CURVE SMOOTH",
"372 714 LINE",
"294 714 LINE",
"294 623 LINE SMOOTH",
"294 527 OFFCURVE",
"262 491 OFFCURVE",
"212 491 CURVE SMOOTH",
"159 491 OFFCURVE",
"133 540 OFFCURVE",
"133 645 CURVE SMOOTH",
"133 714 LINE",
"55 714 LINE",
"55 646 LINE SMOOTH",
"55 477 OFFCURVE",
"108 425 OFFCURVE",
"202 425 CURVE SMOOTH",
"227 425 OFFCURVE",
"263 435 OFFCURVE",
"290 480 CURVE",
"294 480 LINE",
"294 69 LINE",
"212 69 LINE",
"212 0 LINE"
);
},
{
closed = 1;
nodes = (
"494 245 OFFCURVE",
"514 263 OFFCURVE",
"514 295 CURVE SMOOTH",
"514 326 OFFCURVE",
"493 345 OFFCURVE",
"464 345 CURVE SMOOTH",
"435 345 OFFCURVE",
"414 326 OFFCURVE",
"414 295 CURVE SMOOTH",
"414 263 OFFCURVE",
"432 245 OFFCURVE",
"464 245 CURVE SMOOTH"
);
}
);
width = 928;
}
);
unicode = A582;
},
{
glyphname = uA583;
lastChange = "2017-01-31 20:33:09 +0000";
layers = (
{
layerId = UUID0;
paths = (
{
closed = 1;
nodes = (
"608 -10 OFFCURVE",
"652 74 OFFCURVE",
"652 335 CURVE",
"676 347 OFFCURVE",
"704 358 OFFCURVE",
"735 369 CURVE",
"735 184 LINE",
"813 184 LINE",
"813 456 LINE",
"720 441 OFFCURVE",
"684 420 OFFCURVE",
"652 405 CURVE",
"652 714 LINE",
"574 714 LINE",
"574 645 LINE SMOOTH",
"574 540 OFFCURVE",
"537 491 OFFCURVE",
"486 491 CURVE SMOOTH",
"433 491 OFFCURVE",
"392 527 OFFCURVE",
"392 621 CURVE SMOOTH",
"392 714 LINE",
"314 714 LINE",
"314 623 LINE SMOOTH",
"314 527 OFFCURVE",
"272 491 OFFCURVE",
"227 491 CURVE SMOOTH",
"169 491 OFFCURVE",
"133 540 OFFCURVE",
"133 643 CURVE SMOOTH",
"133 714 LINE",
"55 714 LINE",
"55 643 LINE SMOOTH",
"55 477 OFFCURVE",
"118 425 OFFCURVE",
"212 425 CURVE SMOOTH",
"264 425 OFFCURVE",
"319 447 OFFCURVE",
"349 515 CURVE",
"353 515 LINE",
"374 445 OFFCURVE",
"433 425 OFFCURVE",
"473 425 CURVE SMOOTH",
"505 425 OFFCURVE",
"549 443 OFFCURVE",
"570 490 CURVE",
"574 490 LINE",
"574 363 LINE",
"462 292 OFFCURVE",
"405 197 OFFCURVE",
"405 121 CURVE SMOOTH",
"405 31 OFFCURVE",
"462 -10 OFFCURVE",
"513 -10 CURVE SMOOTH"
);
},
{
closed = 1;
nodes = (
"486 58 OFFCURVE",
"473 82 OFFCURVE",
"473 123 CURVE SMOOTH",
"473 164 OFFCURVE",
"496 228 OFFCURVE",
"574 287 CURVE",
"574 106 OFFCURVE",
"546 58 OFFCURVE",
"513 58 CURVE SMOOTH"
);
}
);
width = 857;
}
);
unicode = A583;
},
{
glyphname = uA584;
lastChange = "2017-01-31 20:33:09 +0000";
layers = (
{
layerId = UUID0;
paths = (
{
closed = 1;
nodes = (
"608 -10 OFFCURVE",
"652 74 OFFCURVE",
"652 335 CURVE",
"676 347 OFFCURVE",
"704 358 OFFCURVE",
"735 369 CURVE",
"735 184 LINE",
"813 184 LINE",
"813 456 LINE",
"720 441 OFFCURVE",
"684 420 OFFCURVE",
"652 405 CURVE",
"652 714 LINE",
"574 714 LINE",
"574 645 LINE SMOOTH",
"574 540 OFFCURVE",
"537 491 OFFCURVE",
"486 491 CURVE SMOOTH",
"433 491 OFFCURVE",
"392 527 OFFCURVE",
"392 621 CURVE SMOOTH",
"392 714 LINE",
"314 714 LINE",
"314 623 LINE SMOOTH",
"314 527 OFFCURVE",
"272 491 OFFCURVE",
"227 491 CURVE SMOOTH",
"169 491 OFFCURVE",
"133 540 OFFCURVE",
"133 643 CURVE SMOOTH",
"133 714 LINE",
"55 714 LINE",
"55 643 LINE SMOOTH",
"55 477 OFFCURVE",
"118 425 OFFCURVE",
"212 425 CURVE SMOOTH",
"264 425 OFFCURVE",
"319 447 OFFCURVE",
"349 515 CURVE",
"353 515 LINE",
"374 445 OFFCURVE",
"433 425 OFFCURVE",
"473 425 CURVE SMOOTH",
"505 425 OFFCURVE",
"549 443 OFFCURVE",
"570 490 CURVE",
"574 490 LINE",
"574 363 LINE",
"462 292 OFFCURVE",
"405 197 OFFCURVE",
"405 121 CURVE SMOOTH",
"405 31 OFFCURVE",
"462 -10 OFFCURVE",
"513 -10 CURVE SMOOTH"
);
},
{
closed = 1;
nodes = (
"279 -123 OFFCURVE",
"303 -114 OFFCURVE",
"334 -114 CURVE SMOOTH",
"378 -114 OFFCURVE",
"450 -151 OFFCURVE",
"506 -151 CURVE SMOOTH",
"569 -151 OFFCURVE",
"606 -123 OFFCURVE",
"631 -60 CURVE",
"585 -33 LINE",
"565 -72 OFFCURVE",
"541 -81 OFFCURVE",
"510 -81 CURVE SMOOTH",
"468 -81 OFFCURVE",
"397 -44 OFFCURVE",
"338 -44 CURVE SMOOTH",
"275 -44 OFFCURVE",
"238 -72 OFFCURVE",
"213 -135 CURVE",
"259 -162 LINE"
);
},
{
closed = 1;
nodes = (
"486 58 OFFCURVE",
"473 82 OFFCURVE",
"473 123 CURVE SMOOTH",
"473 164 OFFCURVE",
"496 228 OFFCURVE",
"574 287 CURVE",
"574 106 OFFCURVE",
"546 58 OFFCURVE",
"513 58 CURVE SMOOTH"
);
}
);
width = 857;
}
);
unicode = A584;
},
{
glyphname = uA585;
lastChange = "2017-01-31 20:33:09 +0000";
layers = (
{
layerId = UUID0;
paths = (
{
closed = 1;
nodes = (
"630 0 LINE",
"630 69 LINE",
"470 69 LINE",
"470 335 LINE",
"713 335 LINE",
"713 175 LINE",
"791 175 LINE",
"791 563 LINE",
"713 563 LINE",
"713 403 LINE",
"470 403 LINE",
"470 645 LINE",
"630 645 LINE",
"630 714 LINE",
"232 714 LINE",
"232 645 LINE",
"392 645 LINE",
"392 403 LINE",
"155 403 LINE",
"155 563 LINE",
"77 563 LINE",
"77 175 LINE",
"155 175 LINE",
"155 335 LINE",
"392 335 LINE",
"392 69 LINE",
"232 69 LINE",
"232 0 LINE"
);
}
);
width = 868;
}
);
unicode = A585;
},
{
glyphname = uA586;
lastChange = "2017-01-31 20:33:09 +0000";
layers = (
{
layerId = UUID0;
paths = (
{
closed = 1;
nodes = (
"616 -10 OFFCURVE",
"652 81 OFFCURVE",
"652 316 CURVE",
"675 323 OFFCURVE",
"684 326 OFFCURVE",
"696 333 CURVE",
"698 330 LINE",
"692 321 OFFCURVE",
"685 306 OFFCURVE",
"685 288 CURVE SMOOTH",
"685 221 OFFCURVE",
"729 182 OFFCURVE",
"794 182 CURVE SMOOTH",
"858 182 OFFCURVE",
"905 221 OFFCURVE",
"905 289 CURVE SMOOTH",
"905 358 OFFCURVE",
"860 393 OFFCURVE",
"768 393 CURVE SMOOTH",
"725 393 OFFCURVE",
"687 388 OFFCURVE",
"652 379 CURVE",
"652 714 LINE",
"574 714 LINE",
"574 645 LINE SMOOTH",
"574 540 OFFCURVE",
"537 491 OFFCURVE",
"486 491 CURVE SMOOTH",
"433 491 OFFCURVE",
"392 527 OFFCURVE",
"392 621 CURVE SMOOTH",
"392 714 LINE",
"314 714 LINE",
"314 623 LINE SMOOTH",
"314 527 OFFCURVE",
"272 491 OFFCURVE",
"227 491 CURVE SMOOTH",
"169 491 OFFCURVE",
"133 540 OFFCURVE",
"133 643 CURVE SMOOTH",
"133 714 LINE",
"55 714 LINE",
"55 643 LINE SMOOTH",
"55 477 OFFCURVE",
"118 425 OFFCURVE",
"212 425 CURVE SMOOTH",
"264 425 OFFCURVE",
"319 447 OFFCURVE",
"349 515 CURVE",
"353 515 LINE",
"374 445 OFFCURVE",
"433 425 OFFCURVE",
"473 425 CURVE SMOOTH",
"505 425 OFFCURVE",
"549 443 OFFCURVE",
"570 490 CURVE",
"574 490 LINE",
"574 351 LINE",
"462 296 OFFCURVE",
"405 199 OFFCURVE",
"405 121 CURVE SMOOTH",
"405 31 OFFCURVE",
"462 -10 OFFCURVE",
"513 -10 CURVE SMOOTH"
);
},
{
closed = 1;
nodes = (
"486 58 OFFCURVE",
"473 82 OFFCURVE",
"473 123 CURVE SMOOTH",
"473 160 OFFCURVE",
"504 227 OFFCURVE",
"574 276 CURVE",
"574 106 OFFCURVE",
"546 58 OFFCURVE",
"513 58 CURVE SMOOTH"
);
},
{
closed = 1;
nodes = (
"762 238 OFFCURVE",
"744 256 OFFCURVE",
"744 288 CURVE SMOOTH",
"744 309 OFFCURVE",
"751 326 OFFCURVE",
"760 337 CURVE",
"769 338 OFFCURVE",
"778 338 OFFCURVE",
"788 338 CURVE SMOOTH",
"823 338 OFFCURVE",
"844 319 OFFCURVE",
"844 288 CURVE SMOOTH",
"844 256 OFFCURVE",
"824 238 OFFCURVE",
"794 238 CURVE SMOOTH"
);
}
);
width = 938;
}
);
unicode = A586;
},
{
glyphname = uA587;
lastChange = "2017-01-31 20:33:09 +0000";
layers = (
{
layerId = UUID0;
paths = (
{
closed = 1;
nodes = (
"747 0 LINE",
"747 69 LINE",
"595 69 LINE",
"595 714 LINE",
"517 714 LINE",
"517 403 LINE",
"375 403 LINE",
"375 714 LINE",
"297 714 LINE",
"297 403 LINE",
"155 403 LINE",
"155 714 LINE",
"77 714 LINE",
"77 334 LINE",
"517 334 LINE",
"517 69 LINE",
"365 69 LINE",
"365 0 LINE"
);
}
);
width = 780;
}
);
unicode = A587;
},
{
glyphname = uA588;
lastChange = "2017-01-31 20:33:09 +0000";
layers = (
{
layerId = UUID0;
paths = (
{
closed = 1;
nodes = (
"747 0 LINE",
"747 69 LINE",
"595 69 LINE",
"595 714 LINE",
"517 714 LINE",
"517 403 LINE",
"375 403 LINE",
"375 714 LINE",
"297 714 LINE",
"297 403 LINE",
"155 403 LINE",
"155 714 LINE",
"77 714 LINE",
"77 334 LINE",
"517 334 LINE",
"517 69 LINE",
"365 69 LINE",
"365 0 LINE"
);
},
{
closed = 1;
nodes = (
"422 145 OFFCURVE",
"442 163 OFFCURVE",
"442 195 CURVE SMOOTH",
"442 226 OFFCURVE",
"421 245 OFFCURVE",
"392 245 CURVE SMOOTH",
"363 245 OFFCURVE",
"342 226 OFFCURVE",
"342 195 CURVE SMOOTH",
"342 163 OFFCURVE",
"360 145 OFFCURVE",
"392 145 CURVE SMOOTH"
);
},
{
closed = 1;
nodes = (
"748 145 OFFCURVE",
"768 163 OFFCURVE",
"768 195 CURVE SMOOTH",
"768 226 OFFCURVE",
"747 245 OFFCURVE",
"718 245 CURVE SMOOTH",
"689 245 OFFCURVE",
"668 226 OFFCURVE",
"668 195 CURVE SMOOTH",
"668 163 OFFCURVE",
"686 145 OFFCURVE",
"718 145 CURVE SMOOTH"
);
}
);
width = 801;
}
);
unicode = A588;
},
{
glyphname = uA589;
lastChange = "2017-01-31 20:33:09 +0000";
layers = (
{
layerId = UUID0;
paths = (
{
closed = 1;
nodes = (
"339 -10 OFFCURVE",
"422 50 OFFCURVE",
"422 183 CURVE SMOOTH",
"422 272 OFFCURVE",
"379 336 OFFCURVE",
"320 358 CURVE",
"320 362 LINE",
"377 382 OFFCURVE",
"418 450 OFFCURVE",
"418 534 CURVE SMOOTH",
"418 664 OFFCURVE",
"334 725 OFFCURVE",
"249 725 CURVE SMOOTH",
"167 725 OFFCURVE",
"81 664 OFFCURVE",
"81 534 CURVE SMOOTH",
"81 450 OFFCURVE",
"131 381 OFFCURVE",
"188 361 CURVE",
"188 357 LINE",
"132 335 OFFCURVE",
"77 272 OFFCURVE",
"77 183 CURVE SMOOTH",
"77 50 OFFCURVE",
"158 -10 OFFCURVE",
"249 -10 CURVE SMOOTH"
);
},
{
closed = 1;
nodes = (
"193 58 OFFCURVE",
"155 93 OFFCURVE",
"155 183 CURVE SMOOTH",
"155 273 OFFCURVE",
"198 329 OFFCURVE",
"249 329 CURVE SMOOTH",
"301 329 OFFCURVE",
"344 273 OFFCURVE",
"344 183 CURVE",
"344 93 OFFCURVE",
"304 58 OFFCURVE",
"249 58 CURVE SMOOTH"
);
},
{
closed = 1;
nodes = (
"197 394 OFFCURVE",
"159 448 OFFCURVE",
"159 534 CURVE SMOOTH",
"159 620 OFFCURVE",
"201 657 OFFCURVE",
"249 657 CURVE SMOOTH",
"299 657 OFFCURVE",
"340 620 OFFCURVE",
"340 534 CURVE",
"340 448 OFFCURVE",
"301 394 OFFCURVE",
"249 394 CURVE SMOOTH"
);
}
);
width = 499;
}
);
unicode = A589;
},
{
glyphname = uA58A;
lastChange = "2017-01-31 20:33:09 +0000";
layers = (
{
layerId = UUID0;
paths = (
{
closed = 1;
nodes = (
"448 -10 OFFCURVE",
"531 50 OFFCURVE",
"531 183 CURVE SMOOTH",
"531 272 OFFCURVE",
"488 336 OFFCURVE",
"429 358 CURVE",
"429 362 LINE",
"486 382 OFFCURVE",
"527 450 OFFCURVE",
"527 534 CURVE SMOOTH",
"527 664 OFFCURVE",
"443 725 OFFCURVE",
"358 725 CURVE SMOOTH",
"276 725 OFFCURVE",
"190 664 OFFCURVE",
"190 534 CURVE SMOOTH",
"190 450 OFFCURVE",
"240 381 OFFCURVE",
"297 361 CURVE",
"297 357 LINE",
"241 335 OFFCURVE",
"186 272 OFFCURVE",
"186 183 CURVE SMOOTH",
"186 50 OFFCURVE",
"267 -10 OFFCURVE",
"358 -10 CURVE SMOOTH"
);
},
{
closed = 1;
nodes = (
"124 173 OFFCURVE",
"144 191 OFFCURVE",
"144 223 CURVE SMOOTH",
"144 254 OFFCURVE",
"123 273 OFFCURVE",
"94 273 CURVE SMOOTH",
"65 273 OFFCURVE",
"44 254 OFFCURVE",
"44 223 CURVE SMOOTH",
"44 191 OFFCURVE",
"62 173 OFFCURVE",
"94 173 CURVE SMOOTH"
);
},
{
closed = 1;
nodes = (
"302 58 OFFCURVE",
"264 93 OFFCURVE",
"264 183 CURVE SMOOTH",
"264 273 OFFCURVE",
"307 329 OFFCURVE",
"358 329 CURVE SMOOTH",
"410 329 OFFCURVE",
"453 273 OFFCURVE",
"453 183 CURVE",
"453 93 OFFCURVE",
"413 58 OFFCURVE",
"358 58 CURVE SMOOTH"
);
},
{
closed = 1;
nodes = (
"124 445 OFFCURVE",
"144 463 OFFCURVE",
"144 495 CURVE SMOOTH",
"144 526 OFFCURVE",
"123 545 OFFCURVE",
"94 545 CURVE SMOOTH",
"65 545 OFFCURVE",
"44 526 OFFCURVE",
"44 495 CURVE SMOOTH",
"44 463 OFFCURVE",
"62 445 OFFCURVE",
"94 445 CURVE SMOOTH"
);
},
{
closed = 1;
nodes = (
"650 173 OFFCURVE",
"670 191 OFFCURVE",
"670 223 CURVE SMOOTH",
"670 254 OFFCURVE",
"649 273 OFFCURVE",
"620 273 CURVE SMOOTH",
"591 273 OFFCURVE",
"570 254 OFFCURVE",
"570 223 CURVE SMOOTH",
"570 191 OFFCURVE",
"588 173 OFFCURVE",
"620 173 CURVE SMOOTH"
);
},
{
closed = 1;
nodes = (
"306 394 OFFCURVE",
"268 448 OFFCURVE",
"268 534 CURVE SMOOTH",
"268 620 OFFCURVE",
"310 657 OFFCURVE",
"358 657 CURVE SMOOTH",
"408 657 OFFCURVE",
"449 620 OFFCURVE",
"449 534 CURVE",
"449 448 OFFCURVE",
"410 394 OFFCURVE",
"358 394 CURVE SMOOTH"
);
},
{
closed = 1;
nodes = (
"650 445 OFFCURVE",
"670 463 OFFCURVE",
"670 495 CURVE SMOOTH",
"670 526 OFFCURVE",
"649 545 OFFCURVE",
"620 545 CURVE SMOOTH",
"591 545 OFFCURVE",
"570 526 OFFCURVE",
"570 495 CURVE SMOOTH",
"570 463 OFFCURVE",
"588 445 OFFCURVE",
"620 445 CURVE SMOOTH"
);
}
);
width = 714;
}
);
unicode = A58A;
},
{
glyphname = uA58B;
lastChange = "2017-01-31 20:33:09 +0000";
layers = (
{
layerId = UUID0;
paths = (
{
closed = 1;
nodes = (
"357 0 LINE",
"357 714 LINE",
"279 714 LINE",
"279 0 LINE"
);
},
{
closed = 1;
nodes = (
"157 215 OFFCURVE",
"177 233 OFFCURVE",
"177 265 CURVE SMOOTH",
"177 296 OFFCURVE",
"156 315 OFFCURVE",
"127 315 CURVE SMOOTH",
"98 315 OFFCURVE",
"77 296 OFFCURVE",
"77 265 CURVE SMOOTH",
"77 233 OFFCURVE",
"95 215 OFFCURVE",
"127 215 CURVE SMOOTH"
);
},
{
closed = 1;
nodes = (
"157 445 OFFCURVE",
"177 463 OFFCURVE",
"177 495 CURVE SMOOTH",
"177 526 OFFCURVE",
"156 545 OFFCURVE",
"127 545 CURVE",
"98 545 OFFCURVE",
"77 526 OFFCURVE",
"77 495 CURVE",
"77 463 OFFCURVE",
"95 445 OFFCURVE",
"127 445 CURVE"
);
},
{
closed = 1;
nodes = (
"543 215 OFFCURVE",
"563 233 OFFCURVE",
"563 265 CURVE SMOOTH",
"563 296 OFFCURVE",
"542 315 OFFCURVE",
"513 315 CURVE SMOOTH",
"484 315 OFFCURVE",
"463 296 OFFCURVE",
"463 265 CURVE SMOOTH",
"463 233 OFFCURVE",
"481 215 OFFCURVE",
"513 215 CURVE SMOOTH"
);
},
{
closed = 1;
nodes = (
"543 445 OFFCURVE",
"563 463 OFFCURVE",
"563 495 CURVE SMOOTH",
"563 526 OFFCURVE",
"542 545 OFFCURVE",
"513 545 CURVE SMOOTH",
"484 545 OFFCURVE",
"463 526 OFFCURVE",
"463 495 CURVE SMOOTH",
"463 463 OFFCURVE",
"481 445 OFFCURVE",
"513 445 CURVE SMOOTH"
);
}
);
width = 640;
}
);
unicode = A58B;
},
{
glyphname = uA58C;
lastChange = "2017-01-31 20:33:09 +0000";
layers = (
{
layerId = UUID0;
paths = (
{
closed = 1;
nodes = (
"357 0 LINE",
"357 714 LINE",
"279 714 LINE",
"279 0 LINE"
);
},
{
closed = 1;
nodes = (
"157 345 OFFCURVE",
"177 363 OFFCURVE",
"177 395 CURVE SMOOTH",
"177 426 OFFCURVE",
"156 445 OFFCURVE",
"127 445 CURVE",
"98 445 OFFCURVE",
"77 426 OFFCURVE",
"77 395 CURVE",
"77 363 OFFCURVE",
"95 345 OFFCURVE",
"127 345 CURVE"
);
},
{
closed = 1;
nodes = (
"543 345 OFFCURVE",
"563 363 OFFCURVE",
"563 395 CURVE SMOOTH",
"563 426 OFFCURVE",
"542 445 OFFCURVE",
"513 445 CURVE SMOOTH",
"484 445 OFFCURVE",
"463 426 OFFCURVE",
"463 395 CURVE SMOOTH",
"463 363 OFFCURVE",
"481 345 OFFCURVE",
"513 345 CURVE SMOOTH"
);
}
);
width = 640;
}
);
unicode = A58C;
},
{
glyphname = uA58D;
lastChange = "2017-01-31 20:33:09 +0000";
layers = (
{
layerId = UUID0;
paths = (
{
closed = 1;
nodes = (
"549 0 LINE",
"549 714 LINE",
"471 714 LINE",
"471 0 LINE"
);
},
{
closed = 1;
nodes = (
"189 0 LINE",
"189 714 LINE",
"111 714 LINE",
"111 0 LINE"
);
},
{
closed = 1;
nodes = (
"359 345 OFFCURVE",
"379 363 OFFCURVE",
"379 395 CURVE SMOOTH",
"379 426 OFFCURVE",
"358 445 OFFCURVE",
"329 445 CURVE",
"300 445 OFFCURVE",
"279 426 OFFCURVE",
"279 395 CURVE",
"279 363 OFFCURVE",
"297 345 OFFCURVE",
"329 345 CURVE"
);
},
{
closed = 1;
nodes = (
"724 345 OFFCURVE",
"744 363 OFFCURVE",
"744 395 CURVE SMOOTH",
"744 426 OFFCURVE",
"723 445 OFFCURVE",
"694 445 CURVE SMOOTH",
"665 445 OFFCURVE",
"644 426 OFFCURVE",
"644 395 CURVE SMOOTH",
"644 363 OFFCURVE",
"662 345 OFFCURVE",
"694 345 CURVE SMOOTH"
);
}
);
width = 821;
}
);
unicode = A58D;
},
{
glyphname = uA58E;
lastChange = "2017-01-31 20:33:09 +0000";
layers = (
{
layerId = UUID0;
paths = (
{
closed = 1;
nodes = (
"189 0 LINE",
"189 714 LINE",
"111 714 LINE",
"111 0 LINE"
);
},
{
closed = 1;
nodes = (
"405 215 OFFCURVE",
"425 233 OFFCURVE",
"425 265 CURVE SMOOTH",
"425 296 OFFCURVE",
"404 315 OFFCURVE",
"375 315 CURVE SMOOTH",
"346 315 OFFCURVE",
"325 296 OFFCURVE",
"325 265 CURVE SMOOTH",
"325 233 OFFCURVE",
"343 215 OFFCURVE",
"375 215 CURVE SMOOTH"
);
},
{
closed = 1;
nodes = (
"405 445 OFFCURVE",
"425 463 OFFCURVE",
"425 495 CURVE SMOOTH",
"425 526 OFFCURVE",
"404 545 OFFCURVE",
"375 545 CURVE SMOOTH",
"346 545 OFFCURVE",
"325 526 OFFCURVE",
"325 495 CURVE SMOOTH",
"325 463 OFFCURVE",
"343 445 OFFCURVE",
"375 445 CURVE SMOOTH"
);
}
);
width = 502;
}
);
unicode = A58E;
},
{
glyphname = uA58F;
lastChange = "2017-01-31 20:33:09 +0000";
layers = (
{
layerId = UUID0;
paths = (
{
closed = 1;
nodes = (
"656 0 LINE",
"592 111 OFFCURVE",
"543 284 OFFCURVE",
"538 442 CURVE",
"635 476 OFFCURVE",
"677 541 OFFCURVE",
"677 617 CURVE SMOOTH",
"677 707 OFFCURVE",
"630 728 OFFCURVE",
"579 728 CURVE SMOOTH",
"489 728 OFFCURVE",
"462 643 OFFCURVE",
"460 491 CURVE",
"432 487 OFFCURVE",
"399 485 OFFCURVE",
"361 485 CURVE SMOOTH",
"327 485 OFFCURVE",
"297 486 OFFCURVE",
"272 490 CURVE",
"269 645 OFFCURVE",
"243 728 OFFCURVE",
"153 728 CURVE SMOOTH",
"102 728 OFFCURVE",
"55 707 OFFCURVE",
"55 617 CURVE SMOOTH",
"55 539 OFFCURVE",
"93 473 OFFCURVE",
"193 439 CURVE",
"188 281 OFFCURVE",
"139 102 OFFCURVE",
"76 0 CURVE"
);
},
{
closed = 1;
nodes = (
"238 172 OFFCURVE",
"265 305 OFFCURVE",
"271 422 CURVE",
"298 419 OFFCURVE",
"328 417 OFFCURVE",
"361 417 CURVE SMOOTH",
"398 417 OFFCURVE",
"431 419 OFFCURVE",
"461 424 CURVE",
"466 307 OFFCURVE",
"495 171 OFFCURVE",
"534 69 CURVE",
"195 69 LINE"
);
},
{
closed = 1;
nodes = (
"140 531 OFFCURVE",
"123 575 OFFCURVE",
"123 615 CURVE SMOOTH",
"123 649 OFFCURVE",
"135 660 OFFCURVE",
"153 660 CURVE SMOOTH",
"182 660 OFFCURVE",
"194 608 OFFCURVE",
"196 506 CURVE"
);
},
{
closed = 1;
nodes = (
"537 608 OFFCURVE",
"550 660 OFFCURVE",
"579 660 CURVE SMOOTH",
"598 660 OFFCURVE",
"609 649 OFFCURVE",
"609 615 CURVE SMOOTH",
"609 573 OFFCURVE",
"590 530 OFFCURVE",
"535 506 CURVE"
);
}
);
width = 732;
}
);
unicode = A58F;
},
{
glyphname = uA590;
lastChange = "2017-01-31 20:33:09 +0000";
layers = (
{
layerId = UUID0;
paths = (
{
closed = 1;
nodes = (
"775 0 LINE",
"775 242 LINE",
"697 242 LINE",
"697 152 LINE",
"590 152 LINE",
"560 242 OFFCURVE",
"541 345 OFFCURVE",
"538 442 CURVE",
"635 476 OFFCURVE",
"677 541 OFFCURVE",
"677 617 CURVE SMOOTH",
"677 707 OFFCURVE",
"630 728 OFFCURVE",
"579 728 CURVE SMOOTH",
"489 728 OFFCURVE",
"462 643 OFFCURVE",
"460 491 CURVE",
"432 487 OFFCURVE",
"399 485 OFFCURVE",
"361 485 CURVE SMOOTH",
"327 485 OFFCURVE",
"297 486 OFFCURVE",
"272 490 CURVE",
"269 645 OFFCURVE",
"243 728 OFFCURVE",
"153 728 CURVE SMOOTH",
"102 728 OFFCURVE",
"55 707 OFFCURVE",
"55 617 CURVE SMOOTH",
"55 539 OFFCURVE",
"93 473 OFFCURVE",
"193 439 CURVE",
"190 319 OFFCURVE",
"160 186 OFFCURVE",
"118 84 CURVE",
"697 84 LINE",
"697 0 LINE"
);
},
{
closed = 1;
nodes = (
"250 238 OFFCURVE",
"267 335 OFFCURVE",
"271 422 CURVE",
"298 419 OFFCURVE",
"328 417 OFFCURVE",
"361 417 CURVE SMOOTH",
"398 417 OFFCURVE",
"431 419 OFFCURVE",
"461 424 CURVE",
"465 336 OFFCURVE",
"481 238 OFFCURVE",
"506 152 CURVE",
"224 152 LINE"
);
},
{
closed = 1;
nodes = (
"140 531 OFFCURVE",
"123 575 OFFCURVE",
"123 615 CURVE SMOOTH",
"123 649 OFFCURVE",
"135 660 OFFCURVE",
"153 660 CURVE SMOOTH",
"182 660 OFFCURVE",
"194 608 OFFCURVE",
"196 506 CURVE"
);
},
{
closed = 1;
nodes = (
"537 608 OFFCURVE",
"550 660 OFFCURVE",
"579 660 CURVE SMOOTH",
"598 660 OFFCURVE",
"609 649 OFFCURVE",
"609 615 CURVE SMOOTH",
"609 573 OFFCURVE",
"590 530 OFFCURVE",
"535 506 CURVE"
);
}
);
width = 819;
}
);
unicode = A590;
},
{
glyphname = uA591;
lastChange = "2017-01-31 20:33:09 +0000";
layers = (
{
layerId = UUID0;
paths = (
{
closed = 1;
nodes = (
"584 0 LINE",
"584 500 LINE",
"373 500 LINE",
"373 714 LINE",
"33 714 LINE",
"33 645 LINE",
"295 645 LINE",
"295 500 LINE",
"154 500 LINE",
"154 431 LINE",
"295 431 LINE",
"295 100 LINE",
"373 100 LINE",
"373 431 LINE",
"506 431 LINE",
"506 0 LINE"
);
}
);
width = 672;
}
);
unicode = A591;
},
{
glyphname = uA592;
lastChange = "2017-01-31 20:33:09 +0000";
layers = (
{
layerId = UUID0;
paths = (
{
closed = 1;
nodes = (
"230 242 OFFCURVE",
"282 277 OFFCURVE",
"295 338 CURVE",
"591 338 LINE",
"604 277 OFFCURVE",
"652 242 OFFCURVE",
"720 242 CURVE SMOOTH",
"797 242 OFFCURVE",
"854 290 OFFCURVE",
"854 372 CURVE SMOOTH",
"854 451 OFFCURVE",
"796 499 OFFCURVE",
"720 499 CURVE SMOOTH",
"653 499 OFFCURVE",
"605 465 OFFCURVE",
"592 407 CURVE",
"295 407 LINE",
"280 465 OFFCURVE",
"229 499 OFFCURVE",
"165 499 CURVE SMOOTH",
"86 499 OFFCURVE",
"33 451 OFFCURVE",
"33 371 CURVE SMOOTH",
"33 290 OFFCURVE",
"86 242 OFFCURVE",
"165 242 CURVE SMOOTH"
);
},
{
closed = 1;
nodes = (
"472 135 OFFCURVE",
"492 153 OFFCURVE",
"492 185 CURVE SMOOTH",
"492 216 OFFCURVE",
"471 235 OFFCURVE",
"442 235 CURVE SMOOTH",
"413 235 OFFCURVE",
"392 216 OFFCURVE",
"392 185 CURVE SMOOTH",
"392 153 OFFCURVE",
"410 135 OFFCURVE",
"442 135 CURVE SMOOTH"
);
},
{
closed = 1;
nodes = (
"472 507 OFFCURVE",
"492 525 OFFCURVE",
"492 557 CURVE SMOOTH",
"492 588 OFFCURVE",
"471 607 OFFCURVE",
"442 607 CURVE SMOOTH",
"413 607 OFFCURVE",
"392 588 OFFCURVE",
"392 557 CURVE SMOOTH",
"392 525 OFFCURVE",
"410 507 OFFCURVE",
"442 507 CURVE SMOOTH"
);
}
);
width = 887;
}
);
unicode = A592;
},
{
glyphname = uA593;
lastChange = "2017-01-31 20:33:09 +0000";
layers = (
{
layerId = UUID0;
paths = (
{
closed = 1;
nodes = (
"608 -10 OFFCURVE",
"652 81 OFFCURVE",
"652 253 CURVE SMOOTH",
"652 311 LINE",
"681 320 OFFCURVE",
"715 325 OFFCURVE",
"753 325 CURVE SMOOTH",
"856 325 OFFCURVE",
"881 304 OFFCURVE",
"881 263 CURVE SMOOTH",
"881 222 OFFCURVE",
"854 200 OFFCURVE",
"815 200 CURVE",
"815 137 LINE",
"895 137 OFFCURVE",
"959 180 OFFCURVE",
"959 263 CURVE SMOOTH",
"959 351 OFFCURVE",
"908 393 OFFCURVE",
"753 393 CURVE SMOOTH",
"716 393 OFFCURVE",
"683 389 OFFCURVE",
"652 381 CURVE",
"652 714 LINE",
"574 714 LINE",
"574 645 LINE SMOOTH",
"574 540 OFFCURVE",
"537 491 OFFCURVE",
"486 491 CURVE SMOOTH",
"433 491 OFFCURVE",
"392 527 OFFCURVE",
"392 621 CURVE SMOOTH",
"392 714 LINE",
"314 714 LINE",
"314 623 LINE SMOOTH",
"314 527 OFFCURVE",
"272 491 OFFCURVE",
"227 491 CURVE SMOOTH",
"169 491 OFFCURVE",
"133 540 OFFCURVE",
"133 643 CURVE SMOOTH",
"133 714 LINE",
"55 714 LINE",
"55 643 LINE SMOOTH",
"55 477 OFFCURVE",
"118 425 OFFCURVE",
"212 425 CURVE SMOOTH",
"264 425 OFFCURVE",
"319 447 OFFCURVE",
"349 515 CURVE",
"353 515 LINE",
"374 445 OFFCURVE",
"433 425 OFFCURVE",
"473 425 CURVE SMOOTH",
"505 425 OFFCURVE",
"549 443 OFFCURVE",
"570 490 CURVE",
"574 490 LINE",
"574 353 LINE",
"463 298 OFFCURVE",
"405 198 OFFCURVE",
"405 121 CURVE SMOOTH",
"405 31 OFFCURVE",
"462 -10 OFFCURVE",
"513 -10 CURVE SMOOTH"
);
},
{
closed = 1;
nodes = (
"486 58 OFFCURVE",
"473 82 OFFCURVE",
"473 123 CURVE SMOOTH",
"473 163 OFFCURVE",
"503 230 OFFCURVE",
"574 276 CURVE",
"574 253 LINE SMOOTH",
"574 106 OFFCURVE",
"546 58 OFFCURVE",
"513 58 CURVE SMOOTH"
);
},
{
closed = 1;
nodes = (
"775 165 OFFCURVE",
"795 183 OFFCURVE",
"795 215 CURVE SMOOTH",
"795 246 OFFCURVE",
"774 265 OFFCURVE",
"745 265 CURVE SMOOTH",
"716 265 OFFCURVE",
"695 246 OFFCURVE",
"695 215 CURVE SMOOTH",
"695 183 OFFCURVE",
"713 165 OFFCURVE",
"745 165 CURVE SMOOTH"
);
},
{
closed = 1;
nodes = (
"775 445 OFFCURVE",
"795 463 OFFCURVE",
"795 495 CURVE SMOOTH",
"795 526 OFFCURVE",
"774 545 OFFCURVE",
"745 545 CURVE SMOOTH",
"716 545 OFFCURVE",
"695 526 OFFCURVE",
"695 495 CURVE SMOOTH",
"695 463 OFFCURVE",
"713 445 OFFCURVE",
"745 445 CURVE SMOOTH"
);
}
);
width = 992;
}
);
unicode = A593;
},
{
glyphname = uA594;
lastChange = "2017-01-31 20:33:09 +0000";
layers = (
{
layerId = UUID0;
paths = (
{
closed = 1;
nodes = (
"592 0 LINE",
"592 69 LINE",
"390 69 LINE",
"390 645 LINE",
"592 645 LINE",
"592 714 LINE",
"110 714 LINE",
"110 645 LINE",
"312 645 LINE",
"312 69 LINE",
"110 69 LINE",
"110 0 LINE"
);
},
{
closed = 1;
nodes = (
"157 215 OFFCURVE",
"177 233 OFFCURVE",
"177 265 CURVE SMOOTH",
"177 296 OFFCURVE",
"156 315 OFFCURVE",
"127 315 CURVE SMOOTH",
"98 315 OFFCURVE",
"77 296 OFFCURVE",
"77 265 CURVE SMOOTH",
"77 233 OFFCURVE",
"95 215 OFFCURVE",
"127 215 CURVE SMOOTH"
);
},
{
closed = 1;
nodes = (
"157 445 OFFCURVE",
"177 463 OFFCURVE",
"177 495 CURVE SMOOTH",
"177 526 OFFCURVE",
"156 545 OFFCURVE",
"127 545 CURVE",
"98 545 OFFCURVE",
"77 526 OFFCURVE",
"77 495 CURVE",
"77 463 OFFCURVE",
"95 445 OFFCURVE",
"127 445 CURVE"
);
},
{
closed = 1;
nodes = (
"603 215 OFFCURVE",
"623 233 OFFCURVE",
"623 265 CURVE SMOOTH",
"623 296 OFFCURVE",
"602 315 OFFCURVE",
"573 315 CURVE SMOOTH",
"544 315 OFFCURVE",
"523 296 OFFCURVE",
"523 265 CURVE SMOOTH",
"523 233 OFFCURVE",
"541 215 OFFCURVE",
"573 215 CURVE SMOOTH"
);
},
{
closed = 1;
nodes = (
"603 445 OFFCURVE",
"623 463 OFFCURVE",
"623 495 CURVE SMOOTH",
"623 526 OFFCURVE",
"602 545 OFFCURVE",
"573 545 CURVE SMOOTH",
"544 545 OFFCURVE",
"523 526 OFFCURVE",
"523 495 CURVE SMOOTH",
"523 463 OFFCURVE",
"541 445 OFFCURVE",
"573 445 CURVE SMOOTH"
);
}
);
width = 700;
}
);
unicode = A594;
},
{
glyphname = uA595;
lastChange = "2017-01-31 20:33:09 +0000";
layers = (
{
layerId = UUID0;
paths = (
{
closed = 1;
nodes = (
"594 0 LINE",
"594 329 LINE",
"392 329 LINE",
"392 480 LINE",
"396 480 LINE",
"419 433 OFFCURVE",
"473 425 OFFCURVE",
"494 425 CURVE SMOOTH",
"588 425 OFFCURVE",
"651 477 OFFCURVE",
"651 646 CURVE SMOOTH",
"651 714 LINE",
"573 714 LINE",
"573 645 LINE SMOOTH",
"573 540 OFFCURVE",
"537 491 OFFCURVE",
"484 491 CURVE SMOOTH",
"434 491 OFFCURVE",
"392 527 OFFCURVE",
"392 623 CURVE SMOOTH",
"392 714 LINE",
"314 714 LINE",
"314 623 LINE SMOOTH",
"314 527 OFFCURVE",
"272 491 OFFCURVE",
"222 491 CURVE SMOOTH",
"169 491 OFFCURVE",
"133 540 OFFCURVE",
"133 645 CURVE SMOOTH",
"133 714 LINE",
"55 714 LINE",
"55 646 LINE SMOOTH",
"55 477 OFFCURVE",
"118 425 OFFCURVE",
"212 425 CURVE SMOOTH",
"237 425 OFFCURVE",
"283 435 OFFCURVE",
"310 480 CURVE",
"314 480 LINE",
"314 260 LINE",
"516 260 LINE",
"516 0 LINE"
);
},
{
closed = 1;
nodes = (
"243 245 OFFCURVE",
"263 263 OFFCURVE",
"263 295 CURVE SMOOTH",
"263 326 OFFCURVE",
"242 345 OFFCURVE",
"213 345 CURVE SMOOTH",
"184 345 OFFCURVE",
"163 326 OFFCURVE",
"163 295 CURVE SMOOTH",
"163 263 OFFCURVE",
"181 245 OFFCURVE",
"213 245 CURVE SMOOTH"
);
},
{
closed = 1;
nodes = (
"729 245 OFFCURVE",
"749 263 OFFCURVE",
"749 295 CURVE SMOOTH",
"749 326 OFFCURVE",
"728 345 OFFCURVE",
"699 345 CURVE SMOOTH",
"670 345 OFFCURVE",
"649 326 OFFCURVE",
"649 295 CURVE SMOOTH",
"649 263 OFFCURVE",
"667 245 OFFCURVE",
"699 245 CURVE SMOOTH"
);
}
);
width = 782;
}
);
unicode = A595;
},
{
glyphname = uA596;
lastChange = "2017-01-31 20:33:09 +0000";
layers = (
{
layerId = UUID0;
paths = (
{
closed = 1;
nodes = (
"746 0 LINE",
"746 69 LINE",
"594 69 LINE",
"594 120 LINE",
"746 120 LINE",
"746 189 LINE",
"594 189 LINE",
"594 329 LINE",
"392 329 LINE",
"392 480 LINE",
"396 480 LINE",
"419 433 OFFCURVE",
"473 425 OFFCURVE",
"494 425 CURVE SMOOTH",
"588 425 OFFCURVE",
"651 477 OFFCURVE",
"651 646 CURVE SMOOTH",
"651 714 LINE",
"573 714 LINE",
"573 645 LINE SMOOTH",
"573 540 OFFCURVE",
"537 491 OFFCURVE",
"484 491 CURVE SMOOTH",
"434 491 OFFCURVE",
"392 527 OFFCURVE",
"392 623 CURVE SMOOTH",
"392 714 LINE",
"314 714 LINE",
"314 623 LINE SMOOTH",
"314 527 OFFCURVE",
"272 491 OFFCURVE",
"222 491 CURVE SMOOTH",
"169 491 OFFCURVE",
"133 540 OFFCURVE",
"133 645 CURVE SMOOTH",
"133 714 LINE",
"55 714 LINE",
"55 646 LINE SMOOTH",
"55 477 OFFCURVE",
"118 425 OFFCURVE",
"212 425 CURVE SMOOTH",
"237 425 OFFCURVE",
"283 435 OFFCURVE",
"310 480 CURVE",
"314 480 LINE",
"314 260 LINE",
"516 260 LINE",
"516 189 LINE",
"364 189 LINE",
"364 120 LINE",
"516 120 LINE",
"516 69 LINE",
"364 69 LINE",
"364 0 LINE"
);
},
{
closed = 1;
nodes = (
"243 245 OFFCURVE",
"263 263 OFFCURVE",
"263 295 CURVE SMOOTH",
"263 326 OFFCURVE",
"242 345 OFFCURVE",
"213 345 CURVE SMOOTH",
"184 345 OFFCURVE",
"163 326 OFFCURVE",
"163 295 CURVE SMOOTH",
"163 263 OFFCURVE",
"181 245 OFFCURVE",
"213 245 CURVE SMOOTH"
);
},
{
closed = 1;
nodes = (
"729 245 OFFCURVE",
"749 263 OFFCURVE",
"749 295 CURVE SMOOTH",
"749 326 OFFCURVE",
"728 345 OFFCURVE",
"699 345 CURVE SMOOTH",
"670 345 OFFCURVE",
"649 326 OFFCURVE",
"649 295 CURVE SMOOTH",
"649 263 OFFCURVE",
"667 245 OFFCURVE",
"699 245 CURVE SMOOTH"
);
}
);
width = 804;
}
);
unicode = A596;
},
{
glyphname = uA597;
lastChange = "2017-01-31 20:33:09 +0000";
layers = (
{
layerId = UUID0;
paths = (
{
closed = 1;
nodes = (
"746 0 LINE",
"746 69 LINE",
"594 69 LINE",
"594 329 LINE",
"392 329 LINE",
"392 480 LINE",
"396 480 LINE",
"419 433 OFFCURVE",
"473 425 OFFCURVE",
"494 425 CURVE SMOOTH",
"588 425 OFFCURVE",
"651 477 OFFCURVE",
"651 646 CURVE SMOOTH",
"651 714 LINE",
"573 714 LINE",
"573 645 LINE SMOOTH",
"573 540 OFFCURVE",
"537 491 OFFCURVE",
"484 491 CURVE SMOOTH",
"434 491 OFFCURVE",
"392 527 OFFCURVE",
"392 623 CURVE SMOOTH",
"392 714 LINE",
"314 714 LINE",
"314 623 LINE SMOOTH",
"314 527 OFFCURVE",
"272 491 OFFCURVE",
"222 491 CURVE SMOOTH",
"169 491 OFFCURVE",
"133 540 OFFCURVE",
"133 645 CURVE SMOOTH",
"133 714 LINE",
"55 714 LINE",
"55 646 LINE SMOOTH",
"55 477 OFFCURVE",
"118 425 OFFCURVE",
"212 425 CURVE SMOOTH",
"237 425 OFFCURVE",
"283 435 OFFCURVE",
"310 480 CURVE",
"314 480 LINE",
"314 260 LINE",
"516 260 LINE",
"516 69 LINE",
"364 69 LINE",
"364 0 LINE"
);
}
);
width = 768;
}
);
unicode = A597;
},
{
glyphname = uA598;
lastChange = "2017-01-31 20:33:09 +0000";
layers = (
{
layerId = UUID0;
paths = (
{
closed = 1;
nodes = (
"454 111 OFFCURVE",
"531 149 OFFCURVE",
"576 217 CURVE",
"626 229 OFFCURVE",
"673 254 OFFCURVE",
"694 269 CURVE",
"660 322 LINE",
"652 316 OFFCURVE",
"634 303 OFFCURVE",
"611 293 CURVE",
"618 321 OFFCURVE",
"623 351 OFFCURVE",
"623 384 CURVE SMOOTH",
"623 549 OFFCURVE",
"512 660 OFFCURVE",
"359 660 CURVE SMOOTH",
"205 660 OFFCURVE",
"94 549 OFFCURVE",
"94 384 CURVE SMOOTH",
"94 351 OFFCURVE",
"98 321 OFFCURVE",
"105 293 CURVE",
"83 303 OFFCURVE",
"64 316 OFFCURVE",
"56 322 CURVE",
"22 269 LINE",
"43 254 OFFCURVE",
"88 229 OFFCURVE",
"137 217 CURVE",
"181 149 OFFCURVE",
"257 111 OFFCURVE",
"359 111 CURVE SMOOTH"
);
},
{
closed = 1;
nodes = (
"314 179 OFFCURVE",
"277 190 OFFCURVE",
"247 210 CURVE",
"289 214 OFFCURVE",
"326 229 OFFCURVE",
"358 243 CURVE",
"389 229 OFFCURVE",
"425 215 OFFCURVE",
"467 211 CURVE",
"437 190 OFFCURVE",
"401 179 OFFCURVE",
"359 179 CURVE SMOOTH"
);
},
{
closed = 1;
nodes = (
"309 336 OFFCURVE",
"295 386 OFFCURVE",
"295 416 CURVE SMOOTH",
"295 455 OFFCURVE",
"317 488 OFFCURVE",
"358 488 CURVE SMOOTH",
"399 488 OFFCURVE",
"421 456 OFFCURVE",
"421 416 CURVE SMOOTH",
"421 386 OFFCURVE",
"406 336 OFFCURVE",
"358 302 CURVE"
);
},
{
closed = 1;
nodes = (
"216 267 OFFCURVE",
"207 267 OFFCURVE",
"197 268 CURVE",
"181 300 OFFCURVE",
"172 339 OFFCURVE",
"172 384 CURVE SMOOTH",
"172 508 OFFCURVE",
"250 592 OFFCURVE",
"359 592 CURVE SMOOTH",
"467 592 OFFCURVE",
"545 508 OFFCURVE",
"545 384 CURVE SMOOTH",
"545 339 OFFCURVE",
"535 300 OFFCURVE",
"518 268 CURVE",
"508 267 OFFCURVE",
"499 267 OFFCURVE",
"489 267 CURVE SMOOTH",
"461 267 OFFCURVE",
"432 273 OFFCURVE",
"412 280 CURVE",
"455 318 OFFCURVE",
"484 362 OFFCURVE",
"484 416 CURVE SMOOTH",
"484 498 OFFCURVE",
"442 548 OFFCURVE",
"358 548 CURVE SMOOTH",
"274 548 OFFCURVE",
"232 492 OFFCURVE",
"232 416 CURVE SMOOTH",
"232 362 OFFCURVE",
"260 318 OFFCURVE",
"304 280 CURVE",
"283 273 OFFCURVE",
"254 267 OFFCURVE",
"227 267 CURVE SMOOTH"
);
}
);
width = 716;
}
);
unicode = A598;
},
{
glyphname = uA599;
lastChange = "2017-01-31 20:33:09 +0000";
layers = (
{
layerId = UUID0;
paths = (
{
closed = 1;
nodes = (
"594 0 LINE",
"594 329 LINE",
"392 329 LINE",
"392 480 LINE",
"396 480 LINE",
"419 433 OFFCURVE",
"473 425 OFFCURVE",
"494 425 CURVE SMOOTH",
"588 425 OFFCURVE",
"651 477 OFFCURVE",
"651 646 CURVE SMOOTH",
"651 714 LINE",
"573 714 LINE",
"573 645 LINE SMOOTH",
"573 540 OFFCURVE",
"537 491 OFFCURVE",
"484 491 CURVE SMOOTH",
"434 491 OFFCURVE",
"392 527 OFFCURVE",
"392 623 CURVE SMOOTH",
"392 714 LINE",
"314 714 LINE",
"314 623 LINE SMOOTH",
"314 527 OFFCURVE",
"272 491 OFFCURVE",
"222 491 CURVE SMOOTH",
"169 491 OFFCURVE",
"133 540 OFFCURVE",
"133 645 CURVE SMOOTH",
"133 714 LINE",
"55 714 LINE",
"55 646 LINE SMOOTH",
"55 477 OFFCURVE",
"118 425 OFFCURVE",
"212 425 CURVE SMOOTH",
"237 425 OFFCURVE",
"283 435 OFFCURVE",
"310 480 CURVE",
"314 480 LINE",
"314 260 LINE",
"516 260 LINE",
"516 0 LINE"
);
}
);
width = 706;
}
);
unicode = A599;
},
{
glyphname = uA59A;
lastChange = "2017-01-31 20:33:09 +0000";
layers = (
{
layerId = UUID0;
paths = (
{
closed = 1;
nodes = (
"746 0 LINE",
"746 69 LINE",
"594 69 LINE",
"594 120 LINE",
"746 120 LINE",
"746 189 LINE",
"594 189 LINE",
"594 329 LINE",
"392 329 LINE",
"392 480 LINE",
"396 480 LINE",
"419 433 OFFCURVE",
"473 425 OFFCURVE",
"494 425 CURVE SMOOTH",
"588 425 OFFCURVE",
"651 477 OFFCURVE",
"651 646 CURVE SMOOTH",
"651 714 LINE",
"573 714 LINE",
"573 645 LINE SMOOTH",
"573 540 OFFCURVE",
"537 491 OFFCURVE",
"484 491 CURVE SMOOTH",
"434 491 OFFCURVE",
"392 527 OFFCURVE",
"392 623 CURVE SMOOTH",
"392 714 LINE",
"314 714 LINE",
"314 623 LINE SMOOTH",
"314 527 OFFCURVE",
"272 491 OFFCURVE",
"222 491 CURVE SMOOTH",
"169 491 OFFCURVE",
"133 540 OFFCURVE",
"133 645 CURVE SMOOTH",
"133 714 LINE",
"55 714 LINE",
"55 646 LINE SMOOTH",
"55 477 OFFCURVE",
"118 425 OFFCURVE",
"212 425 CURVE SMOOTH",
"237 425 OFFCURVE",
"283 435 OFFCURVE",
"310 480 CURVE",
"314 480 LINE",
"314 260 LINE",
"516 260 LINE",
"516 189 LINE",
"364 189 LINE",
"364 120 LINE",
"516 120 LINE",
"516 69 LINE",
"364 69 LINE",
"364 0 LINE"
);
}
);
width = 779;
}
);
unicode = A59A;
},
{
glyphname = uA59B;
lastChange = "2017-01-31 20:33:09 +0000";
layers = (
{
layerId = UUID0;
paths = (
{
closed = 1;
nodes = (
"284 0 LINE",
"284 177 LINE",
"506 177 LINE",
"506 0 LINE",
"584 0 LINE",
"584 177 LINE",
"746 177 LINE",
"746 246 LINE",
"584 246 LINE",
"584 468 LINE",
"746 468 LINE",
"746 537 LINE",
"584 537 LINE",
"584 714 LINE",
"506 714 LINE",
"506 537 LINE",
"284 537 LINE",
"284 714 LINE",
"206 714 LINE",
"206 537 LINE",
"44 537 LINE",
"44 468 LINE",
"206 468 LINE",
"206 246 LINE",
"44 246 LINE",
"44 177 LINE",
"206 177 LINE",
"206 0 LINE"
);
},
{
closed = 1;
nodes = (
"284 468 LINE",
"506 468 LINE",
"506 246 LINE",
"284 246 LINE"
);
}
);
width = 790;
}
);
unicode = A59B;
},
